[{"onset_time": 0.6115822, "offset_time": 1.22, "midi_note": 43, "velocity": 42}, {"onset_time": 0.91158116, "offset_time": 1.47, "midi_note": 50, "velocity": 38}, {"onset_time": 1.1987973, "offset_time": 2.389144, "midi_note": 57, "velocity": 42}, {"onset_time": 1.4848549, "offset_time": 2.41, "midi_note": 50, "velocity": 42}, {"onset_time": 1.7867327, "offset_time": 2.3864493, "midi_note": 59, "velocity": 38}, {"onset_time": 2.3339891, "offset_time": 2.75, "midi_note": 43, "velocity": 43}, {"onset_time": 2.6252885, "offset_time": 3.15, "midi_note": 50, "velocity": 42}, {"onset_time": 2.8815901, "offset_time": 4.1210046, "midi_note": 57, "velocity": 37}, {"onset_time": 3.1552293, "offset_time": 4.118166, "midi_note": 50, "velocity": 42}, {"onset_time": 3.4642174, "offset_time": 4.117011, "midi_note": 59, "velocity": 35}, {"onset_time": 4.0824976, "offset_time": 5.9, "midi_note": 43, "velocity": 43}, {"onset_time": 4.0833144, "offset_time": 5.972101, "midi_note": 86, "velocity": 63}, {"onset_time": 4.4143353, "offset_time": 4.83, "midi_note": 50, "velocity": 41}, {"onset_time": 4.712248, "offset_time": 5.78, "midi_note": 57, "velocity": 39}, {"onset_time": 4.718034, "offset_time": 5.972851, "midi_note": 83, "velocity": 59}, {"onset_time": 5.010952, "offset_time": 5.970812, "midi_note": 50, "velocity": 42}, {"onset_time": 5.285595, "offset_time": 5.83, "midi_note": 79, "velocity": 56}, {"onset_time": 5.3139343, "offset_time": 5.9657583, "midi_note": 59, "velocity": 35}, {"onset_time": 5.7926993, "offset_time": 5.8, "midi_note": 74, "velocity": 35}, {"onset_time": 5.804377, "offset_time": 7.605191, "midi_note": 76, "velocity": 43}, {"onset_time": 5.837691, "offset_time": 7.64, "midi_note": 79, "velocity": 50}, {"onset_time": 5.9057026, "offset_time": 6.23, "midi_note": 43, "velocity": 42}, {"onset_time": 5.9371085, "offset_time": 7.606288, "midi_note": 84, "velocity": 65}, {"onset_time": 6.21497, "offset_time": 6.77, "midi_note": 52, "velocity": 40}, {"onset_time": 6.4697485, "offset_time": 7.6076713, "midi_note": 55, "velocity": 42}, {"onset_time": 6.775724, "offset_time": 7.6066365, "midi_note": 52, "velocity": 35}, {"onset_time": 7.0678825, "offset_time": 7.6076927, "midi_note": 60, "velocity": 34}, {"onset_time": 7.680761, "offset_time": 9.526012, "midi_note": 84, "velocity": 64}, {"onset_time": 7.6844864, "offset_time": 7.99, "midi_note": 43, "velocity": 45}, {"onset_time": 7.964879, "offset_time": 8.5, "midi_note": 54, "velocity": 48}, {"onset_time": 8.240726, "offset_time": 9.527578, "midi_note": 57, "velocity": 42}, {"onset_time": 8.243548, "offset_time": 9.47, "midi_note": 83, "velocity": 62}, {"onset_time": 8.512899, "offset_time": 9.526441, "midi_note": 54, "velocity": 38}, {"onset_time": 8.814544, "offset_time": 9.528939, "midi_note": 62, "velocity": 36}, {"onset_time": 9.113545, "offset_time": 9.527383, "midi_note": 81, "velocity": 59}, {"onset_time": 9.115977, "offset_time": 9.47, "midi_note": 43, "velocity": 27}, {"onset_time": 9.47733, "offset_time": 11.25, "midi_note": 83, "velocity": 60}, {"onset_time": 9.481654, "offset_time": 11.72, "midi_note": 74, "velocity": 47}, {"onset_time": 9.483569, "offset_time": 11.27, "midi_note": 43, "velocity": 42}, {"onset_time": 9.810744, "offset_time": 10.33, "midi_note": 50, "velocity": 39}, {"onset_time": 10.063758, "offset_time": 11.2752285, "midi_note": 57, "velocity": 41}, {"onset_time": 10.335851, "offset_time": 11.275965, "midi_note": 50, "velocity": 41}, {"onset_time": 10.632004, "offset_time": 11.276783, "midi_note": 59, "velocity": 34}, {"onset_time": 11.260316, "offset_time": 12.99, "midi_note": 83, "velocity": 65}, {"onset_time": 11.275262, "offset_time": 12.94, "midi_note": 43, "velocity": 45}, {"onset_time": 11.555621, "offset_time": 12.08, "midi_note": 50, "velocity": 41}, {"onset_time": 11.835186, "offset_time": 12.916964, "midi_note": 57, "velocity": 41}, {"onset_time": 11.840235, "offset_time": 12.924879, "midi_note": 79, "velocity": 60}, {"onset_time": 12.087723, "offset_time": 12.924048, "midi_note": 50, "velocity": 45}, {"onset_time": 12.375956, "offset_time": 12.924508, "midi_note": 59, "velocity": 43}, {"onset_time": 12.380599, "offset_time": 12.922173, "midi_note": 74, "velocity": 51}, {"onset_time": 12.808193, "offset_time": 14.635936, "midi_note": 72, "velocity": 47}, {"onset_time": 12.86393, "offset_time": 14.63664, "midi_note": 76, "velocity": 52}, {"onset_time": 12.945372, "offset_time": 14.66, "midi_note": 43, "velocity": 39}, {"onset_time": 12.951937, "offset_time": 14.62, "midi_note": 81, "velocity": 60}, {"onset_time": 13.208217, "offset_time": 13.73, "midi_note": 52, "velocity": 39}, {"onset_time": 13.473625, "offset_time": 14.635569, "midi_note": 55, "velocity": 41}, {"onset_time": 13.744028, "offset_time": 14.634663, "midi_note": 52, "velocity": 31}, {"onset_time": 14.06572, "offset_time": 14.636103, "midi_note": 78, "velocity": 60}, {"onset_time": 14.07864, "offset_time": 14.637596, "midi_note": 60, "velocity": 37}, {"onset_time": 14.3317175, "offset_time": 14.645574, "midi_note": 79, "velocity": 59}, {"onset_time": 14.631696, "offset_time": 16.454678, "midi_note": 81, "velocity": 63}, {"onset_time": 14.671936, "offset_time": 16.45, "midi_note": 43, "velocity": 35}, {"onset_time": 14.95925, "offset_time": 15.51, "midi_note": 54, "velocity": 41}, {"onset_time": 15.229836, "offset_time": 16.43, "midi_note": 79, "velocity": 59}, {"onset_time": 15.237919, "offset_time": 16.455002, "midi_note": 57, "velocity": 38}, {"onset_time": 15.519739, "offset_time": 16.455475, "midi_note": 54, "velocity": 39}, {"onset_time": 15.846147, "offset_time": 16.453676, "midi_note": 78, "velocity": 60}, {"onset_time": 15.851175, "offset_time": 16.462074, "midi_note": 62, "velocity": 32}, {"onset_time": 16.301153, "offset_time": 18.19, "midi_note": 71, "velocity": 38}, {"onset_time": 16.36475, "offset_time": 18.18, "midi_note": 74, "velocity": 41}, {"onset_time": 16.440817, "offset_time": 18.2, "midi_note": 79, "velocity": 52}, {"onset_time": 16.456467, "offset_time": 18.18, "midi_note": 43, "velocity": 41}, {"onset_time": 16.754751, "offset_time": 17.27, "midi_note": 50, "velocity": 40}, {"onset_time": 17.025633, "offset_time": 18.16077, "midi_note": 57, "velocity": 34}, {"onset_time": 17.282541, "offset_time": 18.162066, "midi_note": 50, "velocity": 41}, {"onset_time": 17.574976, "offset_time": 18.164558, "midi_note": 59, "velocity": 35}, {"onset_time": 18.187246, "offset_time": 19.78, "midi_note": 43, "velocity": 44}, {"onset_time": 18.1945, "offset_time": 19.34, "midi_note": 74, "velocity": 57}, {"onset_time": 18.505014, "offset_time": 19.02, "midi_note": 50, "velocity": 47}, {"onset_time": 18.76503, "offset_time": 19.354424, "midi_note": 71, "velocity": 60}, {"onset_time": 18.774817, "offset_time": 19.39, "midi_note": 57, "velocity": 44}, {"onset_time": 19.02579, "offset_time": 19.914558, "midi_note": 50, "velocity": 47}, {"onset_time": 19.32291, "offset_time": 19.910868, "midi_note": 67, "velocity": 61}, {"onset_time": 19.324842, "offset_time": 19.910267, "midi_note": 59, "velocity": 45}, {"onset_time": 19.919086, "offset_time": 21.57, "midi_note": 43, "velocity": 45}, {"onset_time": 19.919436, "offset_time": 21.57, "midi_note": 72, "velocity": 65}, {"onset_time": 20.187338, "offset_time": 20.7, "midi_note": 52, "velocity": 35}, {"onset_time": 20.464748, "offset_time": 21.487286, "midi_note": 55, "velocity": 46}, {"onset_time": 20.71344, "offset_time": 21.52, "midi_note": 52, "velocity": 40}, {"onset_time": 21.011047, "offset_time": 21.488243, "midi_note": 60, "velocity": 39}, {"onset_time": 21.435738, "offset_time": 22.66, "midi_note": 62, "velocity": 32}, {"onset_time": 21.473404, "offset_time": 23.26, "midi_note": 66, "velocity": 42}, {"onset_time": 21.576813, "offset_time": 23.29, "midi_note": 43, "velocity": 43}, {"onset_time": 21.578972, "offset_time": 22.46, "midi_note": 72, "velocity": 66}, {"onset_time": 21.847593, "offset_time": 22.38, "midi_note": 54, "velocity": 45}, {"onset_time": 22.131882, "offset_time": 23.264278, "midi_note": 57, "velocity": 43}, {"onset_time": 22.132776, "offset_time": 23.26, "midi_note": 71, "velocity": 57}, {"onset_time": 22.385597, "offset_time": 23.2694, "midi_note": 54, "velocity": 45}, {"onset_time": 22.674925, "offset_time": 23.3, "midi_note": 62, "velocity": 29}, {"onset_time": 22.957394, "offset_time": 23.272831, "midi_note": 69, "velocity": 47}, {"onset_time": 22.960266, "offset_time": 22.97, "midi_note": 55, "velocity": 30}, {"onset_time": 23.266825, "offset_time": 24.94, "midi_note": 71, "velocity": 48}, {"onset_time": 23.295746, "offset_time": 24.97, "midi_note": 43, "velocity": 44}, {"onset_time": 23.305851, "offset_time": 24.993319, "midi_note": 62, "velocity": 25}, {"onset_time": 23.581059, "offset_time": 24.12, "midi_note": 50, "velocity": 39}, {"onset_time": 23.871931, "offset_time": 24.993757, "midi_note": 57, "velocity": 32}, {"onset_time": 24.13499, "offset_time": 25.02, "midi_note": 50, "velocity": 37}, {"onset_time": 24.432972, "offset_time": 24.992733, "midi_note": 59, "velocity": 33}, {"onset_time": 24.949856, "offset_time": 26.64, "midi_note": 71, "velocity": 57}, {"onset_time": 24.97571, "offset_time": 26.61, "midi_note": 43, "velocity": 42}, {"onset_time": 25.24809, "offset_time": 25.68, "midi_note": 50, "velocity": 42}, {"onset_time": 25.516878, "offset_time": 26.620026, "midi_note": 67, "velocity": 58}, {"onset_time": 25.519272, "offset_time": 25.53, "midi_note": 57, "velocity": 43}, {"onset_time": 25.545307, "offset_time": 26.49, "midi_note": 55, "velocity": 34}, {"onset_time": 25.775833, "offset_time": 26.618181, "midi_note": 50, "velocity": 40}, {"onset_time": 26.065723, "offset_time": 26.61819, "midi_note": 59, "velocity": 40}, {"onset_time": 26.073702, "offset_time": 26.617659, "midi_note": 62, "velocity": 35}, {"onset_time": 26.496809, "offset_time": 26.91, "midi_note": 55, "velocity": 21}, {"onset_time": 26.49794, "offset_time": 27.74, "midi_note": 60, "velocity": 27}, {"onset_time": 26.544477, "offset_time": 28.28, "midi_note": 64, "velocity": 27}, {"onset_time": 26.613575, "offset_time": 28.244677, "midi_note": 69, "velocity": 47}, {"onset_time": 26.621117, "offset_time": 28.23599, "midi_note": 43, "velocity": 45}, {"onset_time": 26.905262, "offset_time": 27.41, "midi_note": 52, "velocity": 33}, {"onset_time": 27.180195, "offset_time": 28.249825, "midi_note": 55, "velocity": 35}, {"onset_time": 27.41868, "offset_time": 28.253365, "midi_note": 52, "velocity": 34}, {"onset_time": 27.728699, "offset_time": 28.27, "midi_note": 66, "velocity": 43}, {"onset_time": 27.747627, "offset_time": 28.255919, "midi_note": 60, "velocity": 38}, {"onset_time": 28.0414, "offset_time": 28.291353, "midi_note": 67, "velocity": 57}, {"onset_time": 28.307518, "offset_time": 29.54, "midi_note": 69, "velocity": 45}, {"onset_time": 28.3258, "offset_time": 30.24, "midi_note": 43, "velocity": 44}, {"onset_time": 28.61965, "offset_time": 29.2, "midi_note": 54, "velocity": 43}, {"onset_time": 28.917503, "offset_time": 29.559471, "midi_note": 67, "velocity": 48}, {"onset_time": 28.934074, "offset_time": 30.32, "midi_note": 57, "velocity": 38}, {"onset_time": 28.952713, "offset_time": 30.25, "midi_note": 55, "velocity": 38}, {"onset_time": 29.20806, "offset_time": 30.332516, "midi_note": 54, "velocity": 39}, {"onset_time": 29.522793, "offset_time": 30.302324, "midi_note": 66, "velocity": 42}, {"onset_time": 29.552866, "offset_time": 30.293627, "midi_note": 62, "velocity": 26}, {"onset_time": 30.24185, "offset_time": 30.8, "midi_note": 67, "velocity": 45}, {"onset_time": 30.254192, "offset_time": 31.3, "midi_note": 43, "velocity": 31}, {"onset_time": 30.257725, "offset_time": 31.94, "midi_note": 55, "velocity": 33}, {"onset_time": 30.55362, "offset_time": 31.06, "midi_note": 50, "velocity": 43}, {"onset_time": 30.558096, "offset_time": 31.31, "midi_note": 66, "velocity": 32}, {"onset_time": 30.814552, "offset_time": 31.906525, "midi_note": 67, "velocity": 49}, {"onset_time": 30.83572, "offset_time": 31.91, "midi_note": 57, "velocity": 40}, {"onset_time": 31.074638, "offset_time": 31.905464, "midi_note": 50, "velocity": 48}, {"onset_time": 31.076012, "offset_time": 31.92, "midi_note": 69, "velocity": 49}, {"onset_time": 31.31444, "offset_time": 31.93, "midi_note": 71, "velocity": 56}, {"onset_time": 31.314568, "offset_time": 31.88, "midi_note": 43, "velocity": 30}, {"onset_time": 31.3338, "offset_time": 31.92, "midi_note": 59, "velocity": 41}, {"onset_time": 31.595284, "offset_time": 31.927618, "midi_note": 72, "velocity": 61}, {"onset_time": 31.799143, "offset_time": 34.15, "midi_note": 64, "velocity": 26}, {"onset_time": 31.886799, "offset_time": 33.03, "midi_note": 74, "velocity": 53}, {"onset_time": 31.894842, "offset_time": 34.1, "midi_note": 43, "velocity": 54}, {"onset_time": 32.155334, "offset_time": 32.71, "midi_note": 52, "velocity": 42}, {"onset_time": 32.425526, "offset_time": 34.16642, "midi_note": 55, "velocity": 47}, {"onset_time": 32.718018, "offset_time": 33.44, "midi_note": 52, "velocity": 36}, {"onset_time": 32.726856, "offset_time": 34.19, "midi_note": 76, "velocity": 53}, {"onset_time": 33.043495, "offset_time": 33.92, "midi_note": 74, "velocity": 43}, {"onset_time": 33.052032, "offset_time": 34.16, "midi_note": 60, "velocity": 31}, {"onset_time": 33.42459, "offset_time": 34.16423, "midi_note": 72, "velocity": 48}, {"onset_time": 33.447685, "offset_time": 34.162468, "midi_note": 52, "velocity": 32}, {"onset_time": 33.932804, "offset_time": 35.63, "midi_note": 74, "velocity": 40}, {"onset_time": 33.99545, "offset_time": 35.93, "midi_note": 79, "velocity": 52}, {"onset_time": 34.114647, "offset_time": 35.93, "midi_note": 43, "velocity": 42}, {"onset_time": 34.12541, "offset_time": 35.94, "midi_note": 83, "velocity": 59}, {"onset_time": 34.44789, "offset_time": 34.96, "midi_note": 50, "velocity": 43}, {"onset_time": 34.695496, "offset_time": 35.92, "midi_note": 57, "velocity": 46}, {"onset_time": 34.96689, "offset_time": 35.5, "midi_note": 50, "velocity": 48}, {"onset_time": 35.22534, "offset_time": 35.90264, "midi_note": 86, "velocity": 67}, {"onset_time": 35.233765, "offset_time": 35.92, "midi_note": 55, "velocity": 35}, {"onset_time": 35.254517, "offset_time": 35.90089, "midi_note": 59, "velocity": 45}, {"onset_time": 35.51279, "offset_time": 35.900322, "midi_note": 50, "velocity": 46}, {"onset_time": 35.8757, "offset_time": 36.93, "midi_note": 81, "velocity": 63}, {"onset_time": 35.883633, "offset_time": 37.5, "midi_note": 74, "velocity": 48}, {"onset_time": 35.885387, "offset_time": 37.524586, "midi_note": 42, "velocity": 49}, {"onset_time": 36.152096, "offset_time": 37.52494, "midi_note": 50, "velocity": 46}, {"onset_time": 36.395252, "offset_time": 37.52566, "midi_note": 57, "velocity": 42}, {"onset_time": 36.655155, "offset_time": 37.2, "midi_note": 54, "velocity": 43}, {"onset_time": 36.94344, "offset_time": 37.52542, "midi_note": 81, "velocity": 62}, {"onset_time": 36.94888, "offset_time": 37.52478, "midi_note": 86, "velocity": 63}, {"onset_time": 36.956665, "offset_time": 37.525723, "midi_note": 62, "velocity": 39}, {"onset_time": 37.20528, "offset_time": 37.52437, "midi_note": 54, "velocity": 45}, {"onset_time": 37.5018, "offset_time": 39.11, "midi_note": 79, "velocity": 57}, {"onset_time": 37.505016, "offset_time": 38.07, "midi_note": 74, "velocity": 45}, {"onset_time": 37.539257, "offset_time": 38.68, "midi_note": 40, "velocity": 37}, {"onset_time": 37.79506, "offset_time": 39.12, "midi_note": 81, "velocity": 57}, {"onset_time": 37.806046, "offset_time": 38.66, "midi_note": 52, "velocity": 43}, {"onset_time": 38.07537, "offset_time": 38.87, "midi_note": 55, "velocity": 49}, {"onset_time": 38.075996, "offset_time": 39.11756, "midi_note": 83, "velocity": 61}, {"onset_time": 38.077652, "offset_time": 38.61, "midi_note": 74, "velocity": 52}, {"onset_time": 38.334076, "offset_time": 39.12476, "midi_note": 59, "velocity": 45}, {"onset_time": 38.612713, "offset_time": 39.19, "midi_note": 84, "velocity": 61}, {"onset_time": 38.62273, "offset_time": 39.0, "midi_note": 74, "velocity": 51}, {"onset_time": 38.671104, "offset_time": 39.12477, "midi_note": 52, "velocity": 25}, {"onset_time": 38.87631, "offset_time": 39.124737, "midi_note": 55, "velocity": 36}, {"onset_time": 39.011013, "offset_time": 39.21, "midi_note": 74, "velocity": 44}, {"onset_time": 39.057888, "offset_time": 40.872833, "midi_note": 78, "velocity": 46}, {"onset_time": 39.184597, "offset_time": 40.868027, "midi_note": 86, "velocity": 69}, {"onset_time": 39.192783, "offset_time": 40.86, "midi_note": 47, "velocity": 46}, {"onset_time": 39.223434, "offset_time": 40.868126, "midi_note": 74, "velocity": 27}, {"onset_time": 39.453094, "offset_time": 39.95, "midi_note": 54, "velocity": 42}, {"onset_time": 39.72263, "offset_time": 40.866924, "midi_note": 59, "velocity": 41}, {"onset_time": 39.95571, "offset_time": 40.86663, "midi_note": 54, "velocity": 37}, {"onset_time": 40.284702, "offset_time": 40.866604, "midi_note": 62, "velocity": 32}, {"onset_time": 40.878487, "offset_time": 42.49822, "midi_note": 84, "velocity": 75}, {"onset_time": 40.880527, "offset_time": 41.96, "midi_note": 76, "velocity": 60}, {"onset_time": 40.893456, "offset_time": 42.502106, "midi_note": 48, "velocity": 47}, {"onset_time": 41.17002, "offset_time": 41.67, "midi_note": 55, "velocity": 46}, {"onset_time": 41.41378, "offset_time": 42.49738, "midi_note": 62, "velocity": 38}, {"onset_time": 41.664345, "offset_time": 42.50083, "midi_note": 86, "velocity": 60}, {"onset_time": 41.680378, "offset_time": 42.21, "midi_note": 55, "velocity": 45}, {"onset_time": 41.94418, "offset_time": 42.49702, "midi_note": 88, "velocity": 66}, {"onset_time": 41.97099, "offset_time": 42.49722, "midi_note": 76, "velocity": 37}, {"onset_time": 41.99824, "offset_time": 42.503056, "midi_note": 64, "velocity": 27}, {"onset_time": 42.221535, "offset_time": 42.49659, "midi_note": 55, "velocity": 50}, {"onset_time": 42.429703, "offset_time": 42.57, "midi_note": 74, "velocity": 44}, {"onset_time": 42.466385, "offset_time": 44.1, "midi_note": 79, "velocity": 57}, {"onset_time": 42.538067, "offset_time": 44.19, "midi_note": 83, "velocity": 61}, {"onset_time": 42.543552, "offset_time": 44.13, "midi_note": 47, "velocity": 52}, {"onset_time": 42.806408, "offset_time": 43.32, "midi_note": 55, "velocity": 53}, {"onset_time": 43.07689, "offset_time": 43.59, "midi_note": 62, "velocity": 38}, {"onset_time": 43.324905, "offset_time": 44.18, "midi_note": 84, "velocity": 66}, {"onset_time": 43.32599, "offset_time": 43.84, "midi_note": 55, "velocity": 48}, {"onset_time": 43.32702, "offset_time": 44.13616, "midi_note": 74, "velocity": 48}, {"onset_time": 43.592598, "offset_time": 44.135086, "midi_note": 86, "velocity": 71}, {"onset_time": 43.604954, "offset_time": 44.14325, "midi_note": 62, "velocity": 35}, {"onset_time": 43.853863, "offset_time": 44.2, "midi_note": 55, "velocity": 51}, {"onset_time": 44.089825, "offset_time": 44.55, "midi_note": 76, "velocity": 49}, {"onset_time": 44.105927, "offset_time": 45.25, "midi_note": 79, "velocity": 56}, {"onset_time": 44.185818, "offset_time": 45.772655, "midi_note": 45, "velocity": 43}, {"onset_time": 44.189846, "offset_time": 45.77217, "midi_note": 84, "velocity": 65}, {"onset_time": 44.453568, "offset_time": 45.77254, "midi_note": 52, "velocity": 46}, {"onset_time": 44.454967, "offset_time": 45.79, "midi_note": 83, "velocity": 63}, {"onset_time": 44.71328, "offset_time": 45.77178, "midi_note": 55, "velocity": 48}, {"onset_time": 44.71447, "offset_time": 45.77525, "midi_note": 81, "velocity": 60}, {"onset_time": 45.00411, "offset_time": 45.53, "midi_note": 60, "velocity": 44}, {"onset_time": 45.26286, "offset_time": 45.777225, "midi_note": 79, "velocity": 60}, {"onset_time": 45.294056, "offset_time": 45.73, "midi_note": 76, "velocity": 41}, {"onset_time": 45.30099, "offset_time": 45.81, "midi_note": 64, "velocity": 31}, {"onset_time": 45.543633, "offset_time": 45.8, "midi_note": 60, "velocity": 38}, {"onset_time": 45.69863, "offset_time": 45.94, "midi_note": 72, "velocity": 44}, {"onset_time": 45.73501, "offset_time": 46.61, "midi_note": 76, "velocity": 49}, {"onset_time": 45.82325, "offset_time": 47.63587, "midi_note": 50, "velocity": 44}, {"onset_time": 45.826195, "offset_time": 47.63403, "midi_note": 81, "velocity": 59}, {"onset_time": 46.115974, "offset_time": 47.63511, "midi_note": 57, "velocity": 43}, {"onset_time": 46.385654, "offset_time": 47.62, "midi_note": 79, "velocity": 56}, {"onset_time": 46.394104, "offset_time": 47.634686, "midi_note": 60, "velocity": 39}, {"onset_time": 46.397415, "offset_time": 47.58, "midi_note": 74, "velocity": 43}, {"onset_time": 46.70084, "offset_time": 47.634933, "midi_note": 62, "velocity": 28}, {"onset_time": 46.98447, "offset_time": 47.63646, "midi_note": 78, "velocity": 58}, {"onset_time": 46.99796, "offset_time": 47.634766, "midi_note": 69, "velocity": 36}, {"onset_time": 47.008034, "offset_time": 47.635098, "midi_note": 54, "velocity": 38}, {"onset_time": 47.58501, "offset_time": 47.87, "midi_note": 74, "velocity": 40}, {"onset_time": 47.626034, "offset_time": 49.434357, "midi_note": 79, "velocity": 57}, {"onset_time": 47.722813, "offset_time": 49.434097, "midi_note": 43, "velocity": 45}, {"onset_time": 47.735897, "offset_time": 49.43435, "midi_note": 83, "velocity": 58}, {"onset_time": 48.009235, "offset_time": 48.53, "midi_note": 50, "velocity": 45}, {"onset_time": 48.27428, "offset_time": 49.43226, "midi_note": 57, "velocity": 51}, {"onset_time": 48.535103, "offset_time": 49.07, "midi_note": 50, "velocity": 50}, {"onset_time": 48.807972, "offset_time": 49.433018, "midi_note": 86, "velocity": 68}, {"onset_time": 48.81115, "offset_time": 49.43407, "midi_note": 59, "velocity": 53}, {"onset_time": 48.81645, "offset_time": 49.39, "midi_note": 74, "velocity": 55}, {"onset_time": 49.081474, "offset_time": 49.432964, "midi_note": 50, "velocity": 50}, {"onset_time": 49.391464, "offset_time": 50.47, "midi_note": 81, "velocity": 61}, {"onset_time": 49.396122, "offset_time": 50.49, "midi_note": 74, "velocity": 56}, {"onset_time": 49.404484, "offset_time": 51.118084, "midi_note": 42, "velocity": 53}, {"onset_time": 49.70567, "offset_time": 51.119602, "midi_note": 50, "velocity": 53}, {"onset_time": 49.94424, "offset_time": 51.11618, "midi_note": 57, "velocity": 53}, {"onset_time": 49.946465, "offset_time": 51.14, "midi_note": 69, "velocity": 51}, {"onset_time": 50.18321, "offset_time": 50.75, "midi_note": 54, "velocity": 46}, {"onset_time": 50.483967, "offset_time": 51.115532, "midi_note": 81, "velocity": 64}, {"onset_time": 50.492275, "offset_time": 51.120106, "midi_note": 86, "velocity": 66}, {"onset_time": 50.49502, "offset_time": 51.12, "midi_note": 74, "velocity": 52}, {"onset_time": 50.49627, "offset_time": 51.15, "midi_note": 62, "velocity": 43}, {"onset_time": 50.763294, "offset_time": 51.11567, "midi_note": 54, "velocity": 45}, {"onset_time": 51.12513, "offset_time": 52.5, "midi_note": 40, "velocity": 47}, {"onset_time": 51.13068, "offset_time": 51.43, "midi_note": 79, "velocity": 61}, {"onset_time": 51.134487, "offset_time": 51.45, "midi_note": 74, "velocity": 50}, {"onset_time": 51.435123, "offset_time": 51.71, "midi_note": 79, "velocity": 54}, {"onset_time": 51.441914, "offset_time": 52.77, "midi_note": 81, "velocity": 61}, {"onset_time": 51.446987, "offset_time": 52.779762, "midi_note": 52, "velocity": 49}, {"onset_time": 51.455048, "offset_time": 51.71, "midi_note": 74, "velocity": 50}, {"onset_time": 51.71431, "offset_time": 52.780273, "midi_note": 83, "velocity": 66}, {"onset_time": 51.71633, "offset_time": 52.22, "midi_note": 79, "velocity": 51}, {"onset_time": 51.72113, "offset_time": 52.777786, "midi_note": 55, "velocity": 53}, {"onset_time": 51.722347, "offset_time": 52.82, "midi_note": 74, "velocity": 53}, {"onset_time": 51.964485, "offset_time": 52.49, "midi_note": 59, "velocity": 56}, {"onset_time": 52.230625, "offset_time": 52.777534, "midi_note": 84, "velocity": 74}, {"onset_time": 52.233288, "offset_time": 52.81, "midi_note": 79, "velocity": 64}, {"onset_time": 52.236305, "offset_time": 52.79, "midi_note": 76, "velocity": 49}, {"onset_time": 52.283104, "offset_time": 52.780148, "midi_note": 64, "velocity": 35}, {"onset_time": 52.503166, "offset_time": 52.78113, "midi_note": 59, "velocity": 46}, {"onset_time": 52.77476, "offset_time": 53.42, "midi_note": 77, "velocity": 45}, {"onset_time": 52.77543, "offset_time": 53.99942, "midi_note": 81, "velocity": 57}, {"onset_time": 52.82393, "offset_time": 53.41, "midi_note": 60, "velocity": 40}, {"onset_time": 52.83087, "offset_time": 54.002644, "midi_note": 50, "velocity": 41}, {"onset_time": 52.83095, "offset_time": 54.00206, "midi_note": 86, "velocity": 62}, {"onset_time": 53.13588, "offset_time": 54.002563, "midi_note": 57, "velocity": 41}, {"onset_time": 53.419975, "offset_time": 54.03, "midi_note": 60, "velocity": 39}, {"onset_time": 53.43198, "offset_time": 54.004658, "midi_note": 77, "velocity": 45}, {"onset_time": 53.69178, "offset_time": 54.008068, "midi_note": 53, "velocity": 39}, {"onset_time": 54.04322, "offset_time": 54.767178, "midi_note": 83, "velocity": 60}, {"onset_time": 54.044212, "offset_time": 54.76992, "midi_note": 43, "velocity": 48}, {"onset_time": 54.04753, "offset_time": 54.765316, "midi_note": 74, "velocity": 45}, {"onset_time": 54.375076, "offset_time": 54.76486, "midi_note": 50, "velocity": 41}, {"onset_time": 54.623108, "offset_time": 55.59, "midi_note": 76, "velocity": 45}, {"onset_time": 54.656277, "offset_time": 55.56, "midi_note": 79, "velocity": 55}, {"onset_time": 54.740265, "offset_time": 56.428074, "midi_note": 36, "velocity": 50}, {"onset_time": 54.743267, "offset_time": 56.434906, "midi_note": 84, "velocity": 64}, {"onset_time": 55.02617, "offset_time": 56.429222, "midi_note": 43, "velocity": 54}, {"onset_time": 55.279106, "offset_time": 56.42909, "midi_note": 52, "velocity": 48}, {"onset_time": 55.563065, "offset_time": 56.08, "midi_note": 55, "velocity": 47}, {"onset_time": 55.5695, "offset_time": 56.43346, "midi_note": 86, "velocity": 59}, {"onset_time": 55.57432, "offset_time": 55.82, "midi_note": 79, "velocity": 57}, {"onset_time": 55.825504, "offset_time": 56.35, "midi_note": 79, "velocity": 56}, {"onset_time": 55.83073, "offset_time": 56.432377, "midi_note": 76, "velocity": 56}, {"onset_time": 55.83198, "offset_time": 56.434227, "midi_note": 88, "velocity": 75}, {"onset_time": 55.834976, "offset_time": 56.47, "midi_note": 64, "velocity": 36}, {"onset_time": 56.09335, "offset_time": 56.432297, "midi_note": 55, "velocity": 46}, {"onset_time": 56.324627, "offset_time": 58.02, "midi_note": 74, "velocity": 30}, {"onset_time": 56.36114, "offset_time": 58.04, "midi_note": 79, "velocity": 55}, {"onset_time": 56.425896, "offset_time": 58.025593, "midi_note": 47, "velocity": 50}, {"onset_time": 56.431915, "offset_time": 58.025696, "midi_note": 83, "velocity": 62}, {"onset_time": 56.682022, "offset_time": 57.2, "midi_note": 55, "velocity": 52}, {"onset_time": 56.94544, "offset_time": 57.49, "midi_note": 62, "velocity": 37}, {"onset_time": 57.205383, "offset_time": 57.74, "midi_note": 55, "velocity": 46}, {"onset_time": 57.207687, "offset_time": 58.0275, "midi_note": 84, "velocity": 66}, {"onset_time": 57.497185, "offset_time": 58.025, "midi_note": 86, "velocity": 70}, {"onset_time": 57.499844, "offset_time": 58.06, "midi_note": 62, "velocity": 32}, {"onset_time": 57.754776, "offset_time": 58.025005, "midi_note": 55, "velocity": 50}, {"onset_time": 58.018, "offset_time": 58.82, "midi_note": 76, "velocity": 48}, {"onset_time": 58.045826, "offset_time": 58.82, "midi_note": 79, "velocity": 59}, {"onset_time": 58.110344, "offset_time": 58.81058, "midi_note": 45, "velocity": 44}, {"onset_time": 58.114773, "offset_time": 58.803253, "midi_note": 84, "velocity": 62}, {"onset_time": 58.44283, "offset_time": 58.812225, "midi_note": 52, "velocity": 47}, {"onset_time": 58.451767, "offset_time": 58.81784, "midi_note": 83, "velocity": 56}, {"onset_time": 58.79375, "offset_time": 60.41, "midi_note": 81, "velocity": 61}, {"onset_time": 58.794876, "offset_time": 59.5, "midi_note": 72, "velocity": 56}, {"onset_time": 58.80479, "offset_time": 60.37169, "midi_note": 60, "velocity": 37}, {"onset_time": 58.81276, "offset_time": 60.37179, "midi_note": 50, "velocity": 39}, {"onset_time": 59.507187, "offset_time": 60.31, "midi_note": 79, "velocity": 49}, {"onset_time": 59.513363, "offset_time": 60.41, "midi_note": 72, "velocity": 28}, {"onset_time": 60.31536, "offset_time": 62.05, "midi_note": 43, "velocity": 41}, {"onset_time": 60.31575, "offset_time": 62.135128, "midi_note": 79, "velocity": 57}, {"onset_time": 60.32272, "offset_time": 62.13483, "midi_note": 71, "velocity": 44}, {"onset_time": 60.677326, "offset_time": 61.21, "midi_note": 50, "velocity": 35}, {"onset_time": 60.95774, "offset_time": 62.134144, "midi_note": 57, "velocity": 35}, {"onset_time": 61.221455, "offset_time": 62.12718, "midi_note": 50, "velocity": 39}, {"onset_time": 61.484657, "offset_time": 62.13256, "midi_note": 59, "velocity": 46}, {"onset_time": 62.061096, "offset_time": 63.83649, "midi_note": 43, "velocity": 44}, {"onset_time": 62.36396, "offset_time": 62.9, "midi_note": 50, "velocity": 44}, {"onset_time": 62.652893, "offset_time": 63.89, "midi_note": 57, "velocity": 37}, {"onset_time": 62.913074, "offset_time": 63.841118, "midi_note": 50, "velocity": 44}, {"onset_time": 63.21207, "offset_time": 63.822205, "midi_note": 59, "velocity": 33}, {"onset_time": 63.87374, "offset_time": 64.56, "midi_note": 74, "velocity": 58}, {"onset_time": 63.88306, "offset_time": 65.66, "midi_note": 43, "velocity": 41}, {"onset_time": 64.22346, "offset_time": 64.8, "midi_note": 50, "velocity": 45}, {"onset_time": 64.497635, "offset_time": 65.731316, "midi_note": 71, "velocity": 58}, {"onset_time": 64.52091, "offset_time": 65.72686, "midi_note": 57, "velocity": 43}, {"onset_time": 64.80573, "offset_time": 65.72692, "midi_note": 50, "velocity": 47}, {"onset_time": 65.09278, "offset_time": 65.727005, "midi_note": 67, "velocity": 49}, {"onset_time": 65.09395, "offset_time": 65.72598, "midi_note": 59, "velocity": 43}, {"onset_time": 65.673454, "offset_time": 67.32, "midi_note": 72, "velocity": 63}, {"onset_time": 65.67454, "offset_time": 67.33, "midi_note": 43, "velocity": 44}, {"onset_time": 65.696175, "offset_time": 67.4, "midi_note": 64, "velocity": 35}, {"onset_time": 65.94626, "offset_time": 66.45, "midi_note": 52, "velocity": 46}, {"onset_time": 66.22273, "offset_time": 67.37869, "midi_note": 55, "velocity": 41}, {"onset_time": 66.46494, "offset_time": 67.39, "midi_note": 52, "velocity": 38}, {"onset_time": 66.796524, "offset_time": 67.4, "midi_note": 60, "velocity": 40}, {"onset_time": 67.194756, "offset_time": 68.43, "midi_note": 62, "velocity": 29}, {"onset_time": 67.331116, "offset_time": 69.1, "midi_note": 72, "velocity": 63}, {"onset_time": 67.33512, "offset_time": 69.05, "midi_note": 43, "velocity": 46}, {"onset_time": 67.63496, "offset_time": 68.14, "midi_note": 54, "velocity": 44}, {"onset_time": 67.89093, "offset_time": 69.02, "midi_note": 71, "velocity": 57}, {"onset_time": 67.9062, "offset_time": 69.09619, "midi_note": 57, "velocity": 40}, {"onset_time": 68.14749, "offset_time": 69.0931, "midi_note": 54, "velocity": 41}, {"onset_time": 68.4446, "offset_time": 70.7, "midi_note": 62, "velocity": 29}, {"onset_time": 68.72868, "offset_time": 69.09482, "midi_note": 69, "velocity": 57}, {"onset_time": 68.74213, "offset_time": 68.75, "midi_note": 55, "velocity": 29}, {"onset_time": 69.0332, "offset_time": 70.76, "midi_note": 71, "velocity": 54}, {"onset_time": 69.05572, "offset_time": 70.71, "midi_note": 43, "velocity": 47}, {"onset_time": 69.34595, "offset_time": 69.87, "midi_note": 50, "velocity": 39}, {"onset_time": 69.62443, "offset_time": 70.67694, "midi_note": 57, "velocity": 32}, {"onset_time": 69.87652, "offset_time": 70.67509, "midi_note": 50, "velocity": 39}, {"onset_time": 70.162445, "offset_time": 70.67856, "midi_note": 59, "velocity": 42}, {"onset_time": 70.76807, "offset_time": 72.477066, "midi_note": 71, "velocity": 56}, {"onset_time": 70.773994, "offset_time": 72.41, "midi_note": 43, "velocity": 44}, {"onset_time": 71.03411, "offset_time": 71.42, "midi_note": 50, "velocity": 46}, {"onset_time": 71.30884, "offset_time": 72.47527, "midi_note": 67, "velocity": 60}, {"onset_time": 71.31216, "offset_time": 72.48, "midi_note": 57, "velocity": 45}, {"onset_time": 71.5763, "offset_time": 72.475204, "midi_note": 50, "velocity": 43}, {"onset_time": 71.85079, "offset_time": 72.47206, "midi_note": 59, "velocity": 34}, {"onset_time": 71.85611, "offset_time": 72.47596, "midi_note": 62, "velocity": 35}, {"onset_time": 72.419426, "offset_time": 74.11, "midi_note": 69, "velocity": 55}, {"onset_time": 72.41993, "offset_time": 73.82, "midi_note": 43, "velocity": 43}, {"onset_time": 72.42459, "offset_time": 73.54, "midi_note": 60, "velocity": 39}, {"onset_time": 72.71808, "offset_time": 73.22, "midi_note": 52, "velocity": 41}, {"onset_time": 72.99167, "offset_time": 74.06765, "midi_note": 55, "velocity": 36}, {"onset_time": 73.23162, "offset_time": 74.07752, "midi_note": 52, "velocity": 37}, {"onset_time": 73.53267, "offset_time": 74.95, "midi_note": 66, "velocity": 43}, {"onset_time": 73.54682, "offset_time": 74.16, "midi_note": 60, "velocity": 38}, {"onset_time": 73.83211, "offset_time": 74.14514, "midi_note": 67, "velocity": 56}, {"onset_time": 73.83427, "offset_time": 74.13, "midi_note": 43, "velocity": 31}, {"onset_time": 74.1155, "offset_time": 75.85276, "midi_note": 69, "velocity": 56}, {"onset_time": 74.13519, "offset_time": 75.89, "midi_note": 43, "velocity": 51}, {"onset_time": 74.44351, "offset_time": 74.95, "midi_note": 54, "velocity": 47}, {"onset_time": 74.72549, "offset_time": 75.85307, "midi_note": 57, "velocity": 42}, {"onset_time": 74.73315, "offset_time": 75.88, "midi_note": 67, "velocity": 54}, {"onset_time": 74.961395, "offset_time": 75.9, "midi_note": 54, "velocity": 42}, {"onset_time": 75.2592, "offset_time": 75.92, "midi_note": 66, "velocity": 43}, {"onset_time": 75.27589, "offset_time": 75.85347, "midi_note": 62, "velocity": 34}, {"onset_time": 75.89489, "offset_time": 77.73, "midi_note": 67, "velocity": 48}, {"onset_time": 75.9022, "offset_time": 77.66, "midi_note": 43, "velocity": 39}, {"onset_time": 76.19753, "offset_time": 76.72, "midi_note": 50, "velocity": 43}, {"onset_time": 76.463585, "offset_time": 77.73, "midi_note": 57, "velocity": 31}, {"onset_time": 76.72621, "offset_time": 77.72908, "midi_note": 50, "velocity": 42}, {"onset_time": 77.03877, "offset_time": 77.71786, "midi_note": 59, "velocity": 43}, {"onset_time": 77.48033, "offset_time": 77.726616, "midi_note": 74, "velocity": 42}, {"onset_time": 77.566055, "offset_time": 78.8, "midi_note": 79, "velocity": 57}, {"onset_time": 77.67837, "offset_time": 79.4083, "midi_note": 86, "velocity": 69}, {"onset_time": 77.69606, "offset_time": 79.36, "midi_note": 43, "velocity": 48}, {"onset_time": 78.010155, "offset_time": 78.53, "midi_note": 50, "velocity": 50}, {"onset_time": 78.244415, "offset_time": 79.41315, "midi_note": 83, "velocity": 66}, {"onset_time": 78.25247, "offset_time": 79.40788, "midi_note": 74, "velocity": 52}, {"onset_time": 78.26394, "offset_time": 79.40961, "midi_note": 57, "velocity": 44}, {"onset_time": 78.53543, "offset_time": 79.40566, "midi_note": 50, "velocity": 47}, {"onset_time": 78.76596, "offset_time": 79.40904, "midi_note": 59, "velocity": 44}, {"onset_time": 78.80551, "offset_time": 79.41102, "midi_note": 79, "velocity": 59}, {"onset_time": 79.36237, "offset_time": 79.66, "midi_note": 84, "velocity": 68}, {"onset_time": 79.365974, "offset_time": 80.99532, "midi_note": 76, "velocity": 53}, {"onset_time": 79.37453, "offset_time": 80.94, "midi_note": 43, "velocity": 53}, {"onset_time": 79.536644, "offset_time": 80.26, "midi_note": 86, "velocity": 65}, {"onset_time": 79.67307, "offset_time": 79.95, "midi_note": 84, "velocity": 65}, {"onset_time": 79.67328, "offset_time": 80.19, "midi_note": 52, "velocity": 45}, {"onset_time": 79.81578, "offset_time": 81.03, "midi_note": 83, "velocity": 65}, {"onset_time": 79.962364, "offset_time": 81.01, "midi_note": 84, "velocity": 66}, {"onset_time": 79.96403, "offset_time": 80.999664, "midi_note": 55, "velocity": 45}, {"onset_time": 80.19786, "offset_time": 80.99519, "midi_note": 52, "velocity": 44}, {"onset_time": 80.454575, "offset_time": 81.000046, "midi_note": 60, "velocity": 41}, {"onset_time": 80.712845, "offset_time": 81.004105, "midi_note": 74, "velocity": 47}, {"onset_time": 81.01521, "offset_time": 82.73, "midi_note": 43, "velocity": 53}, {"onset_time": 81.01621, "offset_time": 82.69417, "midi_note": 84, "velocity": 65}, {"onset_time": 81.2953, "offset_time": 81.81, "midi_note": 54, "velocity": 50}, {"onset_time": 81.557915, "offset_time": 82.694016, "midi_note": 57, "velocity": 42}, {"onset_time": 81.56503, "offset_time": 82.69415, "midi_note": 83, "velocity": 66}, {"onset_time": 81.57324, "offset_time": 82.69317, "midi_note": 74, "velocity": 51}, {"onset_time": 81.8184, "offset_time": 82.692924, "midi_note": 54, "velocity": 49}, {"onset_time": 82.12144, "offset_time": 82.69446, "midi_note": 62, "velocity": 34}, {"onset_time": 82.41411, "offset_time": 82.72, "midi_note": 81, "velocity": 63}, {"onset_time": 82.7291, "offset_time": 84.61, "midi_note": 81, "velocity": 61}, {"onset_time": 82.73986, "offset_time": 84.54, "midi_note": 43, "velocity": 46}, {"onset_time": 83.01502, "offset_time": 83.56, "midi_note": 50, "velocity": 43}, {"onset_time": 83.02342, "offset_time": 84.51, "midi_note": 83, "velocity": 59}, {"onset_time": 83.02523, "offset_time": 84.52, "midi_note": 74, "velocity": 49}, {"onset_time": 83.287445, "offset_time": 84.58258, "midi_note": 57, "velocity": 44}, {"onset_time": 83.56524, "offset_time": 84.58586, "midi_note": 50, "velocity": 45}, {"onset_time": 83.88112, "offset_time": 84.58136, "midi_note": 59, "velocity": 45}, {"onset_time": 84.52316, "offset_time": 86.31, "midi_note": 83, "velocity": 65}, {"onset_time": 84.52561, "offset_time": 85.66, "midi_note": 74, "velocity": 48}, {"onset_time": 84.54579, "offset_time": 86.23, "midi_note": 43, "velocity": 46}, {"onset_time": 84.8469, "offset_time": 85.37, "midi_note": 50, "velocity": 45}, {"onset_time": 85.11229, "offset_time": 86.28683, "midi_note": 79, "velocity": 62}, {"onset_time": 85.12359, "offset_time": 86.285446, "midi_note": 57, "velocity": 41}, {"onset_time": 85.375595, "offset_time": 86.284615, "midi_note": 50, "velocity": 48}, {"onset_time": 85.651764, "offset_time": 86.28545, "midi_note": 59, "velocity": 40}, {"onset_time": 85.66982, "offset_time": 86.28529, "midi_note": 74, "velocity": 55}, {"onset_time": 86.23703, "offset_time": 86.64, "midi_note": 81, "velocity": 61}, {"onset_time": 86.24316, "offset_time": 87.84, "midi_note": 43, "velocity": 52}, {"onset_time": 86.24337, "offset_time": 87.824005, "midi_note": 72, "velocity": 52}, {"onset_time": 86.500374, "offset_time": 87.82, "midi_note": 83, "velocity": 61}, {"onset_time": 86.50456, "offset_time": 87.01, "midi_note": 52, "velocity": 46}, {"onset_time": 86.78264, "offset_time": 87.824486, "midi_note": 81, "velocity": 59}, {"onset_time": 86.786606, "offset_time": 87.82359, "midi_note": 55, "velocity": 48}, {"onset_time": 87.02386, "offset_time": 87.84, "midi_note": 52, "velocity": 46}, {"onset_time": 87.30186, "offset_time": 87.82374, "midi_note": 78, "velocity": 60}, {"onset_time": 87.32215, "offset_time": 87.82467, "midi_note": 60, "velocity": 40}, {"onset_time": 87.57404, "offset_time": 87.82527, "midi_note": 79, "velocity": 59}, {"onset_time": 87.79479, "offset_time": 88.19, "midi_note": 69, "velocity": 38}, {"onset_time": 87.84598, "offset_time": 89.71, "midi_note": 74, "velocity": 45}, {"onset_time": 87.90864, "offset_time": 89.70742, "midi_note": 43, "velocity": 51}, {"onset_time": 87.92948, "offset_time": 89.70714, "midi_note": 81, "velocity": 60}, {"onset_time": 88.185646, "offset_time": 88.71, "midi_note": 54, "velocity": 48}, {"onset_time": 88.45447, "offset_time": 89.71433, "midi_note": 79, "velocity": 62}, {"onset_time": 88.45718, "offset_time": 89.06, "midi_note": 57, "velocity": 44}, {"onset_time": 88.46304, "offset_time": 89.71469, "midi_note": 76, "velocity": 45}, {"onset_time": 88.46464, "offset_time": 89.70926, "midi_note": 69, "velocity": 45}, {"onset_time": 88.71754, "offset_time": 89.7025, "midi_note": 54, "velocity": 42}, {"onset_time": 89.060196, "offset_time": 89.70655, "midi_note": 78, "velocity": 61}, {"onset_time": 89.06559, "offset_time": 89.71605, "midi_note": 57, "velocity": 29}, {"onset_time": 89.084915, "offset_time": 89.77, "midi_note": 62, "velocity": 33}, {"onset_time": 89.79656, "offset_time": 91.63, "midi_note": 43, "velocity": 41}, {"onset_time": 89.79817, "offset_time": 90.12, "midi_note": 55, "velocity": 45}, {"onset_time": 89.79832, "offset_time": 90.38, "midi_note": 67, "velocity": 48}, {"onset_time": 90.138824, "offset_time": 91.61, "midi_note": 66, "velocity": 46}, {"onset_time": 90.14525, "offset_time": 90.66, "midi_note": 50, "velocity": 44}, {"onset_time": 90.38859, "offset_time": 91.54, "midi_note": 67, "velocity": 53}, {"onset_time": 90.41499, "offset_time": 91.65, "midi_note": 57, "velocity": 46}, {"onset_time": 90.4164, "offset_time": 90.93, "midi_note": 55, "velocity": 37}, {"onset_time": 90.66688, "offset_time": 91.63344, "midi_note": 50, "velocity": 47}, {"onset_time": 90.6685, "offset_time": 91.65, "midi_note": 69, "velocity": 51}, {"onset_time": 90.932594, "offset_time": 91.63261, "midi_note": 59, "velocity": 49}, {"onset_time": 90.93458, "offset_time": 91.63455, "midi_note": 71, "velocity": 59}, {"onset_time": 90.94252, "offset_time": 92.2, "midi_note": 55, "velocity": 35}, {"onset_time": 91.22197, "offset_time": 91.63395, "midi_note": 72, "velocity": 64}, {"onset_time": 91.50589, "offset_time": 93.76, "midi_note": 64, "velocity": 32}, {"onset_time": 91.546776, "offset_time": 93.78, "midi_note": 67, "velocity": 58}, {"onset_time": 91.63593, "offset_time": 93.69, "midi_note": 43, "velocity": 45}, {"onset_time": 91.68607, "offset_time": 92.85, "midi_note": 74, "velocity": 64}, {"onset_time": 91.94322, "offset_time": 93.745415, "midi_note": 52, "velocity": 45}, {"onset_time": 92.21116, "offset_time": 93.746315, "midi_note": 55, "velocity": 46}, {"onset_time": 92.50652, "offset_time": 93.74631, "midi_note": 76, "velocity": 54}, {"onset_time": 92.83636, "offset_time": 93.7505, "midi_note": 60, "velocity": 35}, {"onset_time": 92.85601, "offset_time": 93.45, "midi_note": 74, "velocity": 39}, {"onset_time": 93.21592, "offset_time": 93.74618, "midi_note": 72, "velocity": 41}, {"onset_time": 93.45725, "offset_time": 93.74538, "midi_note": 74, "velocity": 31}, {"onset_time": 93.51597, "offset_time": 94.8, "midi_note": 79, "velocity": 48}, {"onset_time": 93.70185, "offset_time": 95.41414, "midi_note": 43, "velocity": 45}, {"onset_time": 93.711754, "offset_time": 95.41434, "midi_note": 83, "velocity": 60}, {"onset_time": 94.045296, "offset_time": 94.54, "midi_note": 50, "velocity": 44}, {"onset_time": 94.29392, "offset_time": 95.41225, "midi_note": 57, "velocity": 48}, {"onset_time": 94.551956, "offset_time": 95.04, "midi_note": 50, "velocity": 45}, {"onset_time": 94.58596, "offset_time": 95.08, "midi_note": 74, "velocity": 54}, {"onset_time": 94.81394, "offset_time": 95.414116, "midi_note": 79, "velocity": 65}, {"onset_time": 94.823135, "offset_time": 95.41411, "midi_note": 86, "velocity": 71}, {"onset_time": 94.8304, "offset_time": 95.41323, "midi_note": 59, "velocity": 52}, {"onset_time": 95.050934, "offset_time": 95.412186, "midi_note": 50, "velocity": 45}, {"onset_time": 95.09128, "offset_time": 95.37, "midi_note": 74, "velocity": 41}, {"onset_time": 95.37044, "offset_time": 97.05733, "midi_note": 81, "velocity": 56}, {"onset_time": 95.38115, "offset_time": 95.71, "midi_note": 42, "velocity": 48}, {"onset_time": 95.38163, "offset_time": 96.43, "midi_note": 74, "velocity": 51}, {"onset_time": 95.64555, "offset_time": 97.05607, "midi_note": 50, "velocity": 46}, {"onset_time": 95.89387, "offset_time": 97.05731, "midi_note": 57, "velocity": 45}, {"onset_time": 96.14472, "offset_time": 96.66, "midi_note": 54, "velocity": 44}, {"onset_time": 96.43136, "offset_time": 97.057014, "midi_note": 86, "velocity": 70}, {"onset_time": 96.44169, "offset_time": 97.0, "midi_note": 74, "velocity": 54}, {"onset_time": 96.46584, "offset_time": 97.05779, "midi_note": 62, "velocity": 42}, {"onset_time": 96.67279, "offset_time": 97.056595, "midi_note": 54, "velocity": 43}, {"onset_time": 97.00009, "offset_time": 98.07, "midi_note": 79, "velocity": 60}, {"onset_time": 97.005196, "offset_time": 98.31, "midi_note": 40, "velocity": 37}, {"onset_time": 97.0058, "offset_time": 97.54, "midi_note": 74, "velocity": 48}, {"onset_time": 97.2838, "offset_time": 98.60224, "midi_note": 52, "velocity": 45}, {"onset_time": 97.28396, "offset_time": 98.61, "midi_note": 81, "velocity": 57}, {"onset_time": 97.54271, "offset_time": 98.605934, "midi_note": 83, "velocity": 64}, {"onset_time": 97.54666, "offset_time": 98.46, "midi_note": 74, "velocity": 52}, {"onset_time": 97.54849, "offset_time": 98.31, "midi_note": 55, "velocity": 50}, {"onset_time": 97.794846, "offset_time": 98.60446, "midi_note": 59, "velocity": 48}, {"onset_time": 98.07472, "offset_time": 98.60496, "midi_note": 84, "velocity": 61}, {"onset_time": 98.07602, "offset_time": 98.60447, "midi_note": 79, "velocity": 60}, {"onset_time": 98.09912, "offset_time": 98.606155, "midi_note": 64, "velocity": 34}, {"onset_time": 98.32399, "offset_time": 98.603, "midi_note": 55, "velocity": 46}, {"onset_time": 98.47433, "offset_time": 100.37, "midi_note": 74, "velocity": 38}, {"onset_time": 98.535164, "offset_time": 100.34432, "midi_note": 78, "velocity": 59}, {"onset_time": 98.64392, "offset_time": 100.34532, "midi_note": 86, "velocity": 67}, {"onset_time": 98.6548, "offset_time": 100.34, "midi_note": 47, "velocity": 45}, {"onset_time": 98.92056, "offset_time": 99.42, "midi_note": 54, "velocity": 39}, {"onset_time": 99.170746, "offset_time": 100.344215, "midi_note": 59, "velocity": 40}, {"onset_time": 99.43196, "offset_time": 100.03, "midi_note": 54, "velocity": 37}, {"onset_time": 99.752106, "offset_time": 100.34531, "midi_note": 62, "velocity": 35}, {"onset_time": 99.7528, "offset_time": 100.36, "midi_note": 66, "velocity": 26}, {"onset_time": 100.037025, "offset_time": 100.34346, "midi_note": 54, "velocity": 40}, {"onset_time": 100.32445, "offset_time": 101.928986, "midi_note": 84, "velocity": 73}, {"onset_time": 100.3288, "offset_time": 101.4, "midi_note": 76, "velocity": 58}, {"onset_time": 100.34858, "offset_time": 101.934135, "midi_note": 48, "velocity": 49}, {"onset_time": 100.35832, "offset_time": 101.95, "midi_note": 72, "velocity": 44}, {"onset_time": 100.61748, "offset_time": 101.12, "midi_note": 55, "velocity": 49}, {"onset_time": 100.896515, "offset_time": 101.92958, "midi_note": 62, "velocity": 37}, {"onset_time": 101.129974, "offset_time": 101.930954, "midi_note": 86, "velocity": 64}, {"onset_time": 101.13461, "offset_time": 101.62, "midi_note": 55, "velocity": 48}, {"onset_time": 101.38111, "offset_time": 101.93319, "midi_note": 88, "velocity": 76}, {"onset_time": 101.40532, "offset_time": 101.931564, "midi_note": 76, "velocity": 43}, {"onset_time": 101.434525, "offset_time": 101.93205, "midi_note": 64, "velocity": 32}, {"onset_time": 101.634926, "offset_time": 101.95, "midi_note": 55, "velocity": 49}, {"onset_time": 101.86768, "offset_time": 103.53, "midi_note": 74, "velocity": 45}, {"onset_time": 101.90549, "offset_time": 103.52, "midi_note": 79, "velocity": 60}, {"onset_time": 101.95636, "offset_time": 103.52415, "midi_note": 47, "velocity": 51}, {"onset_time": 101.96467, "offset_time": 103.56, "midi_note": 83, "velocity": 57}, {"onset_time": 102.22905, "offset_time": 102.72, "midi_note": 55, "velocity": 51}, {"onset_time": 102.48553, "offset_time": 103.01, "midi_note": 62, "velocity": 36}, {"onset_time": 102.73352, "offset_time": 103.26, "midi_note": 55, "velocity": 49}, {"onset_time": 102.742516, "offset_time": 103.59, "midi_note": 84, "velocity": 64}, {"onset_time": 103.013, "offset_time": 103.51304, "midi_note": 86, "velocity": 72}, {"onset_time": 103.02489, "offset_time": 103.51614, "midi_note": 62, "velocity": 37}, {"onset_time": 103.27215, "offset_time": 103.51484, "midi_note": 55, "velocity": 45}, {"onset_time": 103.5208, "offset_time": 104.56, "midi_note": 76, "velocity": 50}, {"onset_time": 103.52523, "offset_time": 104.67, "midi_note": 79, "velocity": 59}, {"onset_time": 103.596245, "offset_time": 105.175964, "midi_note": 45, "velocity": 44}, {"onset_time": 103.60289, "offset_time": 105.176445, "midi_note": 84, "velocity": 64}, {"onset_time": 103.87342, "offset_time": 105.176926, "midi_note": 52, "velocity": 46}, {"onset_time": 103.87542, "offset_time": 105.17938, "midi_note": 83, "velocity": 61}, {"onset_time": 104.13897, "offset_time": 105.17613, "midi_note": 55, "velocity": 47}, {"onset_time": 104.14382, "offset_time": 105.17613, "midi_note": 81, "velocity": 58}, {"onset_time": 104.15236, "offset_time": 105.14, "midi_note": 72, "velocity": 47}, {"onset_time": 104.42679, "offset_time": 104.93, "midi_note": 60, "velocity": 45}, {"onset_time": 104.684425, "offset_time": 105.17476, "midi_note": 79, "velocity": 59}, {"onset_time": 104.686295, "offset_time": 105.19, "midi_note": 76, "velocity": 45}, {"onset_time": 104.94236, "offset_time": 105.17547, "midi_note": 60, "velocity": 42}, {"onset_time": 105.15207, "offset_time": 105.23, "midi_note": 72, "velocity": 46}, {"onset_time": 105.19948, "offset_time": 106.1, "midi_note": 76, "velocity": 50}, {"onset_time": 105.254684, "offset_time": 106.12, "midi_note": 50, "velocity": 34}, {"onset_time": 105.25763, "offset_time": 106.67, "midi_note": 60, "velocity": 36}, {"onset_time": 105.25974, "offset_time": 106.85, "midi_note": 81, "velocity": 61}, {"onset_time": 105.56479, "offset_time": 105.8, "midi_note": 57, "velocity": 40}, {"onset_time": 105.80762, "offset_time": 106.4, "midi_note": 57, "velocity": 37}, {"onset_time": 105.81932, "offset_time": 107.04823, "midi_note": 62, "velocity": 38}, {"onset_time": 105.822365, "offset_time": 107.04526, "midi_note": 67, "velocity": 57}, {"onset_time": 106.12841, "offset_time": 107.04735, "midi_note": 50, "velocity": 42}, {"onset_time": 106.41034, "offset_time": 107.045555, "midi_note": 57, "velocity": 44}, {"onset_time": 106.41307, "offset_time": 107.047005, "midi_note": 66, "velocity": 42}, {"onset_time": 106.42586, "offset_time": 107.04529, "midi_note": 38, "velocity": 48}, {"onset_time": 107.02419, "offset_time": 108.32, "midi_note": 74, "velocity": 42}, {"onset_time": 107.09354, "offset_time": 108.976364, "midi_note": 79, "velocity": 57}, {"onset_time": 107.20524, "offset_time": 108.97517, "midi_note": 83, "velocity": 64}, {"onset_time": 107.205475, "offset_time": 108.97498, "midi_note": 43, "velocity": 52}, {"onset_time": 107.50111, "offset_time": 108.04, "midi_note": 50, "velocity": 50}, {"onset_time": 107.78575, "offset_time": 108.97301, "midi_note": 57, "velocity": 47}, {"onset_time": 108.046906, "offset_time": 108.6, "midi_note": 50, "velocity": 47}, {"onset_time": 108.33052, "offset_time": 108.97269, "midi_note": 59, "velocity": 49}, {"onset_time": 108.3306, "offset_time": 110.01, "midi_note": 86, "velocity": 70}, {"onset_time": 108.33485, "offset_time": 108.93, "midi_note": 74, "velocity": 54}, {"onset_time": 108.605316, "offset_time": 108.97577, "midi_note": 50, "velocity": 46}, {"onset_time": 108.93476, "offset_time": 110.0, "midi_note": 81, "velocity": 68}, {"onset_time": 108.93728, "offset_time": 110.02, "midi_note": 74, "velocity": 61}, {"onset_time": 108.94102, "offset_time": 109.51, "midi_note": 42, "velocity": 53}, {"onset_time": 109.236145, "offset_time": 110.61338, "midi_note": 50, "velocity": 51}, {"onset_time": 109.49304, "offset_time": 110.61398, "midi_note": 57, "velocity": 52}, {"onset_time": 109.734856, "offset_time": 110.28, "midi_note": 54, "velocity": 48}, {"onset_time": 110.009895, "offset_time": 110.61358, "midi_note": 81, "velocity": 67}, {"onset_time": 110.01793, "offset_time": 110.61531, "midi_note": 86, "velocity": 71}, {"onset_time": 110.02573, "offset_time": 110.62, "midi_note": 74, "velocity": 56}, {"onset_time": 110.03536, "offset_time": 110.61463, "midi_note": 62, "velocity": 51}, {"onset_time": 110.29465, "offset_time": 110.64, "midi_note": 54, "velocity": 50}, {"onset_time": 110.62461, "offset_time": 111.69, "midi_note": 79, "velocity": 62}, {"onset_time": 110.62502, "offset_time": 112.22292, "midi_note": 40, "velocity": 48}, {"onset_time": 110.631134, "offset_time": 110.88, "midi_note": 74, "velocity": 50}, {"onset_time": 110.89476, "offset_time": 111.15, "midi_note": 74, "velocity": 49}, {"onset_time": 110.89539, "offset_time": 112.23, "midi_note": 81, "velocity": 60}, {"onset_time": 110.90586, "offset_time": 112.213234, "midi_note": 52, "velocity": 46}, {"onset_time": 111.15901, "offset_time": 112.214905, "midi_note": 83, "velocity": 65}, {"onset_time": 111.16469, "offset_time": 112.212944, "midi_note": 74, "velocity": 53}, {"onset_time": 111.16767, "offset_time": 111.71038, "midi_note": 55, "velocity": 50}, {"onset_time": 111.417946, "offset_time": 111.96, "midi_note": 59, "velocity": 49}, {"onset_time": 111.69988, "offset_time": 112.24, "midi_note": 76, "velocity": 45}, {"onset_time": 111.70345, "offset_time": 112.214455, "midi_note": 79, "velocity": 59}, {"onset_time": 111.70474, "offset_time": 112.21622, "midi_note": 84, "velocity": 70}, {"onset_time": 111.974495, "offset_time": 112.24, "midi_note": 59, "velocity": 47}, {"onset_time": 112.21393, "offset_time": 112.84, "midi_note": 77, "velocity": 45}, {"onset_time": 112.24344, "offset_time": 113.41505, "midi_note": 81, "velocity": 59}, {"onset_time": 112.28462, "offset_time": 113.410774, "midi_note": 86, "velocity": 69}, {"onset_time": 112.28506, "offset_time": 112.84, "midi_note": 60, "velocity": 42}, {"onset_time": 112.28628, "offset_time": 113.41452, "midi_note": 50, "velocity": 42}, {"onset_time": 112.57808, "offset_time": 113.41214, "midi_note": 57, "velocity": 47}, {"onset_time": 112.84772, "offset_time": 113.41415, "midi_note": 60, "velocity": 43}, {"onset_time": 112.84825, "offset_time": 113.4109, "midi_note": 77, "velocity": 55}, {"onset_time": 113.0827, "offset_time": 113.41418, "midi_note": 53, "velocity": 43}, {"onset_time": 113.415085, "offset_time": 114.15927, "midi_note": 83, "velocity": 61}, {"onset_time": 113.41733, "offset_time": 114.15652, "midi_note": 74, "velocity": 48}, {"onset_time": 113.43254, "offset_time": 114.15576, "midi_note": 43, "velocity": 50}, {"onset_time": 113.72512, "offset_time": 114.1561, "midi_note": 50, "velocity": 46}, {"onset_time": 114.03043, "offset_time": 114.14, "midi_note": 76, "velocity": 47}, {"onset_time": 114.0521, "offset_time": 114.97, "midi_note": 79, "velocity": 54}, {"onset_time": 114.135124, "offset_time": 115.86, "midi_note": 84, "velocity": 75}, {"onset_time": 114.14274, "offset_time": 115.78, "midi_note": 36, "velocity": 44}, {"onset_time": 114.15445, "offset_time": 115.24, "midi_note": 76, "velocity": 44}, {"onset_time": 114.43988, "offset_time": 115.85415, "midi_note": 43, "velocity": 44}, {"onset_time": 114.6986, "offset_time": 115.86, "midi_note": 52, "velocity": 46}, {"onset_time": 114.97856, "offset_time": 115.51, "midi_note": 55, "velocity": 62}, {"onset_time": 114.97987, "offset_time": 115.89, "midi_note": 86, "velocity": 64}, {"onset_time": 114.98193, "offset_time": 115.82, "midi_note": 79, "velocity": 60}, {"onset_time": 114.984886, "offset_time": 115.82, "midi_note": 83, "velocity": 60}, {"onset_time": 115.25186, "offset_time": 115.84985, "midi_note": 76, "velocity": 51}, {"onset_time": 115.25342, "offset_time": 115.846855, "midi_note": 88, "velocity": 76}, {"onset_time": 115.25466, "offset_time": 115.849464, "midi_note": 64, "velocity": 41}, {"onset_time": 115.520676, "offset_time": 115.85118, "midi_note": 55, "velocity": 49}, {"onset_time": 115.82627, "offset_time": 117.473724, "midi_note": 83, "velocity": 61}, {"onset_time": 115.8326, "offset_time": 117.46, "midi_note": 79, "velocity": 56}, {"onset_time": 115.83581, "offset_time": 117.4711, "midi_note": 74, "velocity": 52}, {"onset_time": 115.858604, "offset_time": 117.473305, "midi_note": 47, "velocity": 51}, {"onset_time": 116.10919, "offset_time": 116.63, "midi_note": 55, "velocity": 50}, {"onset_time": 116.37164, "offset_time": 116.93, "midi_note": 62, "velocity": 36}, {"onset_time": 116.63539, "offset_time": 117.18, "midi_note": 55, "velocity": 47}, {"onset_time": 116.64588, "offset_time": 117.471275, "midi_note": 84, "velocity": 62}, {"onset_time": 116.916626, "offset_time": 117.46933, "midi_note": 86, "velocity": 72}, {"onset_time": 116.94111, "offset_time": 117.47112, "midi_note": 62, "velocity": 32}, {"onset_time": 117.19053, "offset_time": 117.47379, "midi_note": 55, "velocity": 50}, {"onset_time": 117.45202, "offset_time": 118.23, "midi_note": 76, "velocity": 49}, {"onset_time": 117.47295, "offset_time": 118.20662, "midi_note": 79, "velocity": 58}, {"onset_time": 117.52273, "offset_time": 118.21, "midi_note": 45, "velocity": 45}, {"onset_time": 117.542725, "offset_time": 118.21324, "midi_note": 84, "velocity": 69}, {"onset_time": 117.85788, "offset_time": 118.22005, "midi_note": 83, "velocity": 57}, {"onset_time": 118.179436, "offset_time": 119.68, "midi_note": 81, "velocity": 56}, {"onset_time": 118.18478, "offset_time": 119.59858, "midi_note": 50, "velocity": 41}, {"onset_time": 118.18497, "offset_time": 119.63, "midi_note": 72, "velocity": 48}, {"onset_time": 118.18543, "offset_time": 119.59679, "midi_note": 60, "velocity": 36}, {"onset_time": 118.93386, "offset_time": 119.6, "midi_note": 79, "velocity": 52}, {"onset_time": 119.60548, "offset_time": 120.35, "midi_note": 79, "velocity": 56}, {"onset_time": 119.62622, "offset_time": 121.55551, "midi_note": 40, "velocity": 30}, {"onset_time": 119.80603, "offset_time": 120.18, "midi_note": 76, "velocity": 48}, {"onset_time": 119.97694, "offset_time": 120.67, "midi_note": 47, "velocity": 46}, {"onset_time": 119.98465, "offset_time": 120.67, "midi_note": 71, "velocity": 42}, {"onset_time": 120.194725, "offset_time": 120.53, "midi_note": 76, "velocity": 46}, {"onset_time": 120.3645, "offset_time": 120.96, "midi_note": 79, "velocity": 55}, {"onset_time": 120.3657, "offset_time": 120.99, "midi_note": 55, "velocity": 38}, {"onset_time": 120.53797, "offset_time": 120.83, "midi_note": 76, "velocity": 49}, {"onset_time": 120.67515, "offset_time": 121.55596, "midi_note": 47, "velocity": 44}, {"onset_time": 120.67924, "offset_time": 121.24, "midi_note": 71, "velocity": 48}, {"onset_time": 120.84391, "offset_time": 121.11, "midi_note": 76, "velocity": 51}, {"onset_time": 120.96967, "offset_time": 121.53, "midi_note": 79, "velocity": 57}, {"onset_time": 121.00001, "offset_time": 121.55869, "midi_note": 55, "velocity": 42}, {"onset_time": 121.12093, "offset_time": 121.39, "midi_note": 76, "velocity": 51}, {"onset_time": 121.25223, "offset_time": 121.55755, "midi_note": 71, "velocity": 48}, {"onset_time": 121.40386, "offset_time": 121.56001, "midi_note": 76, "velocity": 50}, {"onset_time": 121.53536, "offset_time": 122.08, "midi_note": 79, "velocity": 58}, {"onset_time": 121.55527, "offset_time": 123.14652, "midi_note": 36, "velocity": 44}, {"onset_time": 121.69507, "offset_time": 121.96, "midi_note": 76, "velocity": 54}, {"onset_time": 121.786285, "offset_time": 123.19, "midi_note": 43, "velocity": 44}, {"onset_time": 121.82756, "offset_time": 122.36, "midi_note": 72, "velocity": 48}, {"onset_time": 121.966125, "offset_time": 122.24, "midi_note": 76, "velocity": 56}, {"onset_time": 122.075874, "offset_time": 122.63, "midi_note": 52, "velocity": 43}, {"onset_time": 122.08522, "offset_time": 122.63, "midi_note": 79, "velocity": 61}, {"onset_time": 122.249, "offset_time": 122.5, "midi_note": 76, "velocity": 54}, {"onset_time": 122.37263, "offset_time": 122.9, "midi_note": 72, "velocity": 49}, {"onset_time": 122.51115, "offset_time": 122.77, "midi_note": 76, "velocity": 53}, {"onset_time": 122.636314, "offset_time": 123.148575, "midi_note": 52, "velocity": 41}, {"onset_time": 122.637505, "offset_time": 123.17, "midi_note": 79, "velocity": 60}, {"onset_time": 122.78239, "offset_time": 123.05, "midi_note": 76, "velocity": 51}, {"onset_time": 122.91352, "offset_time": 123.15129, "midi_note": 72, "velocity": 47}, {"onset_time": 123.056595, "offset_time": 123.151245, "midi_note": 76, "velocity": 49}, {"onset_time": 123.17797, "offset_time": 123.74, "midi_note": 79, "velocity": 62}, {"onset_time": 123.20456, "offset_time": 124.85329, "midi_note": 43, "velocity": 46}, {"onset_time": 123.35162, "offset_time": 123.62, "midi_note": 74, "velocity": 49}, {"onset_time": 123.48526, "offset_time": 124.01, "midi_note": 50, "velocity": 44}, {"onset_time": 123.48526, "offset_time": 124.01, "midi_note": 71, "velocity": 48}, {"onset_time": 123.62816, "offset_time": 123.9, "midi_note": 74, "velocity": 48}, {"onset_time": 123.74598, "offset_time": 124.29, "midi_note": 79, "velocity": 61}, {"onset_time": 123.90707, "offset_time": 124.15, "midi_note": 74, "velocity": 43}, {"onset_time": 124.016754, "offset_time": 124.85079, "midi_note": 50, "velocity": 47}, {"onset_time": 124.01842, "offset_time": 124.57, "midi_note": 71, "velocity": 49}, {"onset_time": 124.160614, "offset_time": 124.43, "midi_note": 74, "velocity": 55}, {"onset_time": 124.295364, "offset_time": 124.853004, "midi_note": 79, "velocity": 56}, {"onset_time": 124.30688, "offset_time": 124.85155, "midi_note": 59, "velocity": 45}, {"onset_time": 124.43733, "offset_time": 124.71, "midi_note": 74, "velocity": 48}, {"onset_time": 124.576416, "offset_time": 124.8503, "midi_note": 71, "velocity": 50}, {"onset_time": 124.722885, "offset_time": 124.8497, "midi_note": 74, "velocity": 44}, {"onset_time": 124.852234, "offset_time": 125.42, "midi_note": 78, "velocity": 62}, {"onset_time": 124.875565, "offset_time": 126.70585, "midi_note": 38, "velocity": 50}, {"onset_time": 125.030365, "offset_time": 125.29, "midi_note": 74, "velocity": 49}, {"onset_time": 125.146805, "offset_time": 125.7, "midi_note": 45, "velocity": 43}, {"onset_time": 125.17541, "offset_time": 125.72, "midi_note": 69, "velocity": 44}, {"onset_time": 125.304115, "offset_time": 125.57, "midi_note": 74, "velocity": 50}, {"onset_time": 125.43449, "offset_time": 126.05, "midi_note": 78, "velocity": 66}, {"onset_time": 125.581635, "offset_time": 125.88, "midi_note": 74, "velocity": 51}, {"onset_time": 125.710556, "offset_time": 126.70658, "midi_note": 45, "velocity": 47}, {"onset_time": 125.7261, "offset_time": 126.37, "midi_note": 69, "velocity": 49}, {"onset_time": 125.892944, "offset_time": 126.23, "midi_note": 74, "velocity": 56}, {"onset_time": 126.06328, "offset_time": 126.70884, "midi_note": 78, "velocity": 62}, {"onset_time": 126.06373, "offset_time": 126.70943, "midi_note": 54, "velocity": 46}, {"onset_time": 126.244286, "offset_time": 126.54, "midi_note": 74, "velocity": 56}, {"onset_time": 126.38342, "offset_time": 126.73, "midi_note": 69, "velocity": 49}, {"onset_time": 126.54597, "offset_time": 126.70726, "midi_note": 74, "velocity": 52}, {"onset_time": 126.68306, "offset_time": 128.35466, "midi_note": 40, "velocity": 43}, {"onset_time": 126.68425, "offset_time": 127.23, "midi_note": 79, "velocity": 59}, {"onset_time": 126.84579, "offset_time": 127.1, "midi_note": 76, "velocity": 58}, {"onset_time": 126.96769, "offset_time": 127.5, "midi_note": 71, "velocity": 51}, {"onset_time": 126.967896, "offset_time": 127.47, "midi_note": 47, "velocity": 47}, {"onset_time": 127.11123, "offset_time": 127.37, "midi_note": 76, "velocity": 58}, {"onset_time": 127.24342, "offset_time": 127.77, "midi_note": 79, "velocity": 76}, {"onset_time": 127.24362, "offset_time": 127.75, "midi_note": 55, "velocity": 53}, {"onset_time": 127.38242, "offset_time": 127.65, "midi_note": 76, "velocity": 58}, {"onset_time": 127.47763, "offset_time": 128.35683, "midi_note": 47, "velocity": 48}, {"onset_time": 127.51162, "offset_time": 128.04, "midi_note": 71, "velocity": 62}, {"onset_time": 127.65645, "offset_time": 127.91, "midi_note": 76, "velocity": 56}, {"onset_time": 127.76036, "offset_time": 128.35782, "midi_note": 55, "velocity": 53}, {"onset_time": 127.778145, "offset_time": 128.31, "midi_note": 79, "velocity": 77}, {"onset_time": 127.922195, "offset_time": 128.17, "midi_note": 76, "velocity": 54}, {"onset_time": 128.0516, "offset_time": 128.358, "midi_note": 71, "velocity": 61}, {"onset_time": 128.17554, "offset_time": 128.35742, "midi_note": 76, "velocity": 57}, {"onset_time": 128.3217, "offset_time": 129.94794, "midi_note": 36, "velocity": 64}, {"onset_time": 128.32426, "offset_time": 128.85, "midi_note": 79, "velocity": 64}, {"onset_time": 128.46812, "offset_time": 128.72, "midi_note": 76, "velocity": 61}, {"onset_time": 128.60542, "offset_time": 129.15, "midi_note": 72, "velocity": 57}, {"onset_time": 128.6086, "offset_time": 129.15, "midi_note": 43, "velocity": 56}, {"onset_time": 128.72603, "offset_time": 129.01, "midi_note": 76, "velocity": 60}, {"onset_time": 128.8644, "offset_time": 129.44, "midi_note": 79, "velocity": 77}, {"onset_time": 128.87735, "offset_time": 129.44, "midi_note": 52, "velocity": 55}, {"onset_time": 129.01816, "offset_time": 129.3, "midi_note": 76, "velocity": 57}, {"onset_time": 129.15524, "offset_time": 130.0, "midi_note": 43, "velocity": 55}, {"onset_time": 129.15868, "offset_time": 129.72, "midi_note": 72, "velocity": 67}, {"onset_time": 129.30725, "offset_time": 129.59, "midi_note": 76, "velocity": 60}, {"onset_time": 129.45033, "offset_time": 129.9504, "midi_note": 52, "velocity": 54}, {"onset_time": 129.45326, "offset_time": 129.99, "midi_note": 79, "velocity": 76}, {"onset_time": 129.45413, "offset_time": 129.97, "midi_note": 55, "velocity": 46}, {"onset_time": 129.6048, "offset_time": 129.85, "midi_note": 76, "velocity": 59}, {"onset_time": 129.72699, "offset_time": 129.95174, "midi_note": 72, "velocity": 66}, {"onset_time": 129.85674, "offset_time": 129.95421, "midi_note": 76, "velocity": 59}, {"onset_time": 129.99956, "offset_time": 130.54, "midi_note": 79, "velocity": 76}, {"onset_time": 130.00607, "offset_time": 131.70207, "midi_note": 43, "velocity": 58}, {"onset_time": 130.15399, "offset_time": 130.42, "midi_note": 74, "velocity": 62}, {"onset_time": 130.28484, "offset_time": 130.81, "midi_note": 50, "velocity": 57}, {"onset_time": 130.28577, "offset_time": 130.81, "midi_note": 71, "velocity": 60}, {"onset_time": 130.42734, "offset_time": 130.68, "midi_note": 74, "velocity": 59}, {"onset_time": 130.54634, "offset_time": 131.09, "midi_note": 79, "velocity": 76}, {"onset_time": 130.56221, "offset_time": 131.69717, "midi_note": 55, "velocity": 58}, {"onset_time": 130.68799, "offset_time": 130.95, "midi_note": 74, "velocity": 58}, {"onset_time": 130.81816, "offset_time": 131.37, "midi_note": 71, "velocity": 64}, {"onset_time": 130.82031, "offset_time": 131.69768, "midi_note": 50, "velocity": 57}, {"onset_time": 130.95769, "offset_time": 131.23, "midi_note": 74, "velocity": 57}, {"onset_time": 131.09624, "offset_time": 131.68, "midi_note": 79, "velocity": 77}, {"onset_time": 131.1049, "offset_time": 131.72, "midi_note": 59, "velocity": 62}, {"onset_time": 131.24472, "offset_time": 131.52, "midi_note": 74, "velocity": 57}, {"onset_time": 131.37888, "offset_time": 131.69734, "midi_note": 71, "velocity": 55}, {"onset_time": 131.53403, "offset_time": 131.69879, "midi_note": 74, "velocity": 54}, {"onset_time": 131.69247, "offset_time": 132.29, "midi_note": 79, "velocity": 77}, {"onset_time": 131.6941, "offset_time": 133.49, "midi_note": 38, "velocity": 71}, {"onset_time": 131.85413, "offset_time": 132.16, "midi_note": 74, "velocity": 60}, {"onset_time": 132.0051, "offset_time": 132.56, "midi_note": 69, "velocity": 55}, {"onset_time": 132.02272, "offset_time": 133.53558, "midi_note": 45, "velocity": 55}, {"onset_time": 132.16605, "offset_time": 132.43, "midi_note": 74, "velocity": 60}, {"onset_time": 132.30368, "offset_time": 132.86, "midi_note": 79, "velocity": 78}, {"onset_time": 132.30519, "offset_time": 133.5244, "midi_note": 50, "velocity": 65}, {"onset_time": 132.44469, "offset_time": 132.7, "midi_note": 74, "velocity": 60}, {"onset_time": 132.57396, "offset_time": 133.14, "midi_note": 69, "velocity": 59}, {"onset_time": 132.58774, "offset_time": 133.53223, "midi_note": 57, "velocity": 57}, {"onset_time": 132.71109, "offset_time": 133.0, "midi_note": 74, "velocity": 58}, {"onset_time": 132.86525, "offset_time": 133.53343, "midi_note": 79, "velocity": 81}, {"onset_time": 132.8745, "offset_time": 133.52477, "midi_note": 62, "velocity": 59}, {"onset_time": 133.00597, "offset_time": 133.3, "midi_note": 74, "velocity": 55}, {"onset_time": 133.1487, "offset_time": 133.53546, "midi_note": 69, "velocity": 56}, {"onset_time": 133.30832, "offset_time": 133.53455, "midi_note": 74, "velocity": 56}, {"onset_time": 133.47954, "offset_time": 134.09, "midi_note": 78, "velocity": 79}, {"onset_time": 133.50137, "offset_time": 135.3, "midi_note": 38, "velocity": 75}, {"onset_time": 133.65918, "offset_time": 133.94, "midi_note": 74, "velocity": 57}, {"onset_time": 133.7939, "offset_time": 134.68, "midi_note": 45, "velocity": 52}, {"onset_time": 133.80391, "offset_time": 134.37, "midi_note": 69, "velocity": 55}, {"onset_time": 133.95227, "offset_time": 134.22, "midi_note": 74, "velocity": 64}, {"onset_time": 134.09465, "offset_time": 135.33482, "midi_note": 50, "velocity": 65}, {"onset_time": 134.0959, "offset_time": 134.68, "midi_note": 78, "velocity": 90}, {"onset_time": 134.2342, "offset_time": 134.53, "midi_note": 74, "velocity": 46}, {"onset_time": 134.38419, "offset_time": 135.33803, "midi_note": 54, "velocity": 64}, {"onset_time": 134.38498, "offset_time": 134.97, "midi_note": 69, "velocity": 59}, {"onset_time": 134.5352, "offset_time": 134.83, "midi_note": 74, "velocity": 61}, {"onset_time": 134.68536, "offset_time": 135.3, "midi_note": 78, "velocity": 75}, {"onset_time": 134.68643, "offset_time": 135.33641, "midi_note": 45, "velocity": 57}, {"onset_time": 134.84424, "offset_time": 135.13, "midi_note": 74, "velocity": 60}, {"onset_time": 134.9812, "offset_time": 135.33589, "midi_note": 69, "velocity": 59}, {"onset_time": 135.13553, "offset_time": 135.33615, "midi_note": 74, "velocity": 54}, {"onset_time": 135.30534, "offset_time": 135.58, "midi_note": 78, "velocity": 77}, {"onset_time": 135.31013, "offset_time": 135.49, "midi_note": 38, "velocity": 70}, {"onset_time": 135.46419, "offset_time": 136.15, "midi_note": 69, "velocity": 52}, {"onset_time": 135.49707, "offset_time": 135.75, "midi_note": 50, "velocity": 48}, {"onset_time": 135.5041, "offset_time": 135.62, "midi_note": 38, "velocity": 53}, {"onset_time": 135.58905, "offset_time": 135.75, "midi_note": 78, "velocity": 56}, {"onset_time": 135.63472, "offset_time": 135.85, "midi_note": 38, "velocity": 58}, {"onset_time": 135.76062, "offset_time": 136.15, "midi_note": 78, "velocity": 60}, {"onset_time": 135.76181, "offset_time": 135.95, "midi_note": 50, "velocity": 51}, {"onset_time": 135.85504, "offset_time": 136.03, "midi_note": 38, "velocity": 54}, {"onset_time": 135.86769, "offset_time": 136.25, "midi_note": 74, "velocity": 43}, {"onset_time": 135.95642, "offset_time": 136.14, "midi_note": 50, "velocity": 52}, {"onset_time": 136.04117, "offset_time": 136.24, "midi_note": 38, "velocity": 54}, {"onset_time": 136.15224, "offset_time": 136.37, "midi_note": 50, "velocity": 53}, {"onset_time": 136.15613, "offset_time": 136.49, "midi_note": 78, "velocity": 46}, {"onset_time": 136.15631, "offset_time": 137.57358, "midi_note": 69, "velocity": 46}, {"onset_time": 136.24721, "offset_time": 136.6, "midi_note": 38, "velocity": 55}, {"onset_time": 136.25839, "offset_time": 136.38, "midi_note": 74, "velocity": 47}, {"onset_time": 136.37917, "offset_time": 137.59, "midi_note": 50, "velocity": 50}, {"onset_time": 136.39496, "offset_time": 136.59, "midi_note": 74, "velocity": 48}, {"onset_time": 136.49611, "offset_time": 137.57243, "midi_note": 78, "velocity": 62}, {"onset_time": 136.60277, "offset_time": 137.57265, "midi_note": 74, "velocity": 46}, {"onset_time": 136.60782, "offset_time": 137.57243, "midi_note": 38, "velocity": 50}, {"onset_time": 137.53404, "offset_time": 137.94, "midi_note": 73, "velocity": 48}, {"onset_time": 137.59526, "offset_time": 138.83, "midi_note": 76, "velocity": 53}, {"onset_time": 137.63249, "offset_time": 138.86, "midi_note": 33, "velocity": 71}, {"onset_time": 137.63905, "offset_time": 138.82, "midi_note": 81, "velocity": 66}, {"onset_time": 137.69426, "offset_time": 139.54623, "midi_note": 45, "velocity": 60}, {"onset_time": 137.69495, "offset_time": 139.54565, "midi_note": 85, "velocity": 65}, {"onset_time": 138.02533, "offset_time": 138.55, "midi_note": 52, "velocity": 66}, {"onset_time": 138.27907, "offset_time": 139.54578, "midi_note": 57, "velocity": 51}, {"onset_time": 138.55971, "offset_time": 139.15, "midi_note": 52, "velocity": 50}, {"onset_time": 138.83234, "offset_time": 139.54494, "midi_note": 88, "velocity": 80}, {"onset_time": 138.83336, "offset_time": 139.54736, "midi_note": 81, "velocity": 73}, {"onset_time": 138.83948, "offset_time": 139.5493, "midi_note": 61, "velocity": 51}, {"onset_time": 138.84204, "offset_time": 139.46, "midi_note": 76, "velocity": 65}, {"onset_time": 139.16353, "offset_time": 139.54642, "midi_note": 52, "velocity": 53}, {"onset_time": 139.46596, "offset_time": 140.59, "midi_note": 83, "velocity": 77}, {"onset_time": 139.46649, "offset_time": 141.27, "midi_note": 80, "velocity": 60}, {"onset_time": 139.47372, "offset_time": 140.66, "midi_note": 44, "velocity": 53}, {"onset_time": 139.47432, "offset_time": 140.6, "midi_note": 76, "velocity": 64}, {"onset_time": 139.79825, "offset_time": 140.31, "midi_note": 52, "velocity": 53}, {"onset_time": 140.049, "offset_time": 140.6, "midi_note": 59, "velocity": 58}, {"onset_time": 140.32321, "offset_time": 140.66194, "midi_note": 52, "velocity": 49}, {"onset_time": 140.60477, "offset_time": 141.28, "midi_note": 83, "velocity": 82}, {"onset_time": 140.60674, "offset_time": 141.24, "midi_note": 71, "velocity": 69}, {"onset_time": 140.60701, "offset_time": 141.39, "midi_note": 88, "velocity": 83}, {"onset_time": 140.61165, "offset_time": 141.18, "midi_note": 76, "velocity": 73}, {"onset_time": 140.61317, "offset_time": 141.22, "midi_note": 59, "velocity": 62}, {"onset_time": 140.88222, "offset_time": 141.23535, "midi_note": 52, "velocity": 49}, {"onset_time": 141.18532, "offset_time": 142.5, "midi_note": 42, "velocity": 63}, {"onset_time": 141.18942, "offset_time": 142.29, "midi_note": 81, "velocity": 72}, {"onset_time": 141.19446, "offset_time": 141.74, "midi_note": 76, "velocity": 65}, {"onset_time": 141.47531, "offset_time": 142.0, "midi_note": 49, "velocity": 54}, {"onset_time": 141.47983, "offset_time": 142.88, "midi_note": 83, "velocity": 66}, {"onset_time": 141.74289, "offset_time": 142.82564, "midi_note": 85, "velocity": 77}, {"onset_time": 141.75368, "offset_time": 142.3, "midi_note": 76, "velocity": 61}, {"onset_time": 141.75537, "offset_time": 142.29, "midi_note": 57, "velocity": 52}, {"onset_time": 142.01074, "offset_time": 142.55, "midi_note": 49, "velocity": 52}, {"onset_time": 142.29155, "offset_time": 142.82217, "midi_note": 86, "velocity": 72}, {"onset_time": 142.2953, "offset_time": 142.82487, "midi_note": 81, "velocity": 69}, {"onset_time": 142.30432, "offset_time": 142.85, "midi_note": 57, "velocity": 54}, {"onset_time": 142.30669, "offset_time": 142.77, "midi_note": 76, "velocity": 63}, {"onset_time": 142.55852, "offset_time": 142.82492, "midi_note": 49, "velocity": 50}, {"onset_time": 142.77628, "offset_time": 144.64607, "midi_note": 76, "velocity": 46}, {"onset_time": 142.79507, "offset_time": 144.64473, "midi_note": 80, "velocity": 58}, {"onset_time": 142.89507, "offset_time": 144.64223, "midi_note": 37, "velocity": 61}, {"onset_time": 142.89604, "offset_time": 144.64792, "midi_note": 88, "velocity": 80}, {"onset_time": 143.18822, "offset_time": 144.64532, "midi_note": 44, "velocity": 46}, {"onset_time": 143.43542, "offset_time": 144.64581, "midi_note": 52, "velocity": 51}, {"onset_time": 143.71399, "offset_time": 144.26, "midi_note": 56, "velocity": 52}, {"onset_time": 144.01006, "offset_time": 144.64651, "midi_note": 64, "velocity": 46}, {"onset_time": 144.27484, "offset_time": 144.6464, "midi_note": 56, "velocity": 44}, {"onset_time": 144.58505, "offset_time": 145.46547, "midi_note": 86, "velocity": 67}, {"onset_time": 144.59048, "offset_time": 145.41, "midi_note": 78, "velocity": 59}, {"onset_time": 144.60504, "offset_time": 146.30687, "midi_note": 50, "velocity": 61}, {"onset_time": 144.88379, "offset_time": 145.42, "midi_note": 57, "velocity": 53}, {"onset_time": 145.16962, "offset_time": 146.32, "midi_note": 62, "velocity": 44}, {"onset_time": 145.42256, "offset_time": 146.30544, "midi_note": 88, "velocity": 66}, {"onset_time": 145.42491, "offset_time": 146.33, "midi_note": 78, "velocity": 62}, {"onset_time": 145.42758, "offset_time": 145.97, "midi_note": 57, "velocity": 48}, {"onset_time": 145.70593, "offset_time": 146.30383, "midi_note": 90, "velocity": 88}, {"onset_time": 145.71724, "offset_time": 146.30493, "midi_note": 66, "velocity": 59}, {"onset_time": 145.98343, "offset_time": 146.33, "midi_note": 57, "velocity": 47}, {"onset_time": 146.22644, "offset_time": 146.57, "midi_note": 76, "velocity": 48}, {"onset_time": 146.2486, "offset_time": 147.06, "midi_note": 81, "velocity": 58}, {"onset_time": 146.30426, "offset_time": 147.89311, "midi_note": 49, "velocity": 56}, {"onset_time": 146.30463, "offset_time": 147.88998, "midi_note": 85, "velocity": 74}, {"onset_time": 146.57903, "offset_time": 147.06, "midi_note": 57, "velocity": 52}, {"onset_time": 146.58394, "offset_time": 147.07, "midi_note": 76, "velocity": 49}, {"onset_time": 146.82718, "offset_time": 147.37, "midi_note": 64, "velocity": 44}, {"onset_time": 147.07387, "offset_time": 147.88637, "midi_note": 81, "velocity": 53}, {"onset_time": 147.07492, "offset_time": 147.62, "midi_note": 57, "velocity": 47}, {"onset_time": 147.07608, "offset_time": 147.88602, "midi_note": 86, "velocity": 66}, {"onset_time": 147.08427, "offset_time": 147.88855, "midi_note": 76, "velocity": 56}, {"onset_time": 147.37534, "offset_time": 147.88643, "midi_note": 88, "velocity": 78}, {"onset_time": 147.38367, "offset_time": 147.89122, "midi_note": 64, "velocity": 34}, {"onset_time": 147.62706, "offset_time": 147.88646, "midi_note": 57, "velocity": 44}, {"onset_time": 147.82616, "offset_time": 148.51, "midi_note": 74, "velocity": 48}, {"onset_time": 147.86258, "offset_time": 149.65, "midi_note": 78, "velocity": 58}, {"onset_time": 147.94958, "offset_time": 149.654, "midi_note": 47, "velocity": 50}, {"onset_time": 147.97346, "offset_time": 149.65198, "midi_note": 86, "velocity": 70}, {"onset_time": 148.25401, "offset_time": 149.65541, "midi_note": 54, "velocity": 54}, {"onset_time": 148.26167, "offset_time": 149.65593, "midi_note": 85, "velocity": 80}, {"onset_time": 148.51697, "offset_time": 149.32, "midi_note": 57, "velocity": 47}, {"onset_time": 148.51743, "offset_time": 149.64, "midi_note": 83, "velocity": 63}, {"onset_time": 148.52243, "offset_time": 149.06, "midi_note": 74, "velocity": 51}, {"onset_time": 148.78407, "offset_time": 149.65675, "midi_note": 61, "velocity": 42}, {"onset_time": 149.06395, "offset_time": 149.65549, "midi_note": 81, "velocity": 64}, {"onset_time": 149.06912, "offset_time": 149.65529, "midi_note": 62, "velocity": 39}, {"onset_time": 149.06915, "offset_time": 149.65, "midi_note": 74, "velocity": 56}, {"onset_time": 149.32567, "offset_time": 149.65613, "midi_note": 57, "velocity": 44}, {"onset_time": 149.65448, "offset_time": 151.49446, "midi_note": 83, "velocity": 67}, {"onset_time": 149.65735, "offset_time": 151.49097, "midi_note": 74, "velocity": 53}, {"onset_time": 149.65877, "offset_time": 152.5, "midi_note": 78, "velocity": 57}, {"onset_time": 149.66066, "offset_time": 149.86, "midi_note": 40, "velocity": 51}, {"onset_time": 149.93608, "offset_time": 150.51, "midi_note": 52, "velocity": 48}, {"onset_time": 150.22688, "offset_time": 151.41, "midi_note": 76, "velocity": 41}, {"onset_time": 150.22815, "offset_time": 151.49179, "midi_note": 69, "velocity": 53}, {"onset_time": 150.23335, "offset_time": 151.53, "midi_note": 81, "velocity": 51}, {"onset_time": 150.26353, "offset_time": 150.79, "midi_note": 64, "velocity": 35}, {"onset_time": 150.26439, "offset_time": 150.79, "midi_note": 40, "velocity": 31}, {"onset_time": 150.51672, "offset_time": 151.13, "midi_note": 52, "velocity": 47}, {"onset_time": 150.78761, "offset_time": 151.4928, "midi_note": 59, "velocity": 58}, {"onset_time": 150.78838, "offset_time": 151.49232, "midi_note": 71, "velocity": 60}, {"onset_time": 150.79482, "offset_time": 151.4918, "midi_note": 68, "velocity": 58}, {"onset_time": 150.79753, "offset_time": 151.52, "midi_note": 64, "velocity": 54}, {"onset_time": 150.80397, "offset_time": 151.52, "midi_note": 40, "velocity": 61}, {"onset_time": 151.14032, "offset_time": 151.48904, "midi_note": 52, "velocity": 48}, {"onset_time": 151.38522, "offset_time": 151.81, "midi_note": 73, "velocity": 53}, {"onset_time": 151.41718, "offset_time": 151.81, "midi_note": 76, "velocity": 55}, {"onset_time": 151.49252, "offset_time": 151.5, "midi_note": 82, "velocity": 63}, {"onset_time": 151.49506, "offset_time": 151.7, "midi_note": 33, "velocity": 75}, {"onset_time": 151.49547, "offset_time": 153.19519, "midi_note": 85, "velocity": 70}, {"onset_time": 151.77751, "offset_time": 153.19539, "midi_note": 45, "velocity": 72}, {"onset_time": 151.81567, "offset_time": 153.19586, "midi_note": 73, "velocity": 55}, {"onset_time": 151.8183, "offset_time": 152.6, "midi_note": 76, "velocity": 37}, {"onset_time": 152.04634, "offset_time": 152.86, "midi_note": 52, "velocity": 67}, {"onset_time": 152.29451, "offset_time": 153.19386, "midi_note": 57, "velocity": 50}, {"onset_time": 152.2958, "offset_time": 153.27, "midi_note": 59, "velocity": 48}, {"onset_time": 152.60269, "offset_time": 153.19438, "midi_note": 81, "velocity": 72}, {"onset_time": 152.60378, "offset_time": 153.19235, "midi_note": 88, "velocity": 80}, {"onset_time": 152.60721, "offset_time": 153.18, "midi_note": 76, "velocity": 64}, {"onset_time": 152.61308, "offset_time": 153.19447, "midi_note": 61, "velocity": 64}, {"onset_time": 152.86595, "offset_time": 153.19328, "midi_note": 52, "velocity": 53}, {"onset_time": 153.1745, "offset_time": 154.89665, "midi_note": 44, "velocity": 50}, {"onset_time": 153.1805, "offset_time": 154.25, "midi_note": 83, "velocity": 61}, {"onset_time": 153.1856, "offset_time": 154.90332, "midi_note": 80, "velocity": 56}, {"onset_time": 153.1925, "offset_time": 154.25, "midi_note": 76, "velocity": 52}, {"onset_time": 153.46281, "offset_time": 153.96, "midi_note": 52, "velocity": 49}, {"onset_time": 153.71558, "offset_time": 154.25, "midi_note": 59, "velocity": 59}, {"onset_time": 153.97456, "offset_time": 154.53, "midi_note": 52, "velocity": 51}, {"onset_time": 154.25931, "offset_time": 154.89885, "midi_note": 83, "velocity": 66}, {"onset_time": 154.26347, "offset_time": 154.84, "midi_note": 76, "velocity": 62}, {"onset_time": 154.2641, "offset_time": 154.92, "midi_note": 59, "velocity": 57}, {"onset_time": 154.26497, "offset_time": 154.90012, "midi_note": 88, "velocity": 66}, {"onset_time": 154.53587, "offset_time": 154.89523, "midi_note": 52, "velocity": 43}, {"onset_time": 154.84264, "offset_time": 156.62659, "midi_note": 42, "velocity": 63}, {"onset_time": 154.84535, "offset_time": 155.94, "midi_note": 81, "velocity": 68}, {"onset_time": 154.85275, "offset_time": 155.13, "midi_note": 76, "velocity": 60}, {"onset_time": 155.13432, "offset_time": 155.65, "midi_note": 49, "velocity": 50}, {"onset_time": 155.1363, "offset_time": 156.53, "midi_note": 83, "velocity": 63}, {"onset_time": 155.13686, "offset_time": 155.39, "midi_note": 76, "velocity": 51}, {"onset_time": 155.39557, "offset_time": 156.6281, "midi_note": 85, "velocity": 81}, {"onset_time": 155.40488, "offset_time": 155.95, "midi_note": 76, "velocity": 64}, {"onset_time": 155.40556, "offset_time": 155.94, "midi_note": 57, "velocity": 51}, {"onset_time": 155.66132, "offset_time": 156.23, "midi_note": 49, "velocity": 50}, {"onset_time": 155.94482, "offset_time": 156.76, "midi_note": 86, "velocity": 69}, {"onset_time": 155.9479, "offset_time": 156.62488, "midi_note": 81, "velocity": 65}, {"onset_time": 155.95485, "offset_time": 156.65, "midi_note": 57, "velocity": 46}, {"onset_time": 155.95772, "offset_time": 156.62529, "midi_note": 76, "velocity": 57}, {"onset_time": 156.23541, "offset_time": 156.62503, "midi_note": 49, "velocity": 49}, {"onset_time": 156.52411, "offset_time": 157.11, "midi_note": 79, "velocity": 58}, {"onset_time": 156.53746, "offset_time": 156.92, "midi_note": 83, "velocity": 54}, {"onset_time": 156.59456, "offset_time": 157.77773, "midi_note": 40, "velocity": 42}, {"onset_time": 156.60368, "offset_time": 157.78015, "midi_note": 88, "velocity": 77}, {"onset_time": 156.83705, "offset_time": 157.77872, "midi_note": 55, "velocity": 50}, {"onset_time": 157.12172, "offset_time": 157.8, "midi_note": 83, "velocity": 62}, {"onset_time": 157.12314, "offset_time": 157.77702, "midi_note": 62, "velocity": 41}, {"onset_time": 157.12357, "offset_time": 157.8, "midi_note": 79, "velocity": 54}, {"onset_time": 157.41777, "offset_time": 157.77716, "midi_note": 59, "velocity": 55}, {"onset_time": 157.71211, "offset_time": 158.49408, "midi_note": 45, "velocity": 45}, {"onset_time": 157.80537, "offset_time": 158.49135, "midi_note": 85, "velocity": 63}, {"onset_time": 157.8119, "offset_time": 158.49008, "midi_note": 81, "velocity": 56}, {"onset_time": 157.83286, "offset_time": 158.49481, "midi_note": 61, "velocity": 43}, {"onset_time": 157.83719, "offset_time": 158.48894, "midi_note": 52, "velocity": 48}, {"onset_time": 157.83752, "offset_time": 157.91, "midi_note": 73, "velocity": 38}, {"onset_time": 158.4264, "offset_time": 160.13821, "midi_note": 86, "velocity": 73}, {"onset_time": 158.4276, "offset_time": 159.23, "midi_note": 78, "velocity": 86}, {"onset_time": 158.43057, "offset_time": 159.51, "midi_note": 90, "velocity": 74}, {"onset_time": 158.43686, "offset_time": 160.13345, "midi_note": 38, "velocity": 63}, {"onset_time": 158.71721, "offset_time": 160.13564, "midi_note": 45, "velocity": 49}, {"onset_time": 158.96701, "offset_time": 160.14241, "midi_note": 50, "velocity": 46}, {"onset_time": 159.23785, "offset_time": 160.13814, "midi_note": 88, "velocity": 66}, {"onset_time": 159.24039, "offset_time": 159.54, "midi_note": 78, "velocity": 63}, {"onset_time": 159.24704, "offset_time": 159.77, "midi_note": 54, "velocity": 54}, {"onset_time": 159.52022, "offset_time": 160.13387, "midi_note": 90, "velocity": 88}, {"onset_time": 159.53511, "offset_time": 160.07, "midi_note": 81, "velocity": 55}, {"onset_time": 159.5366, "offset_time": 160.13557, "midi_note": 62, "velocity": 54}, {"onset_time": 159.54858, "offset_time": 160.1365, "midi_note": 78, "velocity": 48}, {"onset_time": 159.7815, "offset_time": 160.13864, "midi_note": 54, "velocity": 49}, {"onset_time": 160.07529, "offset_time": 162.06, "midi_note": 85, "velocity": 65}, {"onset_time": 160.07652, "offset_time": 160.88, "midi_note": 81, "velocity": 61}, {"onset_time": 160.0852, "offset_time": 161.76299, "midi_note": 49, "velocity": 61}, {"onset_time": 160.08527, "offset_time": 160.88, "midi_note": 76, "velocity": 61}, {"onset_time": 160.36647, "offset_time": 160.87, "midi_note": 57, "velocity": 49}, {"onset_time": 160.6241, "offset_time": 161.21, "midi_note": 64, "velocity": 48}, {"onset_time": 160.87955, "offset_time": 161.41, "midi_note": 57, "velocity": 47}, {"onset_time": 160.88574, "offset_time": 161.75, "midi_note": 86, "velocity": 66}, {"onset_time": 160.88957, "offset_time": 161.71, "midi_note": 81, "velocity": 63}, {"onset_time": 160.89418, "offset_time": 161.75133, "midi_note": 76, "velocity": 59}, {"onset_time": 161.16745, "offset_time": 162.55, "midi_note": 88, "velocity": 79}, {"onset_time": 161.21751, "offset_time": 161.75255, "midi_note": 64, "velocity": 32}, {"onset_time": 161.41957, "offset_time": 161.74, "midi_note": 57, "velocity": 47}, {"onset_time": 161.69348, "offset_time": 162.46, "midi_note": 78, "velocity": 55}, {"onset_time": 161.69438, "offset_time": 161.7, "midi_note": 74, "velocity": 41}, {"onset_time": 161.7152, "offset_time": 162.56, "midi_note": 81, "velocity": 60}, {"onset_time": 161.75401, "offset_time": 162.51868, "midi_note": 57, "velocity": 46}, {"onset_time": 161.76207, "offset_time": 164.03, "midi_note": 86, "velocity": 73}, {"onset_time": 161.76462, "offset_time": 162.52124, "midi_note": 47, "velocity": 51}, {"onset_time": 162.07414, "offset_time": 162.52158, "midi_note": 85, "velocity": 76}, {"onset_time": 162.47107, "offset_time": 164.23, "midi_note": 78, "velocity": 61}, {"onset_time": 162.47572, "offset_time": 164.10909, "midi_note": 74, "velocity": 53}, {"onset_time": 162.4762, "offset_time": 164.1061, "midi_note": 83, "velocity": 65}, {"onset_time": 162.49994, "offset_time": 164.11598, "midi_note": 40, "velocity": 48}, {"onset_time": 163.31938, "offset_time": 164.16, "midi_note": 81, "velocity": 57}, {"onset_time": 163.96451, "offset_time": 164.24, "midi_note": 71, "velocity": 39}, {"onset_time": 163.99968, "offset_time": 167.5, "midi_note": 73, "velocity": 46}, {"onset_time": 164.09276, "offset_time": 167.5, "midi_note": 76, "velocity": 46}, {"onset_time": 164.17249, "offset_time": 165.86, "midi_note": 45, "velocity": 47}, {"onset_time": 164.17476, "offset_time": 167.5, "midi_note": 81, "velocity": 58}, {"onset_time": 164.49516, "offset_time": 164.99, "midi_note": 52, "velocity": 43}, {"onset_time": 164.74376, "offset_time": 166.39, "midi_note": 59, "velocity": 46}, {"onset_time": 165.00235, "offset_time": 166.13, "midi_note": 52, "velocity": 44}, {"onset_time": 165.2852, "offset_time": 167.0, "midi_note": 61, "velocity": 40}, {"onset_time": 165.86748, "offset_time": 167.80505, "midi_note": 45, "velocity": 42}, {"onset_time": 166.1432, "offset_time": 166.69, "midi_note": 52, "velocity": 43}, {"onset_time": 166.40205, "offset_time": 167.80885, "midi_note": 59, "velocity": 46}, {"onset_time": 166.70477, "offset_time": 167.80434, "midi_note": 52, "velocity": 39}, {"onset_time": 167.00645, "offset_time": 167.80663, "midi_note": 61, "velocity": 28}, {"onset_time": 167.7191, "offset_time": 169.70392, "midi_note": 86, "velocity": 53}, {"onset_time": 167.71925, "offset_time": 169.70189, "midi_note": 78, "velocity": 46}, {"onset_time": 167.7195, "offset_time": 169.7, "midi_note": 74, "velocity": 38}, {"onset_time": 167.72302, "offset_time": 169.56, "midi_note": 81, "velocity": 45}, {"onset_time": 167.75067, "offset_time": 168.39, "midi_note": 50, "velocity": 37}, {"onset_time": 168.07358, "offset_time": 168.65, "midi_note": 57, "velocity": 44}, {"onset_time": 168.37514, "offset_time": 169.69803, "midi_note": 64, "velocity": 28}, {"onset_time": 168.66039, "offset_time": 169.70055, "midi_note": 88, "velocity": 62}, {"onset_time": 168.66298, "offset_time": 169.5, "midi_note": 57, "velocity": 40}, {"onset_time": 168.96526, "offset_time": 169.70297, "midi_note": 90, "velocity": 74}, {"onset_time": 168.99846, "offset_time": 169.69736, "midi_note": 66, "velocity": 44}, {"onset_time": 169.51395, "offset_time": 169.7004, "midi_note": 76, "velocity": 48}, {"onset_time": 169.51472, "offset_time": 169.69804, "midi_note": 57, "velocity": 27}, {"onset_time": 169.56577, "offset_time": 171.72, "midi_note": 81, "velocity": 58}, {"onset_time": 169.65248, "offset_time": 172.24, "midi_note": 85, "velocity": 54}, {"onset_time": 169.65286, "offset_time": 171.86191, "midi_note": 49, "velocity": 52}, {"onset_time": 169.97345, "offset_time": 170.57, "midi_note": 57, "velocity": 43}, {"onset_time": 170.27518, "offset_time": 170.58, "midi_note": 76, "velocity": 41}, {"onset_time": 170.2773, "offset_time": 170.99, "midi_note": 64, "velocity": 39}, {"onset_time": 170.58281, "offset_time": 171.79, "midi_note": 57, "velocity": 43}, {"onset_time": 170.58572, "offset_time": 171.79, "midi_note": 86, "velocity": 63}, {"onset_time": 170.59209, "offset_time": 170.95, "midi_note": 76, "velocity": 42}, {"onset_time": 170.94385, "offset_time": 171.86353, "midi_note": 88, "velocity": 69}, {"onset_time": 170.96048, "offset_time": 172.84, "midi_note": 76, "velocity": 41}, {"onset_time": 170.9956, "offset_time": 171.86263, "midi_note": 64, "velocity": 25}, {"onset_time": 171.6798, "offset_time": 172.74, "midi_note": 78, "velocity": 55}, {"onset_time": 171.73253, "offset_time": 172.84, "midi_note": 81, "velocity": 57}, {"onset_time": 171.79643, "offset_time": 172.82347, "midi_note": 86, "velocity": 67}, {"onset_time": 171.80374, "offset_time": 172.84, "midi_note": 57, "velocity": 41}, {"onset_time": 171.82753, "offset_time": 172.82518, "midi_note": 47, "velocity": 42}, {"onset_time": 171.83208, "offset_time": 173.39, "midi_note": 59, "velocity": 36}, {"onset_time": 172.25218, "offset_time": 172.82462, "midi_note": 85, "velocity": 55}, {"onset_time": 172.2529, "offset_time": 172.5, "midi_note": 66, "velocity": 27}, {"onset_time": 172.74794, "offset_time": 175.57, "midi_note": 78, "velocity": 54}, {"onset_time": 172.75726, "offset_time": 175.52534, "midi_note": 74, "velocity": 44}, {"onset_time": 172.76385, "offset_time": 175.52669, "midi_note": 83, "velocity": 57}, {"onset_time": 172.78654, "offset_time": 175.52686, "midi_note": 52, "velocity": 31}, {"onset_time": 173.88857, "offset_time": 175.47, "midi_note": 81, "velocity": 49}, {"onset_time": 175.12737, "offset_time": 175.52632, "midi_note": 71, "velocity": 38}, {"onset_time": 175.13463, "offset_time": 175.52522, "midi_note": 59, "velocity": 20}, {"onset_time": 175.23462, "offset_time": 177.5, "midi_note": 73, "velocity": 32}, {"onset_time": 175.33391, "offset_time": 178.11311, "midi_note": 76, "velocity": 51}, {"onset_time": 175.47902, "offset_time": 178.84, "midi_note": 81, "velocity": 51}, {"onset_time": 175.49408, "offset_time": 178.13, "midi_note": 45, "velocity": 40}, {"onset_time": 175.92705, "offset_time": 181.86, "midi_note": 52, "velocity": 36}, {"onset_time": 176.28789, "offset_time": 181.59, "midi_note": 57, "velocity": 34}, {"onset_time": 176.63545, "offset_time": 179.65, "midi_note": 59, "velocity": 45}, {"onset_time": 176.95447, "offset_time": 179.55563, "midi_note": 61, "velocity": 37}, {"onset_time": 177.24196, "offset_time": 181.8, "midi_note": 64, "velocity": 33}, {"onset_time": 177.5046, "offset_time": 179.67, "midi_note": 69, "velocity": 41}, {"onset_time": 177.78142, "offset_time": 179.6, "midi_note": 71, "velocity": 42}, {"onset_time": 178.08362, "offset_time": 179.9, "midi_note": 73, "velocity": 42}, {"onset_time": 178.46399, "offset_time": 180.2, "midi_note": 76, "velocity": 45}, {"onset_time": 178.85493, "offset_time": 181.85, "midi_note": 81, "velocity": 52}, {"onset_time": 179.44887, "offset_time": 181.86359, "midi_note": 83, "velocity": 58}, {"onset_time": 181.537, "offset_time": 187.5, "midi_note": 73, "velocity": 43}, {"onset_time": 181.59763, "offset_time": 187.5, "midi_note": 57, "velocity": 28}, {"onset_time": 181.64742, "offset_time": 187.5, "midi_note": 76, "velocity": 44}, {"onset_time": 181.7746, "offset_time": 187.5, "midi_note": 85, "velocity": 55}, {"onset_time": 181.81473, "offset_time": 187.5, "midi_note": 64, "velocity": 20}, {"onset_time": 181.99355, "offset_time": 187.5, "midi_note": 69, "velocity": 26}]
