[{"onset_time": 1.4207344, "offset_time": 5.604989, "midi_note": 47, "velocity": 68}, {"onset_time": 1.8329216, "offset_time": 5.601743, "midi_note": 49, "velocity": 59}, {"onset_time": 2.0395517, "offset_time": 5.63, "midi_note": 52, "velocity": 62}, {"onset_time": 2.2047532, "offset_time": 5.54, "midi_note": 54, "velocity": 68}, {"onset_time": 2.3373938, "offset_time": 5.605284, "midi_note": 59, "velocity": 74}, {"onset_time": 2.4676142, "offset_time": 5.65, "midi_note": 61, "velocity": 71}, {"onset_time": 2.5670104, "offset_time": 5.6015363, "midi_note": 64, "velocity": 66}, {"onset_time": 2.6593144, "offset_time": 5.85, "midi_note": 66, "velocity": 76}, {"onset_time": 2.789835, "offset_time": 5.604043, "midi_note": 71, "velocity": 87}, {"onset_time": 2.926417, "offset_time": 5.64, "midi_note": 73, "velocity": 85}, {"onset_time": 3.0864954, "offset_time": 5.69, "midi_note": 76, "velocity": 79}, {"onset_time": 3.2541173, "offset_time": 5.85, "midi_note": 78, "velocity": 79}, {"onset_time": 3.485051, "offset_time": 4.04, "midi_note": 83, "velocity": 95}, {"onset_time": 3.8623056, "offset_time": 4.14, "midi_note": 85, "velocity": 77}, {"onset_time": 4.0519958, "offset_time": 4.22, "midi_note": 83, "velocity": 73}, {"onset_time": 4.1521897, "offset_time": 4.31, "midi_note": 85, "velocity": 65}, {"onset_time": 4.2347546, "offset_time": 4.38, "midi_note": 83, "velocity": 68}, {"onset_time": 4.322509, "offset_time": 4.45, "midi_note": 85, "velocity": 70}, {"onset_time": 4.392907, "offset_time": 4.53, "midi_note": 83, "velocity": 74}, {"onset_time": 4.461349, "offset_time": 4.59, "midi_note": 85, "velocity": 75}, {"onset_time": 4.535399, "offset_time": 4.66, "midi_note": 83, "velocity": 74}, {"onset_time": 4.5998964, "offset_time": 4.72, "midi_note": 85, "velocity": 77}, {"onset_time": 4.670912, "offset_time": 4.78, "midi_note": 83, "velocity": 68}, {"onset_time": 4.7271957, "offset_time": 4.85, "midi_note": 85, "velocity": 90}, {"onset_time": 4.7873325, "offset_time": 4.91, "midi_note": 83, "velocity": 69}, {"onset_time": 4.859886, "offset_time": 4.97, "midi_note": 85, "velocity": 88}, {"onset_time": 4.917745, "offset_time": 5.08, "midi_note": 83, "velocity": 74}, {"onset_time": 4.9836564, "offset_time": 5.15, "midi_note": 85, "velocity": 94}, {"onset_time": 5.086409, "offset_time": 5.23, "midi_note": 83, "velocity": 77}, {"onset_time": 5.1642756, "offset_time": 5.3, "midi_note": 85, "velocity": 95}, {"onset_time": 5.2421503, "offset_time": 5.36, "midi_note": 83, "velocity": 88}, {"onset_time": 5.306539, "offset_time": 5.85, "midi_note": 85, "velocity": 98}, {"onset_time": 5.366817, "offset_time": 5.78, "midi_note": 83, "velocity": 88}, {"onset_time": 5.5528207, "offset_time": 5.98, "midi_note": 54, "velocity": 102}, {"onset_time": 5.7748494, "offset_time": 6.27, "midi_note": 59, "velocity": 99}, {"onset_time": 5.775686, "offset_time": 6.251029, "midi_note": 47, "velocity": 93}, {"onset_time": 5.785428, "offset_time": 6.24, "midi_note": 83, "velocity": 90}, {"onset_time": 5.8571634, "offset_time": 6.26, "midi_note": 85, "velocity": 97}, {"onset_time": 5.9134927, "offset_time": 6.255045, "midi_note": 87, "velocity": 96}, {"onset_time": 5.989036, "offset_time": 6.254038, "midi_note": 54, "velocity": 85}, {"onset_time": 6.0010996, "offset_time": 6.254979, "midi_note": 88, "velocity": 98}, {"onset_time": 6.0676613, "offset_time": 6.256163, "midi_note": 90, "velocity": 105}, {"onset_time": 6.133939, "offset_time": 6.25758, "midi_note": 92, "velocity": 98}, {"onset_time": 6.188318, "offset_time": 6.31, "midi_note": 93, "velocity": 96}, {"onset_time": 6.2443924, "offset_time": 10.02, "midi_note": 95, "velocity": 109}, {"onset_time": 6.2538433, "offset_time": 7.92, "midi_note": 40, "velocity": 90}, {"onset_time": 6.253979, "offset_time": 9.98, "midi_note": 83, "velocity": 104}, {"onset_time": 6.2545657, "offset_time": 6.75, "midi_note": 52, "velocity": 99}, {"onset_time": 6.5266147, "offset_time": 6.75, "midi_note": 68, "velocity": 74}, {"onset_time": 6.5311346, "offset_time": 6.75, "midi_note": 56, "velocity": 64}, {"onset_time": 6.5332937, "offset_time": 6.75, "midi_note": 59, "velocity": 71}, {"onset_time": 6.755751, "offset_time": 6.99, "midi_note": 52, "velocity": 57}, {"onset_time": 6.757951, "offset_time": 6.99, "midi_note": 64, "velocity": 60}, {"onset_time": 6.763059, "offset_time": 6.98, "midi_note": 68, "velocity": 66}, {"onset_time": 6.7634587, "offset_time": 6.98, "midi_note": 59, "velocity": 61}, {"onset_time": 6.764285, "offset_time": 6.98, "midi_note": 56, "velocity": 68}, {"onset_time": 6.9917393, "offset_time": 7.22, "midi_note": 68, "velocity": 68}, {"onset_time": 6.992113, "offset_time": 7.22, "midi_note": 56, "velocity": 61}, {"onset_time": 6.992343, "offset_time": 7.22, "midi_note": 59, "velocity": 62}, {"onset_time": 6.9959216, "offset_time": 7.24, "midi_note": 64, "velocity": 62}, {"onset_time": 6.995995, "offset_time": 7.23, "midi_note": 52, "velocity": 50}, {"onset_time": 7.2259426, "offset_time": 7.43, "midi_note": 59, "velocity": 78}, {"onset_time": 7.2272415, "offset_time": 7.44, "midi_note": 56, "velocity": 71}, {"onset_time": 7.2306547, "offset_time": 7.45, "midi_note": 68, "velocity": 80}, {"onset_time": 7.235148, "offset_time": 7.45, "midi_note": 52, "velocity": 59}, {"onset_time": 7.2463226, "offset_time": 7.46, "midi_note": 64, "velocity": 59}, {"onset_time": 7.4412665, "offset_time": 7.93, "midi_note": 59, "velocity": 72}, {"onset_time": 7.4499865, "offset_time": 7.9335127, "midi_note": 56, "velocity": 66}, {"onset_time": 7.457535, "offset_time": 7.69, "midi_note": 68, "velocity": 82}, {"onset_time": 7.460572, "offset_time": 7.92, "midi_note": 52, "velocity": 51}, {"onset_time": 7.470382, "offset_time": 7.69, "midi_note": 64, "velocity": 54}, {"onset_time": 7.69821, "offset_time": 7.935799, "midi_note": 68, "velocity": 84}, {"onset_time": 7.7019725, "offset_time": 8.17, "midi_note": 64, "velocity": 62}, {"onset_time": 7.9238296, "offset_time": 8.14, "midi_note": 69, "velocity": 94}, {"onset_time": 7.925056, "offset_time": 8.16, "midi_note": 52, "velocity": 78}, {"onset_time": 7.9252343, "offset_time": 9.98, "midi_note": 40, "velocity": 82}, {"onset_time": 7.934899, "offset_time": 8.15, "midi_note": 57, "velocity": 76}, {"onset_time": 7.9442263, "offset_time": 8.16, "midi_note": 66, "velocity": 74}, {"onset_time": 7.944631, "offset_time": 8.16, "midi_note": 59, "velocity": 76}, {"onset_time": 8.147018, "offset_time": 8.38, "midi_note": 69, "velocity": 79}, {"onset_time": 8.160047, "offset_time": 8.38, "midi_note": 57, "velocity": 71}, {"onset_time": 8.1665, "offset_time": 8.62, "midi_note": 66, "velocity": 71}, {"onset_time": 8.167314, "offset_time": 8.38, "midi_note": 52, "velocity": 63}, {"onset_time": 8.173581, "offset_time": 8.37, "midi_note": 59, "velocity": 65}, {"onset_time": 8.181562, "offset_time": 8.39, "midi_note": 64, "velocity": 63}, {"onset_time": 8.384667, "offset_time": 8.66, "midi_note": 59, "velocity": 66}, {"onset_time": 8.386023, "offset_time": 8.63, "midi_note": 57, "velocity": 67}, {"onset_time": 8.38605, "offset_time": 8.62, "midi_note": 69, "velocity": 74}, {"onset_time": 8.394439, "offset_time": 8.64, "midi_note": 52, "velocity": 58}, {"onset_time": 8.402614, "offset_time": 8.64, "midi_note": 64, "velocity": 69}, {"onset_time": 8.633146, "offset_time": 8.84, "midi_note": 69, "velocity": 82}, {"onset_time": 8.634929, "offset_time": 9.08, "midi_note": 66, "velocity": 76}, {"onset_time": 8.640895, "offset_time": 8.82, "midi_note": 57, "velocity": 73}, {"onset_time": 8.646179, "offset_time": 8.85, "midi_note": 64, "velocity": 57}, {"onset_time": 8.64823, "offset_time": 8.83, "midi_note": 52, "velocity": 50}, {"onset_time": 8.667361, "offset_time": 8.83, "midi_note": 59, "velocity": 42}, {"onset_time": 8.830376, "offset_time": 9.08, "midi_note": 57, "velocity": 74}, {"onset_time": 8.836239, "offset_time": 9.990108, "midi_note": 59, "velocity": 62}, {"onset_time": 8.839108, "offset_time": 9.06, "midi_note": 52, "velocity": 64}, {"onset_time": 8.847461, "offset_time": 9.07, "midi_note": 69, "velocity": 87}, {"onset_time": 8.855143, "offset_time": 9.989355, "midi_note": 64, "velocity": 68}, {"onset_time": 9.067503, "offset_time": 9.52, "midi_note": 52, "velocity": 72}, {"onset_time": 9.076279, "offset_time": 9.991004, "midi_note": 69, "velocity": 90}, {"onset_time": 9.086725, "offset_time": 9.98952, "midi_note": 57, "velocity": 62}, {"onset_time": 9.0876875, "offset_time": 9.988106, "midi_note": 66, "velocity": 86}, {"onset_time": 9.286091, "offset_time": 9.75, "midi_note": 47, "velocity": 95}, {"onset_time": 9.524541, "offset_time": 9.988626, "midi_note": 81, "velocity": 112}, {"onset_time": 9.524738, "offset_time": 9.988287, "midi_note": 93, "velocity": 111}, {"onset_time": 9.5325985, "offset_time": 10.02, "midi_note": 52, "velocity": 88}, {"onset_time": 9.763989, "offset_time": 9.98826, "midi_note": 47, "velocity": 88}, {"onset_time": 9.989408, "offset_time": 11.655437, "midi_note": 92, "velocity": 110}, {"onset_time": 9.992101, "offset_time": 11.658347, "midi_note": 80, "velocity": 103}, {"onset_time": 9.9949665, "offset_time": 10.48, "midi_note": 40, "velocity": 90}, {"onset_time": 9.994988, "offset_time": 11.65, "midi_note": 83, "velocity": 99}, {"onset_time": 9.995592, "offset_time": 10.056671, "midi_note": 28, "velocity": 91}, {"onset_time": 9.9991455, "offset_time": 11.65, "midi_note": 88, "velocity": 86}, {"onset_time": 10.263004, "offset_time": 10.48, "midi_note": 71, "velocity": 87}, {"onset_time": 10.265729, "offset_time": 10.49, "midi_note": 68, "velocity": 85}, {"onset_time": 10.266394, "offset_time": 10.5, "midi_note": 59, "velocity": 71}, {"onset_time": 10.267416, "offset_time": 10.71, "midi_note": 52, "velocity": 72}, {"onset_time": 10.269914, "offset_time": 10.5, "midi_note": 64, "velocity": 64}, {"onset_time": 10.491504, "offset_time": 10.71, "midi_note": 40, "velocity": 59}, {"onset_time": 10.494, "offset_time": 10.71, "midi_note": 71, "velocity": 85}, {"onset_time": 10.495912, "offset_time": 10.72, "midi_note": 68, "velocity": 78}, {"onset_time": 10.5070715, "offset_time": 10.72, "midi_note": 64, "velocity": 63}, {"onset_time": 10.512287, "offset_time": 10.72, "midi_note": 59, "velocity": 66}, {"onset_time": 10.716669, "offset_time": 10.93, "midi_note": 71, "velocity": 85}, {"onset_time": 10.718194, "offset_time": 11.64, "midi_note": 40, "velocity": 60}, {"onset_time": 10.72316, "offset_time": 10.94, "midi_note": 52, "velocity": 65}, {"onset_time": 10.725547, "offset_time": 10.94, "midi_note": 68, "velocity": 73}, {"onset_time": 10.725956, "offset_time": 10.94, "midi_note": 64, "velocity": 69}, {"onset_time": 10.731247, "offset_time": 10.94, "midi_note": 59, "velocity": 69}, {"onset_time": 10.942973, "offset_time": 11.16, "midi_note": 71, "velocity": 85}, {"onset_time": 10.945767, "offset_time": 11.17, "midi_note": 64, "velocity": 79}, {"onset_time": 10.946012, "offset_time": 11.14, "midi_note": 59, "velocity": 75}, {"onset_time": 10.946575, "offset_time": 11.16, "midi_note": 68, "velocity": 81}, {"onset_time": 10.954266, "offset_time": 11.16, "midi_note": 52, "velocity": 72}, {"onset_time": 11.153517, "offset_time": 11.38, "midi_note": 59, "velocity": 71}, {"onset_time": 11.166935, "offset_time": 11.38, "midi_note": 52, "velocity": 63}, {"onset_time": 11.172496, "offset_time": 11.39, "midi_note": 71, "velocity": 79}, {"onset_time": 11.174896, "offset_time": 11.38, "midi_note": 68, "velocity": 83}, {"onset_time": 11.175413, "offset_time": 11.39, "midi_note": 64, "velocity": 67}, {"onset_time": 11.387953, "offset_time": 11.656942, "midi_note": 59, "velocity": 63}, {"onset_time": 11.393289, "offset_time": 11.659941, "midi_note": 52, "velocity": 57}, {"onset_time": 11.394422, "offset_time": 11.65835, "midi_note": 68, "velocity": 71}, {"onset_time": 11.395857, "offset_time": 11.65829, "midi_note": 71, "velocity": 71}, {"onset_time": 11.4012165, "offset_time": 11.660105, "midi_note": 64, "velocity": 57}, {"onset_time": 11.654907, "offset_time": 11.79, "midi_note": 40, "velocity": 84}, {"onset_time": 11.655233, "offset_time": 12.56, "midi_note": 88, "velocity": 106}, {"onset_time": 11.655568, "offset_time": 12.81, "midi_note": 81, "velocity": 99}, {"onset_time": 11.656089, "offset_time": 13.06, "midi_note": 76, "velocity": 105}, {"onset_time": 11.656648, "offset_time": 12.75, "midi_note": 83, "velocity": 95}, {"onset_time": 11.892482, "offset_time": 12.1, "midi_note": 69, "velocity": 90}, {"onset_time": 11.903185, "offset_time": 12.1, "midi_note": 59, "velocity": 69}, {"onset_time": 11.905327, "offset_time": 12.12, "midi_note": 64, "velocity": 70}, {"onset_time": 11.905771, "offset_time": 12.11, "midi_note": 66, "velocity": 78}, {"onset_time": 12.108208, "offset_time": 12.32, "midi_note": 59, "velocity": 72}, {"onset_time": 12.114929, "offset_time": 12.32, "midi_note": 69, "velocity": 90}, {"onset_time": 12.123629, "offset_time": 12.34, "midi_note": 66, "velocity": 74}, {"onset_time": 12.134994, "offset_time": 12.35, "midi_note": 64, "velocity": 65}, {"onset_time": 12.332724, "offset_time": 12.55, "midi_note": 69, "velocity": 92}, {"onset_time": 12.334364, "offset_time": 12.75, "midi_note": 59, "velocity": 71}, {"onset_time": 12.354363, "offset_time": 13.58, "midi_note": 66, "velocity": 66}, {"onset_time": 12.361492, "offset_time": 13.69, "midi_note": 64, "velocity": 66}, {"onset_time": 12.562611, "offset_time": 13.37, "midi_note": 69, "velocity": 91}, {"onset_time": 12.568195, "offset_time": 13.663184, "midi_note": 88, "velocity": 97}, {"onset_time": 12.626492, "offset_time": 13.662777, "midi_note": 87, "velocity": 95}, {"onset_time": 12.696787, "offset_time": 13.6633625, "midi_note": 85, "velocity": 100}, {"onset_time": 12.763786, "offset_time": 13.663508, "midi_note": 83, "velocity": 93}, {"onset_time": 12.764238, "offset_time": 13.69, "midi_note": 59, "velocity": 67}, {"onset_time": 12.819114, "offset_time": 13.662738, "midi_note": 81, "velocity": 95}, {"onset_time": 12.923783, "offset_time": 13.663003, "midi_note": 80, "velocity": 96}, {"onset_time": 13.0053215, "offset_time": 13.664238, "midi_note": 78, "velocity": 95}, {"onset_time": 13.010223, "offset_time": 13.44, "midi_note": 47, "velocity": 104}, {"onset_time": 13.072684, "offset_time": 13.663121, "midi_note": 76, "velocity": 84}, {"onset_time": 13.1474, "offset_time": 13.663367, "midi_note": 75, "velocity": 97}, {"onset_time": 13.235637, "offset_time": 13.662958, "midi_note": 73, "velocity": 102}, {"onset_time": 13.240186, "offset_time": 13.662393, "midi_note": 52, "velocity": 88}, {"onset_time": 13.303364, "offset_time": 13.68, "midi_note": 71, "velocity": 97}, {"onset_time": 13.376496, "offset_time": 13.6625185, "midi_note": 69, "velocity": 94}, {"onset_time": 13.445291, "offset_time": 13.662148, "midi_note": 47, "velocity": 95}, {"onset_time": 13.485884, "offset_time": 13.662801, "midi_note": 68, "velocity": 93}, {"onset_time": 13.593014, "offset_time": 13.663352, "midi_note": 66, "velocity": 93}, {"onset_time": 13.693556, "offset_time": 15.34, "midi_note": 40, "velocity": 94}, {"onset_time": 13.694685, "offset_time": 14.19, "midi_note": 71, "velocity": 103}, {"onset_time": 13.694704, "offset_time": 13.91, "midi_note": 28, "velocity": 95}, {"onset_time": 13.6957035, "offset_time": 15.35384, "midi_note": 59, "velocity": 100}, {"onset_time": 13.975923, "offset_time": 14.22, "midi_note": 56, "velocity": 76}, {"onset_time": 13.98457, "offset_time": 14.88, "midi_note": 52, "velocity": 69}, {"onset_time": 13.986356, "offset_time": 14.66, "midi_note": 78, "velocity": 82}, {"onset_time": 14.203299, "offset_time": 14.87, "midi_note": 71, "velocity": 75}, {"onset_time": 14.225832, "offset_time": 14.42, "midi_note": 56, "velocity": 49}, {"onset_time": 14.42479, "offset_time": 15.35, "midi_note": 76, "velocity": 84}, {"onset_time": 14.431383, "offset_time": 14.66, "midi_note": 56, "velocity": 73}, {"onset_time": 14.665152, "offset_time": 15.354752, "midi_note": 78, "velocity": 86}, {"onset_time": 14.672043, "offset_time": 14.88, "midi_note": 56, "velocity": 68}, {"onset_time": 14.878466, "offset_time": 15.81, "midi_note": 71, "velocity": 75}, {"onset_time": 14.885056, "offset_time": 15.12, "midi_note": 52, "velocity": 62}, {"onset_time": 14.886763, "offset_time": 15.12, "midi_note": 56, "velocity": 61}, {"onset_time": 15.127527, "offset_time": 15.35357, "midi_note": 56, "velocity": 76}, {"onset_time": 15.127934, "offset_time": 15.353542, "midi_note": 52, "velocity": 58}, {"onset_time": 15.350847, "offset_time": 16.48, "midi_note": 40, "velocity": 89}, {"onset_time": 15.356186, "offset_time": 16.03, "midi_note": 76, "velocity": 87}, {"onset_time": 15.592728, "offset_time": 15.81, "midi_note": 57, "velocity": 79}, {"onset_time": 15.593758, "offset_time": 16.26, "midi_note": 78, "velocity": 95}, {"onset_time": 15.594806, "offset_time": 16.03, "midi_note": 52, "velocity": 61}, {"onset_time": 15.823682, "offset_time": 16.49, "midi_note": 71, "velocity": 80}, {"onset_time": 15.824387, "offset_time": 16.03, "midi_note": 57, "velocity": 75}, {"onset_time": 16.040976, "offset_time": 17.386343, "midi_note": 76, "velocity": 84}, {"onset_time": 16.042828, "offset_time": 16.26, "midi_note": 57, "velocity": 66}, {"onset_time": 16.044737, "offset_time": 16.26, "midi_note": 52, "velocity": 61}, {"onset_time": 16.265545, "offset_time": 16.94, "midi_note": 52, "velocity": 65}, {"onset_time": 16.266035, "offset_time": 16.95, "midi_note": 57, "velocity": 66}, {"onset_time": 16.26734, "offset_time": 18.37, "midi_note": 78, "velocity": 91}, {"onset_time": 16.494175, "offset_time": 17.41, "midi_note": 40, "velocity": 62}, {"onset_time": 16.495369, "offset_time": 17.386127, "midi_note": 71, "velocity": 89}, {"onset_time": 16.70514, "offset_time": 17.17, "midi_note": 47, "velocity": 90}, {"onset_time": 16.954865, "offset_time": 17.5, "midi_note": 52, "velocity": 79}, {"onset_time": 16.955338, "offset_time": 17.385805, "midi_note": 57, "velocity": 99}, {"onset_time": 16.95539, "offset_time": 17.386744, "midi_note": 69, "velocity": 102}, {"onset_time": 17.175684, "offset_time": 17.38584, "midi_note": 47, "velocity": 89}, {"onset_time": 17.423717, "offset_time": 19.05, "midi_note": 40, "velocity": 86}, {"onset_time": 17.423807, "offset_time": 19.05558, "midi_note": 68, "velocity": 106}, {"onset_time": 17.424875, "offset_time": 19.055334, "midi_note": 56, "velocity": 101}, {"onset_time": 17.426058, "offset_time": 19.1, "midi_note": 28, "velocity": 94}, {"onset_time": 17.683664, "offset_time": 17.89, "midi_note": 59, "velocity": 79}, {"onset_time": 17.897491, "offset_time": 18.14, "midi_note": 59, "velocity": 80}, {"onset_time": 17.903862, "offset_time": 18.59, "midi_note": 71, "velocity": 82}, {"onset_time": 18.14605, "offset_time": 19.05, "midi_note": 76, "velocity": 81}, {"onset_time": 18.151232, "offset_time": 18.37, "midi_note": 52, "velocity": 62}, {"onset_time": 18.151897, "offset_time": 18.37, "midi_note": 59, "velocity": 77}, {"onset_time": 18.37709, "offset_time": 18.82, "midi_note": 52, "velocity": 59}, {"onset_time": 18.382713, "offset_time": 18.59, "midi_note": 59, "velocity": 67}, {"onset_time": 18.384577, "offset_time": 19.055584, "midi_note": 78, "velocity": 84}, {"onset_time": 18.603256, "offset_time": 19.05, "midi_note": 71, "velocity": 82}, {"onset_time": 18.604992, "offset_time": 18.82, "midi_note": 59, "velocity": 79}, {"onset_time": 18.833698, "offset_time": 19.054909, "midi_note": 52, "velocity": 73}, {"onset_time": 18.834402, "offset_time": 19.05467, "midi_note": 59, "velocity": 79}, {"onset_time": 19.055685, "offset_time": 20.37, "midi_note": 69, "velocity": 97}, {"onset_time": 19.056503, "offset_time": 20.34, "midi_note": 64, "velocity": 91}, {"onset_time": 19.05789, "offset_time": 19.21, "midi_note": 40, "velocity": 74}, {"onset_time": 19.059322, "offset_time": 19.51, "midi_note": 71, "velocity": 92}, {"onset_time": 19.060146, "offset_time": 19.74, "midi_note": 76, "velocity": 93}, {"onset_time": 19.288752, "offset_time": 19.96, "midi_note": 52, "velocity": 62}, {"onset_time": 19.291697, "offset_time": 19.51, "midi_note": 57, "velocity": 76}, {"onset_time": 19.292894, "offset_time": 19.95, "midi_note": 78, "velocity": 86}, {"onset_time": 19.516073, "offset_time": 20.17, "midi_note": 71, "velocity": 84}, {"onset_time": 19.517757, "offset_time": 19.74, "midi_note": 57, "velocity": 63}, {"onset_time": 19.745302, "offset_time": 19.96, "midi_note": 57, "velocity": 75}, {"onset_time": 19.74604, "offset_time": 20.56, "midi_note": 76, "velocity": 92}, {"onset_time": 19.964338, "offset_time": 21.605827, "midi_note": 78, "velocity": 96}, {"onset_time": 19.968529, "offset_time": 20.23, "midi_note": 57, "velocity": 76}, {"onset_time": 19.96969, "offset_time": 20.17, "midi_note": 52, "velocity": 60}, {"onset_time": 20.17925, "offset_time": 20.45, "midi_note": 71, "velocity": 92}, {"onset_time": 20.180813, "offset_time": 21.605024, "midi_note": 52, "velocity": 67}, {"onset_time": 20.24307, "offset_time": 21.62, "midi_note": 57, "velocity": 81}, {"onset_time": 20.291744, "offset_time": 21.605124, "midi_note": 59, "velocity": 83}, {"onset_time": 20.34708, "offset_time": 21.63, "midi_note": 64, "velocity": 78}, {"onset_time": 20.376936, "offset_time": 21.604727, "midi_note": 69, "velocity": 90}, {"onset_time": 20.457438, "offset_time": 23.54, "midi_note": 71, "velocity": 96}, {"onset_time": 20.566463, "offset_time": 21.48, "midi_note": 76, "velocity": 98}, {"onset_time": 20.656666, "offset_time": 21.605383, "midi_note": 81, "velocity": 100}, {"onset_time": 20.65974, "offset_time": 21.60513, "midi_note": 47, "velocity": 97}, {"onset_time": 20.74742, "offset_time": 21.604736, "midi_note": 83, "velocity": 94}, {"onset_time": 20.847244, "offset_time": 21.604256, "midi_note": 88, "velocity": 102}, {"onset_time": 20.94252, "offset_time": 21.60458, "midi_note": 93, "velocity": 101}, {"onset_time": 21.037046, "offset_time": 21.60502, "midi_note": 95, "velocity": 106}, {"onset_time": 21.331179, "offset_time": 25.335873, "midi_note": 40, "velocity": 77}, {"onset_time": 21.414343, "offset_time": 23.4, "midi_note": 68, "velocity": 80}, {"onset_time": 21.489445, "offset_time": 25.37, "midi_note": 76, "velocity": 84}, {"onset_time": 21.55369, "offset_time": 24.28, "midi_note": 80, "velocity": 99}, {"onset_time": 21.810368, "offset_time": 25.334944, "midi_note": 47, "velocity": 70}, {"onset_time": 21.954279, "offset_time": 25.335049, "midi_note": 52, "velocity": 64}, {"onset_time": 22.122316, "offset_time": 25.33535, "midi_note": 54, "velocity": 75}, {"onset_time": 22.265371, "offset_time": 24.9, "midi_note": 56, "velocity": 76}, {"onset_time": 22.404583, "offset_time": 22.69, "midi_note": 59, "velocity": 79}, {"onset_time": 22.556087, "offset_time": 22.83, "midi_note": 64, "velocity": 88}, {"onset_time": 22.699955, "offset_time": 24.58, "midi_note": 59, "velocity": 70}, {"onset_time": 22.835073, "offset_time": 23.13, "midi_note": 64, "velocity": 69}, {"onset_time": 22.9788, "offset_time": 23.26, "midi_note": 66, "velocity": 90}, {"onset_time": 23.138191, "offset_time": 23.99, "midi_note": 64, "velocity": 75}, {"onset_time": 23.274008, "offset_time": 23.68, "midi_note": 66, "velocity": 77}, {"onset_time": 23.413736, "offset_time": 23.84, "midi_note": 68, "velocity": 92}, {"onset_time": 23.546331, "offset_time": 25.336142, "midi_note": 71, "velocity": 88}, {"onset_time": 23.688932, "offset_time": 24.12, "midi_note": 66, "velocity": 84}, {"onset_time": 23.845928, "offset_time": 25.335793, "midi_note": 68, "velocity": 90}, {"onset_time": 23.850292, "offset_time": 25.34, "midi_note": 78, "velocity": 92}, {"onset_time": 23.997246, "offset_time": 24.42, "midi_note": 64, "velocity": 80}, {"onset_time": 24.132898, "offset_time": 25.336674, "midi_note": 66, "velocity": 88}, {"onset_time": 24.287683, "offset_time": 24.74, "midi_note": 61, "velocity": 89}, {"onset_time": 24.288328, "offset_time": 25.335888, "midi_note": 80, "velocity": 98}, {"onset_time": 24.434841, "offset_time": 25.36, "midi_note": 64, "velocity": 84}, {"onset_time": 24.593618, "offset_time": 25.03, "midi_note": 59, "velocity": 86}, {"onset_time": 24.74601, "offset_time": 25.335966, "midi_note": 61, "velocity": 86}, {"onset_time": 24.753714, "offset_time": 25.33692, "midi_note": 83, "velocity": 99}, {"onset_time": 24.90869, "offset_time": 25.335068, "midi_note": 56, "velocity": 85}, {"onset_time": 25.043152, "offset_time": 25.335165, "midi_note": 59, "velocity": 80}, {"onset_time": 25.17059, "offset_time": 27.16, "midi_note": 69, "velocity": 76}, {"onset_time": 25.231726, "offset_time": 28.93, "midi_note": 73, "velocity": 92}, {"onset_time": 25.320732, "offset_time": 29.33635, "midi_note": 45, "velocity": 76}, {"onset_time": 25.346424, "offset_time": 26.21, "midi_note": 78, "velocity": 89}, {"onset_time": 25.483082, "offset_time": 28.24, "midi_note": 52, "velocity": 68}, {"onset_time": 25.627716, "offset_time": 25.93, "midi_note": 57, "velocity": 83}, {"onset_time": 25.786642, "offset_time": 26.08, "midi_note": 59, "velocity": 77}, {"onset_time": 25.790905, "offset_time": 27.09, "midi_note": 76, "velocity": 92}, {"onset_time": 25.938034, "offset_time": 28.41, "midi_note": 57, "velocity": 80}, {"onset_time": 26.09352, "offset_time": 26.39, "midi_note": 59, "velocity": 73}, {"onset_time": 26.224054, "offset_time": 27.16, "midi_note": 78, "velocity": 102}, {"onset_time": 26.255203, "offset_time": 26.53, "midi_note": 61, "velocity": 84}, {"onset_time": 26.39542, "offset_time": 27.94, "midi_note": 59, "velocity": 75}, {"onset_time": 26.53766, "offset_time": 26.81, "midi_note": 61, "velocity": 80}, {"onset_time": 26.658714, "offset_time": 26.77, "midi_note": 83, "velocity": 96}, {"onset_time": 26.674105, "offset_time": 26.95, "midi_note": 64, "velocity": 91}, {"onset_time": 26.71151, "offset_time": 29.336647, "midi_note": 85, "velocity": 92}, {"onset_time": 26.7774, "offset_time": 29.336851, "midi_note": 83, "velocity": 97}, {"onset_time": 26.823343, "offset_time": 27.65, "midi_note": 61, "velocity": 70}, {"onset_time": 26.960865, "offset_time": 27.32, "midi_note": 64, "velocity": 70}, {"onset_time": 27.095383, "offset_time": 27.22, "midi_note": 76, "velocity": 94}, {"onset_time": 27.166294, "offset_time": 29.337475, "midi_note": 78, "velocity": 96}, {"onset_time": 27.174616, "offset_time": 29.35, "midi_note": 69, "velocity": 94}, {"onset_time": 27.23136, "offset_time": 29.18, "midi_note": 76, "velocity": 83}, {"onset_time": 27.329184, "offset_time": 27.8, "midi_note": 64, "velocity": 72}, {"onset_time": 27.491003, "offset_time": 29.336166, "midi_note": 66, "velocity": 87}, {"onset_time": 27.657568, "offset_time": 28.09, "midi_note": 61, "velocity": 73}, {"onset_time": 27.811089, "offset_time": 29.33667, "midi_note": 64, "velocity": 81}, {"onset_time": 27.951862, "offset_time": 29.335777, "midi_note": 59, "velocity": 82}, {"onset_time": 28.100155, "offset_time": 29.336508, "midi_note": 61, "velocity": 77}, {"onset_time": 28.245714, "offset_time": 28.74, "midi_note": 52, "velocity": 75}, {"onset_time": 28.416992, "offset_time": 29.335966, "midi_note": 57, "velocity": 80}, {"onset_time": 28.565392, "offset_time": 28.9, "midi_note": 47, "velocity": 91}, {"onset_time": 28.745348, "offset_time": 29.337133, "midi_note": 52, "velocity": 89}, {"onset_time": 28.90634, "offset_time": 29.33654, "midi_note": 47, "velocity": 82}, {"onset_time": 28.93734, "offset_time": 29.336914, "midi_note": 73, "velocity": 97}, {"onset_time": 29.109522, "offset_time": 31.28, "midi_note": 71, "velocity": 89}, {"onset_time": 29.192442, "offset_time": 32.59, "midi_note": 76, "velocity": 85}, {"onset_time": 29.2662, "offset_time": 32.5, "midi_note": 40, "velocity": 78}, {"onset_time": 29.299238, "offset_time": 31.62, "midi_note": 80, "velocity": 101}, {"onset_time": 29.519144, "offset_time": 32.5, "midi_note": 47, "velocity": 77}, {"onset_time": 29.666636, "offset_time": 33.063366, "midi_note": 52, "velocity": 72}, {"onset_time": 29.82045, "offset_time": 33.066044, "midi_note": 54, "velocity": 77}, {"onset_time": 29.981556, "offset_time": 32.66, "midi_note": 56, "velocity": 75}, {"onset_time": 30.10225, "offset_time": 30.39, "midi_note": 59, "velocity": 84}, {"onset_time": 30.24613, "offset_time": 30.54, "midi_note": 64, "velocity": 91}, {"onset_time": 30.40423, "offset_time": 32.36, "midi_note": 59, "velocity": 76}, {"onset_time": 30.553808, "offset_time": 30.83, "midi_note": 64, "velocity": 72}, {"onset_time": 30.683725, "offset_time": 30.99, "midi_note": 66, "velocity": 94}, {"onset_time": 30.840244, "offset_time": 31.77, "midi_note": 64, "velocity": 78}, {"onset_time": 30.998549, "offset_time": 31.42, "midi_note": 66, "velocity": 87}, {"onset_time": 31.155262, "offset_time": 31.59, "midi_note": 68, "velocity": 98}, {"onset_time": 31.290493, "offset_time": 33.065365, "midi_note": 71, "velocity": 95}, {"onset_time": 31.433424, "offset_time": 31.91, "midi_note": 66, "velocity": 83}, {"onset_time": 31.565208, "offset_time": 31.68, "midi_note": 78, "velocity": 93}, {"onset_time": 31.602661, "offset_time": 33.08, "midi_note": 68, "velocity": 89}, {"onset_time": 31.628935, "offset_time": 32.06, "midi_note": 80, "velocity": 85}, {"onset_time": 31.693504, "offset_time": 33.05, "midi_note": 78, "velocity": 101}, {"onset_time": 31.783842, "offset_time": 32.2, "midi_note": 64, "velocity": 79}, {"onset_time": 31.916658, "offset_time": 33.066143, "midi_note": 66, "velocity": 88}, {"onset_time": 32.04823, "offset_time": 32.51, "midi_note": 61, "velocity": 87}, {"onset_time": 32.06562, "offset_time": 33.06534, "midi_note": 80, "velocity": 100}, {"onset_time": 32.21302, "offset_time": 33.064903, "midi_note": 64, "velocity": 89}, {"onset_time": 32.371666, "offset_time": 32.8, "midi_note": 59, "velocity": 82}, {"onset_time": 32.518345, "offset_time": 33.065086, "midi_note": 61, "velocity": 82}, {"onset_time": 32.52594, "offset_time": 33.06619, "midi_note": 83, "velocity": 100}, {"onset_time": 32.674606, "offset_time": 33.09, "midi_note": 56, "velocity": 88}, {"onset_time": 32.805252, "offset_time": 33.064667, "midi_note": 59, "velocity": 86}, {"onset_time": 32.92493, "offset_time": 34.82, "midi_note": 69, "velocity": 86}, {"onset_time": 32.978634, "offset_time": 36.49, "midi_note": 73, "velocity": 93}, {"onset_time": 33.06131, "offset_time": 36.812344, "midi_note": 45, "velocity": 78}, {"onset_time": 33.06472, "offset_time": 33.92, "midi_note": 78, "velocity": 92}, {"onset_time": 33.206745, "offset_time": 36.0, "midi_note": 52, "velocity": 75}, {"onset_time": 33.353867, "offset_time": 33.64, "midi_note": 57, "velocity": 72}, {"onset_time": 33.493404, "offset_time": 34.83, "midi_note": 76, "velocity": 96}, {"onset_time": 33.494514, "offset_time": 33.78, "midi_note": 59, "velocity": 75}, {"onset_time": 33.64718, "offset_time": 35.82, "midi_note": 57, "velocity": 84}, {"onset_time": 33.788456, "offset_time": 34.07, "midi_note": 59, "velocity": 67}, {"onset_time": 33.93215, "offset_time": 36.814556, "midi_note": 78, "velocity": 102}, {"onset_time": 33.933826, "offset_time": 34.21, "midi_note": 61, "velocity": 89}, {"onset_time": 34.081085, "offset_time": 36.81316, "midi_note": 59, "velocity": 75}, {"onset_time": 34.220547, "offset_time": 34.52, "midi_note": 61, "velocity": 81}, {"onset_time": 34.388752, "offset_time": 36.813786, "midi_note": 83, "velocity": 99}, {"onset_time": 34.389782, "offset_time": 34.68, "midi_note": 64, "velocity": 90}, {"onset_time": 34.52816, "offset_time": 35.53, "midi_note": 61, "velocity": 83}, {"onset_time": 34.68588, "offset_time": 34.96, "midi_note": 64, "velocity": 74}, {"onset_time": 34.8347, "offset_time": 36.83, "midi_note": 69, "velocity": 97}, {"onset_time": 34.83568, "offset_time": 36.81411, "midi_note": 76, "velocity": 89}, {"onset_time": 34.972908, "offset_time": 35.25, "midi_note": 64, "velocity": 73}, {"onset_time": 35.127975, "offset_time": 36.81436, "midi_note": 68, "velocity": 94}, {"onset_time": 35.25794, "offset_time": 35.67, "midi_note": 64, "velocity": 79}, {"onset_time": 35.406113, "offset_time": 36.813583, "midi_note": 66, "velocity": 95}, {"onset_time": 35.542797, "offset_time": 36.81327, "midi_note": 61, "velocity": 85}, {"onset_time": 35.681988, "offset_time": 36.81127, "midi_note": 64, "velocity": 91}, {"onset_time": 35.834732, "offset_time": 36.812866, "midi_note": 57, "velocity": 88}, {"onset_time": 36.008026, "offset_time": 36.32, "midi_note": 52, "velocity": 80}, {"onset_time": 36.1539, "offset_time": 36.49, "midi_note": 47, "velocity": 90}, {"onset_time": 36.328396, "offset_time": 36.813477, "midi_note": 52, "velocity": 80}, {"onset_time": 36.50224, "offset_time": 36.812717, "midi_note": 73, "velocity": 105}, {"onset_time": 36.504353, "offset_time": 40.67, "midi_note": 47, "velocity": 79}, {"onset_time": 36.728294, "offset_time": 40.662785, "midi_note": 44, "velocity": 93}, {"onset_time": 36.9151, "offset_time": 40.29, "midi_note": 52, "velocity": 76}, {"onset_time": 37.046383, "offset_time": 39.36, "midi_note": 59, "velocity": 86}, {"onset_time": 37.19456, "offset_time": 37.71, "midi_note": 76, "velocity": 100}, {"onset_time": 37.203762, "offset_time": 38.76, "midi_note": 64, "velocity": 92}, {"onset_time": 37.372673, "offset_time": 38.21, "midi_note": 68, "velocity": 92}, {"onset_time": 37.514145, "offset_time": 37.91, "midi_note": 71, "velocity": 92}, {"onset_time": 37.714504, "offset_time": 39.07, "midi_note": 88, "velocity": 105}, {"onset_time": 37.715046, "offset_time": 39.07, "midi_note": 76, "velocity": 100}, {"onset_time": 37.923763, "offset_time": 38.33, "midi_note": 71, "velocity": 87}, {"onset_time": 38.06241, "offset_time": 40.45, "midi_note": 73, "velocity": 91}, {"onset_time": 38.216385, "offset_time": 38.61, "midi_note": 68, "velocity": 80}, {"onset_time": 38.343822, "offset_time": 39.99, "midi_note": 71, "velocity": 92}, {"onset_time": 38.476562, "offset_time": 38.9, "midi_note": 66, "velocity": 85}, {"onset_time": 38.62306, "offset_time": 40.39, "midi_note": 68, "velocity": 94}, {"onset_time": 38.768787, "offset_time": 39.22, "midi_note": 64, "velocity": 81}, {"onset_time": 38.90636, "offset_time": 40.663757, "midi_note": 66, "velocity": 86}, {"onset_time": 39.076183, "offset_time": 40.6643, "midi_note": 88, "velocity": 106}, {"onset_time": 39.080185, "offset_time": 40.52, "midi_note": 76, "velocity": 97}, {"onset_time": 39.08149, "offset_time": 40.68, "midi_note": 80, "velocity": 98}, {"onset_time": 39.091873, "offset_time": 39.52, "midi_note": 61, "velocity": 88}, {"onset_time": 39.228497, "offset_time": 40.664707, "midi_note": 64, "velocity": 90}, {"onset_time": 39.36758, "offset_time": 39.8, "midi_note": 59, "velocity": 93}, {"onset_time": 39.525097, "offset_time": 40.665302, "midi_note": 61, "velocity": 90}, {"onset_time": 39.541683, "offset_time": 40.66448, "midi_note": 87, "velocity": 110}, {"onset_time": 39.54281, "offset_time": 39.99, "midi_note": 75, "velocity": 109}, {"onset_time": 39.683273, "offset_time": 40.14, "midi_note": 56, "velocity": 93}, {"onset_time": 39.813637, "offset_time": 40.663887, "midi_note": 59, "velocity": 91}, {"onset_time": 39.999855, "offset_time": 40.662952, "midi_note": 83, "velocity": 105}, {"onset_time": 40.002323, "offset_time": 40.661934, "midi_note": 54, "velocity": 96}, {"onset_time": 40.0045, "offset_time": 40.664364, "midi_note": 71, "velocity": 101}, {"onset_time": 40.004684, "offset_time": 40.69, "midi_note": 75, "velocity": 98}, {"onset_time": 40.152527, "offset_time": 40.68, "midi_note": 56, "velocity": 92}, {"onset_time": 40.301926, "offset_time": 40.78, "midi_note": 52, "velocity": 80}, {"onset_time": 40.40458, "offset_time": 40.68, "midi_note": 68, "velocity": 89}, {"onset_time": 40.46092, "offset_time": 42.93, "midi_note": 73, "velocity": 92}, {"onset_time": 40.53459, "offset_time": 41.18, "midi_note": 76, "velocity": 88}, {"onset_time": 40.646435, "offset_time": 44.13, "midi_note": 37, "velocity": 85}, {"onset_time": 40.665127, "offset_time": 40.68, "midi_note": 49, "velocity": 70}, {"onset_time": 40.68697, "offset_time": 43.82, "midi_note": 80, "velocity": 97}, {"onset_time": 40.69277, "offset_time": 42.51, "midi_note": 68, "velocity": 75}, {"onset_time": 41.0427, "offset_time": 43.66, "midi_note": 54, "velocity": 90}, {"onset_time": 41.188183, "offset_time": 43.53, "midi_note": 56, "velocity": 76}, {"onset_time": 41.188732, "offset_time": 43.83, "midi_note": 76, "velocity": 92}, {"onset_time": 41.33244, "offset_time": 41.76, "midi_note": 59, "velocity": 85}, {"onset_time": 41.478687, "offset_time": 44.41514, "midi_note": 63, "velocity": 81}, {"onset_time": 41.61531, "offset_time": 44.416374, "midi_note": 75, "velocity": 96}, {"onset_time": 41.62033, "offset_time": 41.9, "midi_note": 64, "velocity": 69}, {"onset_time": 41.772602, "offset_time": 43.37, "midi_note": 59, "velocity": 83}, {"onset_time": 41.91084, "offset_time": 42.21, "midi_note": 64, "velocity": 71}, {"onset_time": 42.07174, "offset_time": 43.36, "midi_note": 71, "velocity": 92}, {"onset_time": 42.07483, "offset_time": 42.36, "midi_note": 66, "velocity": 83}, {"onset_time": 42.22256, "offset_time": 42.8, "midi_note": 64, "velocity": 69}, {"onset_time": 42.37278, "offset_time": 42.67, "midi_note": 66, "velocity": 78}, {"onset_time": 42.516693, "offset_time": 43.82, "midi_note": 68, "velocity": 93}, {"onset_time": 42.682262, "offset_time": 42.94, "midi_note": 66, "velocity": 87}, {"onset_time": 42.80612, "offset_time": 43.1, "midi_note": 64, "velocity": 90}, {"onset_time": 42.94189, "offset_time": 44.42533, "midi_note": 85, "velocity": 106}, {"onset_time": 42.942364, "offset_time": 43.83, "midi_note": 73, "velocity": 107}, {"onset_time": 42.95275, "offset_time": 44.19, "midi_note": 66, "velocity": 93}, {"onset_time": 43.108704, "offset_time": 44.41695, "midi_note": 64, "velocity": 74}, {"onset_time": 43.24148, "offset_time": 44.4187, "midi_note": 61, "velocity": 90}, {"onset_time": 43.37237, "offset_time": 44.422367, "midi_note": 83, "velocity": 105}, {"onset_time": 43.37413, "offset_time": 44.421143, "midi_note": 71, "velocity": 101}, {"onset_time": 43.376087, "offset_time": 44.417362, "midi_note": 59, "velocity": 96}, {"onset_time": 43.536312, "offset_time": 44.416077, "midi_note": 56, "velocity": 90}, {"onset_time": 43.67228, "offset_time": 44.418705, "midi_note": 54, "velocity": 98}, {"onset_time": 43.832935, "offset_time": 44.84, "midi_note": 80, "velocity": 103}, {"onset_time": 43.834694, "offset_time": 44.417698, "midi_note": 68, "velocity": 104}, {"onset_time": 43.83533, "offset_time": 44.413906, "midi_note": 49, "velocity": 88}, {"onset_time": 43.83555, "offset_time": 44.422955, "midi_note": 76, "velocity": 92}, {"onset_time": 43.83679, "offset_time": 44.29, "midi_note": 73, "velocity": 101}, {"onset_time": 43.99487, "offset_time": 44.41498, "midi_note": 44, "velocity": 98}, {"onset_time": 44.13581, "offset_time": 45.91, "midi_note": 37, "velocity": 91}, {"onset_time": 44.20203, "offset_time": 45.47, "midi_note": 66, "velocity": 85}, {"onset_time": 44.247917, "offset_time": 45.91, "midi_note": 69, "velocity": 89}, {"onset_time": 44.295437, "offset_time": 45.16, "midi_note": 73, "velocity": 98}, {"onset_time": 44.424843, "offset_time": 44.84, "midi_note": 42, "velocity": 103}, {"onset_time": 44.427837, "offset_time": 46.37, "midi_note": 30, "velocity": 92}, {"onset_time": 44.4405, "offset_time": 45.46, "midi_note": 78, "velocity": 101}, {"onset_time": 44.848557, "offset_time": 46.7, "midi_note": 80, "velocity": 100}, {"onset_time": 44.85147, "offset_time": 45.01, "midi_note": 42, "velocity": 67}, {"onset_time": 44.8536, "offset_time": 47.55, "midi_note": 68, "velocity": 101}, {"onset_time": 45.014107, "offset_time": 45.91, "midi_note": 49, "velocity": 88}, {"onset_time": 45.018005, "offset_time": 46.37, "midi_note": 42, "velocity": 71}, {"onset_time": 45.164864, "offset_time": 47.27, "midi_note": 54, "velocity": 91}, {"onset_time": 45.16648, "offset_time": 46.06, "midi_note": 73, "velocity": 106}, {"onset_time": 45.167713, "offset_time": 45.61, "midi_note": 61, "velocity": 94}, {"onset_time": 45.473427, "offset_time": 47.27, "midi_note": 57, "velocity": 92}, {"onset_time": 45.47353, "offset_time": 46.98, "midi_note": 78, "velocity": 105}, {"onset_time": 45.475147, "offset_time": 45.75, "midi_note": 66, "velocity": 102}, {"onset_time": 45.624134, "offset_time": 47.04, "midi_note": 61, "velocity": 96}, {"onset_time": 45.763073, "offset_time": 46.83, "midi_note": 66, "velocity": 96}, {"onset_time": 45.916447, "offset_time": 46.83, "midi_note": 69, "velocity": 102}, {"onset_time": 45.916523, "offset_time": 47.47, "midi_note": 49, "velocity": 93}, {"onset_time": 45.91789, "offset_time": 51.92, "midi_note": 37, "velocity": 92}, {"onset_time": 46.06614, "offset_time": 47.55, "midi_note": 73, "velocity": 99}, {"onset_time": 46.21027, "offset_time": 47.27, "midi_note": 76, "velocity": 96}, {"onset_time": 46.376194, "offset_time": 48.26, "midi_note": 30, "velocity": 97}, {"onset_time": 46.376305, "offset_time": 47.93, "midi_note": 42, "velocity": 104}, {"onset_time": 46.379772, "offset_time": 46.83, "midi_note": 83, "velocity": 102}, {"onset_time": 46.5656, "offset_time": 48.249634, "midi_note": 85, "velocity": 100}, {"onset_time": 46.705147, "offset_time": 47.12, "midi_note": 80, "velocity": 88}, {"onset_time": 46.836407, "offset_time": 48.24815, "midi_note": 69, "velocity": 100}, {"onset_time": 46.841206, "offset_time": 48.24541, "midi_note": 83, "velocity": 97}, {"onset_time": 46.844147, "offset_time": 48.07, "midi_note": 66, "velocity": 86}, {"onset_time": 46.987064, "offset_time": 47.41, "midi_note": 78, "velocity": 95}, {"onset_time": 47.05076, "offset_time": 48.27, "midi_note": 61, "velocity": 92}, {"onset_time": 47.12846, "offset_time": 48.246265, "midi_note": 80, "velocity": 99}, {"onset_time": 47.277847, "offset_time": 48.244778, "midi_note": 57, "velocity": 100}, {"onset_time": 47.280365, "offset_time": 47.73, "midi_note": 54, "velocity": 97}, {"onset_time": 47.283287, "offset_time": 47.73, "midi_note": 76, "velocity": 101}, {"onset_time": 47.417282, "offset_time": 48.21, "midi_note": 78, "velocity": 105}, {"onset_time": 47.483818, "offset_time": 47.73, "midi_note": 49, "velocity": 88}, {"onset_time": 47.56184, "offset_time": 48.246754, "midi_note": 73, "velocity": 104}, {"onset_time": 47.73563, "offset_time": 48.244823, "midi_note": 54, "velocity": 100}, {"onset_time": 47.73569, "offset_time": 48.25281, "midi_note": 76, "velocity": 107}, {"onset_time": 47.736088, "offset_time": 48.246292, "midi_note": 64, "velocity": 101}, {"onset_time": 47.741154, "offset_time": 48.238686, "midi_note": 49, "velocity": 90}, {"onset_time": 47.93551, "offset_time": 49.72, "midi_note": 42, "velocity": 93}, {"onset_time": 48.08268, "offset_time": 48.24646, "midi_note": 66, "velocity": 88}, {"onset_time": 48.164948, "offset_time": 49.72, "midi_note": 71, "velocity": 91}, {"onset_time": 48.224957, "offset_time": 49.72, "midi_note": 78, "velocity": 109}, {"onset_time": 48.22516, "offset_time": 48.5, "midi_note": 47, "velocity": 106}, {"onset_time": 48.229958, "offset_time": 50.19, "midi_note": 35, "velocity": 90}, {"onset_time": 48.508617, "offset_time": 50.67, "midi_note": 47, "velocity": 94}, {"onset_time": 48.611393, "offset_time": 49.25, "midi_note": 80, "velocity": 107}, {"onset_time": 48.613773, "offset_time": 49.26, "midi_note": 68, "velocity": 108}, {"onset_time": 48.770023, "offset_time": 50.67, "midi_note": 57, "velocity": 100}, {"onset_time": 48.771603, "offset_time": 49.01, "midi_note": 54, "velocity": 95}, {"onset_time": 48.975296, "offset_time": 49.26, "midi_note": 73, "velocity": 107}, {"onset_time": 48.976135, "offset_time": 49.26, "midi_note": 61, "velocity": 92}, {"onset_time": 49.015144, "offset_time": 49.46, "midi_note": 54, "velocity": 94}, {"onset_time": 49.256065, "offset_time": 50.92, "midi_note": 80, "velocity": 105}, {"onset_time": 49.26503, "offset_time": 50.37, "midi_note": 68, "velocity": 104}, {"onset_time": 49.265133, "offset_time": 50.6, "midi_note": 73, "velocity": 106}, {"onset_time": 49.26515, "offset_time": 50.22, "midi_note": 64, "velocity": 98}, {"onset_time": 49.26741, "offset_time": 50.76, "midi_note": 76, "velocity": 98}, {"onset_time": 49.270096, "offset_time": 50.07, "midi_note": 61, "velocity": 97}, {"onset_time": 49.472187, "offset_time": 49.72, "midi_note": 54, "velocity": 97}, {"onset_time": 49.730965, "offset_time": 52.24, "midi_note": 42, "velocity": 103}, {"onset_time": 49.733116, "offset_time": 50.84, "midi_note": 78, "velocity": 111}, {"onset_time": 49.734283, "offset_time": 50.53, "midi_note": 71, "velocity": 90}, {"onset_time": 49.73446, "offset_time": 50.67, "midi_note": 54, "velocity": 110}, {"onset_time": 49.734806, "offset_time": 50.31, "midi_note": 66, "velocity": 110}, {"onset_time": 49.73549, "offset_time": 50.66, "midi_note": 75, "velocity": 88}, {"onset_time": 49.998848, "offset_time": 51.14, "midi_note": 59, "velocity": 86}, {"onset_time": 50.080177, "offset_time": 52.25, "midi_note": 61, "velocity": 95}, {"onset_time": 50.149242, "offset_time": 51.85, "midi_note": 63, "velocity": 93}, {"onset_time": 50.19501, "offset_time": 52.28, "midi_note": 35, "velocity": 103}, {"onset_time": 50.234055, "offset_time": 51.13, "midi_note": 64, "velocity": 99}, {"onset_time": 50.32158, "offset_time": 52.25, "midi_note": 66, "velocity": 96}, {"onset_time": 50.384468, "offset_time": 52.29, "midi_note": 68, "velocity": 96}, {"onset_time": 50.46797, "offset_time": 52.27, "midi_note": 69, "velocity": 98}, {"onset_time": 50.538715, "offset_time": 51.13, "midi_note": 71, "velocity": 96}, {"onset_time": 50.61019, "offset_time": 52.25, "midi_note": 73, "velocity": 99}, {"onset_time": 50.673958, "offset_time": 51.85, "midi_note": 75, "velocity": 86}, {"onset_time": 50.67886, "offset_time": 52.27, "midi_note": 47, "velocity": 91}, {"onset_time": 50.683727, "offset_time": 51.14, "midi_note": 54, "velocity": 89}, {"onset_time": 50.68437, "offset_time": 51.14, "midi_note": 57, "velocity": 104}, {"onset_time": 50.770096, "offset_time": 51.14, "midi_note": 76, "velocity": 98}, {"onset_time": 50.84703, "offset_time": 51.15, "midi_note": 78, "velocity": 101}, {"onset_time": 50.934517, "offset_time": 54.08, "midi_note": 80, "velocity": 97}, {"onset_time": 51.012688, "offset_time": 51.85, "midi_note": 81, "velocity": 101}, {"onset_time": 51.13894, "offset_time": 52.223255, "midi_note": 71, "velocity": 106}, {"onset_time": 51.144382, "offset_time": 51.52, "midi_note": 64, "velocity": 102}, {"onset_time": 51.145283, "offset_time": 51.52, "midi_note": 59, "velocity": 106}, {"onset_time": 51.147243, "offset_time": 52.222656, "midi_note": 57, "velocity": 104}, {"onset_time": 51.147877, "offset_time": 51.85, "midi_note": 83, "velocity": 103}, {"onset_time": 51.148735, "offset_time": 51.52, "midi_note": 54, "velocity": 94}, {"onset_time": 51.15127, "offset_time": 51.51, "midi_note": 76, "velocity": 103}, {"onset_time": 51.158848, "offset_time": 52.220898, "midi_note": 78, "velocity": 93}, {"onset_time": 51.52441, "offset_time": 52.21, "midi_note": 76, "velocity": 109}, {"onset_time": 51.525433, "offset_time": 52.22269, "midi_note": 64, "velocity": 104}, {"onset_time": 51.52555, "offset_time": 52.21, "midi_note": 88, "velocity": 110}, {"onset_time": 51.525562, "offset_time": 51.86, "midi_note": 59, "velocity": 93}, {"onset_time": 51.53249, "offset_time": 51.85, "midi_note": 54, "velocity": 87}, {"onset_time": 51.856415, "offset_time": 52.22308, "midi_note": 63, "velocity": 104}, {"onset_time": 51.85678, "offset_time": 52.224194, "midi_note": 75, "velocity": 107}, {"onset_time": 51.859222, "offset_time": 52.2, "midi_note": 83, "velocity": 100}, {"onset_time": 51.85997, "offset_time": 52.22232, "midi_note": 87, "velocity": 109}, {"onset_time": 51.86265, "offset_time": 52.21, "midi_note": 81, "velocity": 106}, {"onset_time": 51.863503, "offset_time": 52.22132, "midi_note": 54, "velocity": 86}, {"onset_time": 51.870346, "offset_time": 52.222263, "midi_note": 59, "velocity": 79}, {"onset_time": 52.21495, "offset_time": 55.99, "midi_note": 83, "velocity": 103}, {"onset_time": 52.21527, "offset_time": 55.97, "midi_note": 88, "velocity": 107}, {"onset_time": 52.215275, "offset_time": 53.16, "midi_note": 76, "velocity": 109}, {"onset_time": 52.215637, "offset_time": 53.6, "midi_note": 81, "velocity": 104}, {"onset_time": 52.21627, "offset_time": 55.97, "midi_note": 28, "velocity": 90}, {"onset_time": 52.218243, "offset_time": 52.48, "midi_note": 40, "velocity": 80}, {"onset_time": 52.227234, "offset_time": 55.58, "midi_note": 86, "velocity": 90}, {"onset_time": 52.48618, "offset_time": 54.33, "midi_note": 40, "velocity": 82}, {"onset_time": 52.72552, "offset_time": 55.977924, "midi_note": 47, "velocity": 90}, {"onset_time": 52.72651, "offset_time": 53.39, "midi_note": 52, "velocity": 93}, {"onset_time": 52.72955, "offset_time": 53.16, "midi_note": 69, "velocity": 100}, {"onset_time": 52.733032, "offset_time": 53.15, "midi_note": 64, "velocity": 97}, {"onset_time": 52.733604, "offset_time": 53.61, "midi_note": 66, "velocity": 94}, {"onset_time": 53.164417, "offset_time": 53.61, "midi_note": 64, "velocity": 99}, {"onset_time": 53.165443, "offset_time": 53.61, "midi_note": 69, "velocity": 103}, {"onset_time": 53.16677, "offset_time": 53.83, "midi_note": 59, "velocity": 87}, {"onset_time": 53.16711, "offset_time": 54.08, "midi_note": 71, "velocity": 102}, {"onset_time": 53.16729, "offset_time": 55.97839, "midi_note": 57, "velocity": 92}, {"onset_time": 53.168648, "offset_time": 53.61, "midi_note": 76, "velocity": 99}, {"onset_time": 53.39545, "offset_time": 54.33, "midi_note": 52, "velocity": 74}, {"onset_time": 53.614338, "offset_time": 55.99, "midi_note": 81, "velocity": 106}, {"onset_time": 53.616833, "offset_time": 55.02, "midi_note": 69, "velocity": 104}, {"onset_time": 53.618534, "offset_time": 54.33, "midi_note": 76, "velocity": 104}, {"onset_time": 53.620716, "offset_time": 54.79, "midi_note": 64, "velocity": 104}, {"onset_time": 53.622234, "offset_time": 55.03, "midi_note": 66, "velocity": 97}, {"onset_time": 53.84341, "offset_time": 55.04, "midi_note": 59, "velocity": 91}, {"onset_time": 54.085068, "offset_time": 54.57, "midi_note": 80, "velocity": 105}, {"onset_time": 54.08613, "offset_time": 54.34, "midi_note": 71, "velocity": 103}, {"onset_time": 54.3397, "offset_time": 56.0, "midi_note": 52, "velocity": 86}, {"onset_time": 54.34262, "offset_time": 55.99, "midi_note": 40, "velocity": 80}, {"onset_time": 54.344902, "offset_time": 54.79, "midi_note": 76, "velocity": 83}, {"onset_time": 54.345222, "offset_time": 54.79, "midi_note": 68, "velocity": 86}, {"onset_time": 54.345417, "offset_time": 54.57, "midi_note": 71, "velocity": 76}, {"onset_time": 54.579144, "offset_time": 55.979137, "midi_note": 80, "velocity": 91}, {"onset_time": 54.57945, "offset_time": 55.27, "midi_note": 71, "velocity": 81}, {"onset_time": 54.796047, "offset_time": 55.26, "midi_note": 68, "velocity": 82}, {"onset_time": 54.797016, "offset_time": 55.72, "midi_note": 64, "velocity": 92}, {"onset_time": 54.80299, "offset_time": 55.26, "midi_note": 76, "velocity": 85}, {"onset_time": 55.03278, "offset_time": 55.48, "midi_note": 78, "velocity": 96}, {"onset_time": 55.03432, "offset_time": 55.48, "midi_note": 69, "velocity": 89}, {"onset_time": 55.035862, "offset_time": 55.49, "midi_note": 66, "velocity": 100}, {"onset_time": 55.040882, "offset_time": 55.979313, "midi_note": 56, "velocity": 72}, {"onset_time": 55.046436, "offset_time": 55.96, "midi_note": 59, "velocity": 70}, {"onset_time": 55.266754, "offset_time": 55.981083, "midi_note": 68, "velocity": 100}, {"onset_time": 55.27167, "offset_time": 55.72, "midi_note": 76, "velocity": 76}, {"onset_time": 55.275158, "offset_time": 55.72, "midi_note": 71, "velocity": 73}, {"onset_time": 55.493664, "offset_time": 56.0, "midi_note": 69, "velocity": 88}, {"onset_time": 55.494377, "offset_time": 55.979492, "midi_note": 78, "velocity": 99}, {"onset_time": 55.49508, "offset_time": 55.980064, "midi_note": 66, "velocity": 99}, {"onset_time": 55.728336, "offset_time": 55.980717, "midi_note": 71, "velocity": 79}, {"onset_time": 55.72915, "offset_time": 55.979797, "midi_note": 64, "velocity": 100}, {"onset_time": 55.73059, "offset_time": 55.980244, "midi_note": 76, "velocity": 92}, {"onset_time": 55.972248, "offset_time": 56.72, "midi_note": 42, "velocity": 95}, {"onset_time": 55.973415, "offset_time": 57.93, "midi_note": 59, "velocity": 94}, {"onset_time": 55.97424, "offset_time": 56.72, "midi_note": 54, "velocity": 90}, {"onset_time": 56.22889, "offset_time": 56.72, "midi_note": 73, "velocity": 90}, {"onset_time": 56.232265, "offset_time": 56.47, "midi_note": 69, "velocity": 80}, {"onset_time": 56.475914, "offset_time": 56.94, "midi_note": 61, "velocity": 98}, {"onset_time": 56.477337, "offset_time": 56.93, "midi_note": 71, "velocity": 91}, {"onset_time": 56.484093, "offset_time": 56.72, "midi_note": 69, "velocity": 74}, {"onset_time": 56.48559, "offset_time": 56.94, "midi_note": 76, "velocity": 85}, {"onset_time": 56.725468, "offset_time": 57.15, "midi_note": 69, "velocity": 83}, {"onset_time": 56.726875, "offset_time": 57.15, "midi_note": 73, "velocity": 90}, {"onset_time": 56.727417, "offset_time": 57.38, "midi_note": 54, "velocity": 82}, {"onset_time": 56.733353, "offset_time": 57.38, "midi_note": 42, "velocity": 73}, {"onset_time": 56.943623, "offset_time": 57.38, "midi_note": 71, "velocity": 97}, {"onset_time": 56.944405, "offset_time": 57.8945, "midi_note": 57, "velocity": 89}, {"onset_time": 56.9448, "offset_time": 57.89468, "midi_note": 64, "velocity": 99}, {"onset_time": 56.945225, "offset_time": 57.89254, "midi_note": 61, "velocity": 92}, {"onset_time": 56.945225, "offset_time": 57.38, "midi_note": 76, "velocity": 97}, {"onset_time": 57.159225, "offset_time": 57.62, "midi_note": 73, "velocity": 94}, {"onset_time": 57.162033, "offset_time": 57.89541, "midi_note": 69, "velocity": 91}, {"onset_time": 57.3869, "offset_time": 57.894764, "midi_note": 68, "velocity": 106}, {"onset_time": 57.388058, "offset_time": 57.894894, "midi_note": 76, "velocity": 102}, {"onset_time": 57.389114, "offset_time": 57.890083, "midi_note": 54, "velocity": 104}, {"onset_time": 57.391453, "offset_time": 58.1, "midi_note": 71, "velocity": 93}, {"onset_time": 57.392517, "offset_time": 57.89044, "midi_note": 42, "velocity": 102}, {"onset_time": 57.625095, "offset_time": 58.55, "midi_note": 73, "velocity": 93}, {"onset_time": 57.865795, "offset_time": 59.24, "midi_note": 47, "velocity": 107}, {"onset_time": 57.871605, "offset_time": 59.12, "midi_note": 78, "velocity": 110}, {"onset_time": 57.872932, "offset_time": 59.24, "midi_note": 35, "velocity": 97}, {"onset_time": 57.87364, "offset_time": 58.78, "midi_note": 66, "velocity": 104}, {"onset_time": 58.1086, "offset_time": 58.32, "midi_note": 75, "velocity": 87}, {"onset_time": 58.11198, "offset_time": 58.32, "midi_note": 71, "velocity": 67}, {"onset_time": 58.326366, "offset_time": 58.78, "midi_note": 71, "velocity": 86}, {"onset_time": 58.33093, "offset_time": 59.06, "midi_note": 75, "velocity": 87}, {"onset_time": 58.555744, "offset_time": 59.657722, "midi_note": 73, "velocity": 108}, {"onset_time": 58.55803, "offset_time": 59.6593, "midi_note": 54, "velocity": 95}, {"onset_time": 58.785217, "offset_time": 59.661423, "midi_note": 59, "velocity": 100}, {"onset_time": 58.785236, "offset_time": 58.98, "midi_note": 71, "velocity": 106}, {"onset_time": 58.785305, "offset_time": 59.658733, "midi_note": 63, "velocity": 95}, {"onset_time": 58.785683, "offset_time": 59.661488, "midi_note": 66, "velocity": 100}, {"onset_time": 58.99124, "offset_time": 59.65961, "midi_note": 71, "velocity": 90}, {"onset_time": 59.06969, "offset_time": 59.68, "midi_note": 75, "velocity": 94}, {"onset_time": 59.133175, "offset_time": 59.658363, "midi_note": 78, "velocity": 95}, {"onset_time": 59.245087, "offset_time": 59.660458, "midi_note": 83, "velocity": 104}, {"onset_time": 59.2472, "offset_time": 59.66001, "midi_note": 47, "velocity": 108}, {"onset_time": 59.25396, "offset_time": 59.662327, "midi_note": 35, "velocity": 99}, {"onset_time": 59.32163, "offset_time": 59.660522, "midi_note": 87, "velocity": 104}, {"onset_time": 59.386806, "offset_time": 59.661964, "midi_note": 90, "velocity": 107}, {"onset_time": 59.454395, "offset_time": 59.661514, "midi_note": 95, "velocity": 108}, {"onset_time": 59.772346, "offset_time": 61.650234, "midi_note": 73, "velocity": 109}, {"onset_time": 59.773403, "offset_time": 60.47, "midi_note": 76, "velocity": 102}, {"onset_time": 59.77415, "offset_time": 61.647728, "midi_note": 85, "velocity": 109}, {"onset_time": 59.774487, "offset_time": 61.66, "midi_note": 33, "velocity": 88}, {"onset_time": 59.77544, "offset_time": 61.653645, "midi_note": 45, "velocity": 99}, {"onset_time": 60.025047, "offset_time": 61.15, "midi_note": 57, "velocity": 87}, {"onset_time": 60.23795, "offset_time": 61.645596, "midi_note": 59, "velocity": 85}, {"onset_time": 60.472897, "offset_time": 60.71, "midi_note": 68, "velocity": 99}, {"onset_time": 60.473667, "offset_time": 61.65008, "midi_note": 83, "velocity": 104}, {"onset_time": 60.475502, "offset_time": 61.63, "midi_note": 71, "velocity": 100}, {"onset_time": 60.477024, "offset_time": 61.63, "midi_note": 76, "velocity": 97}, {"onset_time": 60.47994, "offset_time": 61.14, "midi_note": 61, "velocity": 69}, {"onset_time": 60.48424, "offset_time": 61.15, "midi_note": 64, "velocity": 78}, {"onset_time": 60.715595, "offset_time": 61.63, "midi_note": 80, "velocity": 102}, {"onset_time": 60.724648, "offset_time": 61.63, "midi_note": 68, "velocity": 91}, {"onset_time": 60.93937, "offset_time": 61.39, "midi_note": 52, "velocity": 84}, {"onset_time": 61.154743, "offset_time": 61.648468, "midi_note": 61, "velocity": 94}, {"onset_time": 61.155556, "offset_time": 61.648663, "midi_note": 64, "velocity": 88}, {"onset_time": 61.156918, "offset_time": 61.647995, "midi_note": 57, "velocity": 82}, {"onset_time": 61.401726, "offset_time": 62.36, "midi_note": 78, "velocity": 103}, {"onset_time": 61.402454, "offset_time": 61.64873, "midi_note": 52, "velocity": 70}, {"onset_time": 61.40478, "offset_time": 61.649708, "midi_note": 66, "velocity": 96}, {"onset_time": 61.63509, "offset_time": 62.44, "midi_note": 80, "velocity": 102}, {"onset_time": 61.63698, "offset_time": 61.77, "midi_note": 40, "velocity": 84}, {"onset_time": 61.637352, "offset_time": 63.42, "midi_note": 71, "velocity": 96}, {"onset_time": 61.641953, "offset_time": 62.34, "midi_note": 68, "velocity": 104}, {"onset_time": 61.643833, "offset_time": 62.61, "midi_note": 76, "velocity": 85}, {"onset_time": 61.891987, "offset_time": 63.536617, "midi_note": 52, "velocity": 89}, {"onset_time": 62.12672, "offset_time": 62.85, "midi_note": 59, "velocity": 95}, {"onset_time": 62.354485, "offset_time": 63.18, "midi_note": 66, "velocity": 90}, {"onset_time": 62.35458, "offset_time": 63.3, "midi_note": 68, "velocity": 92}, {"onset_time": 62.35478, "offset_time": 63.08, "midi_note": 64, "velocity": 90}, {"onset_time": 62.37332, "offset_time": 62.51, "midi_note": 78, "velocity": 88}, {"onset_time": 62.454105, "offset_time": 63.53705, "midi_note": 80, "velocity": 90}, {"onset_time": 62.51512, "offset_time": 63.53783, "midi_note": 78, "velocity": 94}, {"onset_time": 62.61604, "offset_time": 63.538773, "midi_note": 76, "velocity": 102}, {"onset_time": 62.856194, "offset_time": 63.3, "midi_note": 59, "velocity": 96}, {"onset_time": 63.086533, "offset_time": 63.537197, "midi_note": 56, "velocity": 88}, {"onset_time": 63.087437, "offset_time": 63.538486, "midi_note": 64, "velocity": 97}, {"onset_time": 63.18948, "offset_time": 63.536854, "midi_note": 66, "velocity": 97}, {"onset_time": 63.306908, "offset_time": 63.537148, "midi_note": 59, "velocity": 91}, {"onset_time": 63.31223, "offset_time": 63.537243, "midi_note": 68, "velocity": 99}, {"onset_time": 63.434265, "offset_time": 63.538044, "midi_note": 71, "velocity": 97}, {"onset_time": 63.555584, "offset_time": 64.48066, "midi_note": 73, "velocity": 110}, {"onset_time": 63.555733, "offset_time": 64.49, "midi_note": 45, "velocity": 100}, {"onset_time": 63.55583, "offset_time": 63.613228, "midi_note": 33, "velocity": 85}, {"onset_time": 63.55622, "offset_time": 64.25516, "midi_note": 69, "velocity": 93}, {"onset_time": 63.5573, "offset_time": 64.47841, "midi_note": 61, "velocity": 101}, {"onset_time": 63.808826, "offset_time": 64.47743, "midi_note": 52, "velocity": 84}, {"onset_time": 63.812702, "offset_time": 64.25, "midi_note": 64, "velocity": 90}, {"onset_time": 64.03453, "offset_time": 64.49, "midi_note": 66, "velocity": 95}, {"onset_time": 64.035515, "offset_time": 64.47822, "midi_note": 56, "velocity": 86}, {"onset_time": 64.25826, "offset_time": 64.47813, "midi_note": 57, "velocity": 91}, {"onset_time": 64.25836, "offset_time": 64.4819, "midi_note": 76, "velocity": 105}, {"onset_time": 64.26046, "offset_time": 64.48178, "midi_note": 64, "velocity": 95}, {"onset_time": 64.494446, "offset_time": 65.41645, "midi_note": 78, "velocity": 109}, {"onset_time": 64.49454, "offset_time": 65.41393, "midi_note": 47, "velocity": 98}, {"onset_time": 64.49814, "offset_time": 65.42, "midi_note": 35, "velocity": 90}, {"onset_time": 64.500336, "offset_time": 65.41395, "midi_note": 66, "velocity": 100}, {"onset_time": 64.73243, "offset_time": 65.414986, "midi_note": 51, "velocity": 92}, {"onset_time": 64.96297, "offset_time": 65.43, "midi_note": 76, "velocity": 105}, {"onset_time": 64.96435, "offset_time": 65.41638, "midi_note": 54, "velocity": 89}, {"onset_time": 64.96475, "offset_time": 65.4165, "midi_note": 64, "velocity": 102}, {"onset_time": 65.19466, "offset_time": 65.415344, "midi_note": 59, "velocity": 86}, {"onset_time": 65.19542, "offset_time": 65.4162, "midi_note": 61, "velocity": 94}, {"onset_time": 65.195564, "offset_time": 65.41894, "midi_note": 73, "velocity": 107}, {"onset_time": 65.44329, "offset_time": 66.34542, "midi_note": 52, "velocity": 91}, {"onset_time": 65.44406, "offset_time": 66.21, "midi_note": 80, "velocity": 105}, {"onset_time": 65.44468, "offset_time": 66.34874, "midi_note": 76, "velocity": 96}, {"onset_time": 65.44479, "offset_time": 66.34, "midi_note": 40, "velocity": 84}, {"onset_time": 65.445015, "offset_time": 65.91, "midi_note": 68, "velocity": 107}, {"onset_time": 65.69492, "offset_time": 66.15, "midi_note": 59, "velocity": 92}, {"onset_time": 65.92441, "offset_time": 66.34867, "midi_note": 64, "velocity": 91}, {"onset_time": 65.92485, "offset_time": 66.38, "midi_note": 68, "velocity": 99}, {"onset_time": 66.15662, "offset_time": 66.3, "midi_note": 78, "velocity": 95}, {"onset_time": 66.15747, "offset_time": 66.34634, "midi_note": 59, "velocity": 83}, {"onset_time": 66.223236, "offset_time": 66.37, "midi_note": 80, "velocity": 93}, {"onset_time": 66.30553, "offset_time": 67.3098, "midi_note": 78, "velocity": 93}, {"onset_time": 66.38064, "offset_time": 67.30841, "midi_note": 80, "velocity": 106}, {"onset_time": 66.382645, "offset_time": 67.30858, "midi_note": 77, "velocity": 100}, {"onset_time": 66.38501, "offset_time": 67.308174, "midi_note": 49, "velocity": 96}, {"onset_time": 66.38566, "offset_time": 66.85, "midi_note": 68, "velocity": 101}, {"onset_time": 66.38785, "offset_time": 67.32, "midi_note": 37, "velocity": 85}, {"onset_time": 66.634674, "offset_time": 67.30806, "midi_note": 61, "velocity": 101}, {"onset_time": 66.864456, "offset_time": 67.30866, "midi_note": 68, "velocity": 105}, {"onset_time": 66.865425, "offset_time": 67.31147, "midi_note": 71, "velocity": 100}, {"onset_time": 66.86628, "offset_time": 67.311516, "midi_note": 65, "velocity": 84}, {"onset_time": 67.34573, "offset_time": 68.274734, "midi_note": 85, "velocity": 110}, {"onset_time": 67.34651, "offset_time": 67.68, "midi_note": 45, "velocity": 99}, {"onset_time": 67.346535, "offset_time": 68.29, "midi_note": 33, "velocity": 88}, {"onset_time": 67.34853, "offset_time": 68.27467, "midi_note": 73, "velocity": 109}, {"onset_time": 67.35034, "offset_time": 68.27415, "midi_note": 76, "velocity": 105}, {"onset_time": 67.69177, "offset_time": 68.03, "midi_note": 45, "velocity": 102}, {"onset_time": 67.79443, "offset_time": 68.27351, "midi_note": 52, "velocity": 90}, {"onset_time": 67.79459, "offset_time": 68.275055, "midi_note": 57, "velocity": 104}, {"onset_time": 68.03402, "offset_time": 68.27426, "midi_note": 83, "velocity": 108}, {"onset_time": 68.03507, "offset_time": 68.273865, "midi_note": 45, "velocity": 85}, {"onset_time": 68.0363, "offset_time": 68.27517, "midi_note": 71, "velocity": 100}, {"onset_time": 68.26505, "offset_time": 68.71, "midi_note": 78, "velocity": 105}, {"onset_time": 68.26913, "offset_time": 68.79, "midi_note": 66, "velocity": 102}, {"onset_time": 68.27622, "offset_time": 69.24, "midi_note": 35, "velocity": 96}, {"onset_time": 68.496056, "offset_time": 69.2, "midi_note": 51, "velocity": 94}, {"onset_time": 68.49997, "offset_time": 69.22, "midi_note": 88, "velocity": 111}, {"onset_time": 68.50082, "offset_time": 68.7377, "midi_note": 76, "velocity": 108}, {"onset_time": 68.72482, "offset_time": 69.17, "midi_note": 78, "velocity": 114}, {"onset_time": 68.72516, "offset_time": 69.17, "midi_note": 90, "velocity": 114}, {"onset_time": 68.72622, "offset_time": 69.21371, "midi_note": 36, "velocity": 97}, {"onset_time": 68.95711, "offset_time": 69.2093, "midi_note": 80, "velocity": 111}, {"onset_time": 68.95882, "offset_time": 69.21091, "midi_note": 92, "velocity": 114}, {"onset_time": 69.18248, "offset_time": 69.93, "midi_note": 90, "velocity": 113}, {"onset_time": 69.1829, "offset_time": 70.17, "midi_note": 78, "velocity": 108}, {"onset_time": 69.1848, "offset_time": 70.15, "midi_note": 85, "velocity": 101}, {"onset_time": 69.18866, "offset_time": 70.13298, "midi_note": 83, "velocity": 105}, {"onset_time": 69.1889, "offset_time": 70.12984, "midi_note": 37, "velocity": 98}, {"onset_time": 69.44678, "offset_time": 69.87, "midi_note": 52, "velocity": 94}, {"onset_time": 69.65261, "offset_time": 70.13045, "midi_note": 35, "velocity": 94}, {"onset_time": 69.88379, "offset_time": 70.01, "midi_note": 88, "velocity": 104}, {"onset_time": 69.88461, "offset_time": 70.13409, "midi_note": 52, "velocity": 89}, {"onset_time": 69.9441, "offset_time": 70.13293, "midi_note": 90, "velocity": 112}, {"onset_time": 70.02029, "offset_time": 70.13366, "midi_note": 88, "velocity": 104}, {"onset_time": 70.124886, "offset_time": 70.13, "midi_note": 46, "velocity": 109}, {"onset_time": 70.13196, "offset_time": 71.08469, "midi_note": 34, "velocity": 99}, {"onset_time": 70.155594, "offset_time": 71.11, "midi_note": 73, "velocity": 108}, {"onset_time": 70.155655, "offset_time": 71.11, "midi_note": 85, "velocity": 111}, {"onset_time": 70.15893, "offset_time": 71.08349, "midi_note": 76, "velocity": 97}, {"onset_time": 70.3723, "offset_time": 70.82, "midi_note": 46, "velocity": 89}, {"onset_time": 70.61132, "offset_time": 71.083626, "midi_note": 58, "velocity": 97}, {"onset_time": 70.61619, "offset_time": 71.084496, "midi_note": 54, "velocity": 95}, {"onset_time": 70.832535, "offset_time": 71.08432, "midi_note": 46, "velocity": 97}, {"onset_time": 71.113686, "offset_time": 72.03261, "midi_note": 42, "velocity": 103}, {"onset_time": 71.11493, "offset_time": 72.03467, "midi_note": 78, "velocity": 106}, {"onset_time": 71.11524, "offset_time": 72.03451, "midi_note": 85, "velocity": 106}, {"onset_time": 71.11544, "offset_time": 71.27, "midi_note": 30, "velocity": 94}, {"onset_time": 71.1159, "offset_time": 72.03456, "midi_note": 73, "velocity": 109}, {"onset_time": 71.45276, "offset_time": 71.81, "midi_note": 49, "velocity": 93}, {"onset_time": 71.58442, "offset_time": 72.0346, "midi_note": 61, "velocity": 96}, {"onset_time": 71.58535, "offset_time": 72.0344, "midi_note": 54, "velocity": 90}, {"onset_time": 71.58548, "offset_time": 72.0342, "midi_note": 57, "velocity": 99}, {"onset_time": 71.81892, "offset_time": 72.03495, "midi_note": 83, "velocity": 110}, {"onset_time": 71.81916, "offset_time": 72.06, "midi_note": 49, "velocity": 87}, {"onset_time": 71.82319, "offset_time": 72.04, "midi_note": 71, "velocity": 106}, {"onset_time": 72.0472, "offset_time": 72.97338, "midi_note": 80, "velocity": 110}, {"onset_time": 72.05418, "offset_time": 72.5, "midi_note": 71, "velocity": 98}, {"onset_time": 72.054344, "offset_time": 72.9736, "midi_note": 75, "velocity": 95}, {"onset_time": 72.05473, "offset_time": 72.97325, "midi_note": 68, "velocity": 108}, {"onset_time": 72.0556, "offset_time": 72.97419, "midi_note": 44, "velocity": 103}, {"onset_time": 72.05735, "offset_time": 72.97, "midi_note": 32, "velocity": 88}, {"onset_time": 72.27565, "offset_time": 72.75, "midi_note": 51, "velocity": 90}, {"onset_time": 72.51037, "offset_time": 72.974205, "midi_note": 71, "velocity": 105}, {"onset_time": 72.510895, "offset_time": 72.97338, "midi_note": 83, "velocity": 108}, {"onset_time": 72.51244, "offset_time": 72.97324, "midi_note": 59, "velocity": 95}, {"onset_time": 72.51337, "offset_time": 72.97359, "midi_note": 63, "velocity": 93}, {"onset_time": 72.75486, "offset_time": 72.97, "midi_note": 73, "velocity": 111}, {"onset_time": 72.75541, "offset_time": 72.97, "midi_note": 85, "velocity": 108}, {"onset_time": 72.75628, "offset_time": 72.99, "midi_note": 51, "velocity": 83}, {"onset_time": 72.977066, "offset_time": 73.69, "midi_note": 33, "velocity": 88}, {"onset_time": 72.97749, "offset_time": 73.33, "midi_note": 45, "velocity": 102}, {"onset_time": 72.97878, "offset_time": 74.845985, "midi_note": 73, "velocity": 112}, {"onset_time": 72.98172, "offset_time": 74.84596, "midi_note": 85, "velocity": 109}, {"onset_time": 73.132195, "offset_time": 73.79, "midi_note": 76, "velocity": 92}, {"onset_time": 73.23946, "offset_time": 73.69, "midi_note": 78, "velocity": 88}, {"onset_time": 73.34388, "offset_time": 73.46, "midi_note": 45, "velocity": 81}, {"onset_time": 73.35337, "offset_time": 73.57, "midi_note": 80, "velocity": 89}, {"onset_time": 73.46386, "offset_time": 74.51, "midi_note": 52, "velocity": 85}, {"onset_time": 73.46394, "offset_time": 74.84535, "midi_note": 57, "velocity": 99}, {"onset_time": 73.46507, "offset_time": 73.69, "midi_note": 45, "velocity": 91}, {"onset_time": 73.46748, "offset_time": 74.84619, "midi_note": 83, "velocity": 104}, {"onset_time": 73.57794, "offset_time": 74.84522, "midi_note": 80, "velocity": 93}, {"onset_time": 73.69599, "offset_time": 74.87, "midi_note": 78, "velocity": 91}, {"onset_time": 73.70412, "offset_time": 74.15, "midi_note": 45, "velocity": 103}, {"onset_time": 73.70485, "offset_time": 74.15, "midi_note": 33, "velocity": 86}, {"onset_time": 73.804756, "offset_time": 74.86, "midi_note": 76, "velocity": 98}, {"onset_time": 73.92142, "offset_time": 74.84584, "midi_note": 71, "velocity": 93}, {"onset_time": 74.04696, "offset_time": 74.73, "midi_note": 68, "velocity": 92}, {"onset_time": 74.16079, "offset_time": 74.63, "midi_note": 45, "velocity": 103}, {"onset_time": 74.1634, "offset_time": 74.63, "midi_note": 66, "velocity": 98}, {"onset_time": 74.163574, "offset_time": 74.63, "midi_note": 33, "velocity": 85}, {"onset_time": 74.2926, "offset_time": 74.51, "midi_note": 64, "velocity": 87}, {"onset_time": 74.40808, "offset_time": 74.846405, "midi_note": 59, "velocity": 92}, {"onset_time": 74.524635, "offset_time": 74.845535, "midi_note": 64, "velocity": 95}, {"onset_time": 74.524895, "offset_time": 74.87, "midi_note": 52, "velocity": 97}, {"onset_time": 74.635666, "offset_time": 74.84481, "midi_note": 66, "velocity": 90}, {"onset_time": 74.63881, "offset_time": 74.845436, "midi_note": 45, "velocity": 101}, {"onset_time": 74.64341, "offset_time": 74.84547, "midi_note": 33, "velocity": 87}, {"onset_time": 74.73679, "offset_time": 74.845345, "midi_note": 68, "velocity": 94}, {"onset_time": 74.854225, "offset_time": 75.09, "midi_note": 42, "velocity": 101}, {"onset_time": 74.857956, "offset_time": 75.09, "midi_note": 30, "velocity": 90}, {"onset_time": 74.86522, "offset_time": 75.78526, "midi_note": 76, "velocity": 105}, {"onset_time": 74.99263, "offset_time": 75.66, "midi_note": 73, "velocity": 102}, {"onset_time": 75.099236, "offset_time": 75.55, "midi_note": 68, "velocity": 99}, {"onset_time": 75.10237, "offset_time": 75.33, "midi_note": 42, "velocity": 85}, {"onset_time": 75.10347, "offset_time": 75.8, "midi_note": 30, "velocity": 75}, {"onset_time": 75.21807, "offset_time": 75.43, "midi_note": 64, "velocity": 94}, {"onset_time": 75.33518, "offset_time": 75.785194, "midi_note": 54, "velocity": 95}, {"onset_time": 75.335335, "offset_time": 75.55, "midi_note": 42, "velocity": 85}, {"onset_time": 75.33538, "offset_time": 75.784485, "midi_note": 61, "velocity": 89}, {"onset_time": 75.33824, "offset_time": 75.78304, "midi_note": 49, "velocity": 92}, {"onset_time": 75.44473, "offset_time": 75.81, "midi_note": 64, "velocity": 88}, {"onset_time": 75.56086, "offset_time": 75.784294, "midi_note": 68, "velocity": 97}, {"onset_time": 75.56229, "offset_time": 75.784355, "midi_note": 42, "velocity": 78}, {"onset_time": 75.66601, "offset_time": 75.785034, "midi_note": 73, "velocity": 103}, {"onset_time": 75.783745, "offset_time": 76.03, "midi_note": 44, "velocity": 105}, {"onset_time": 75.787384, "offset_time": 76.755455, "midi_note": 78, "velocity": 108}, {"onset_time": 75.78835, "offset_time": 76.04, "midi_note": 32, "velocity": 87}, {"onset_time": 75.794846, "offset_time": 76.12, "midi_note": 66, "velocity": 104}, {"onset_time": 75.90657, "offset_time": 76.61, "midi_note": 75, "velocity": 85}, {"onset_time": 76.024635, "offset_time": 76.49, "midi_note": 71, "velocity": 100}, {"onset_time": 76.03605, "offset_time": 76.75493, "midi_note": 44, "velocity": 83}, {"onset_time": 76.04597, "offset_time": 76.78, "midi_note": 32, "velocity": 69}, {"onset_time": 76.13241, "offset_time": 76.38, "midi_note": 66, "velocity": 98}, {"onset_time": 76.26852, "offset_time": 76.75543, "midi_note": 63, "velocity": 100}, {"onset_time": 76.27491, "offset_time": 76.75677, "midi_note": 51, "velocity": 87}, {"onset_time": 76.275406, "offset_time": 76.754974, "midi_note": 56, "velocity": 97}, {"onset_time": 76.386154, "offset_time": 76.75537, "midi_note": 66, "velocity": 89}, {"onset_time": 76.50194, "offset_time": 76.7554, "midi_note": 71, "velocity": 95}, {"onset_time": 76.61569, "offset_time": 76.75478, "midi_note": 75, "velocity": 96}, {"onset_time": 76.748604, "offset_time": 77.736176, "midi_note": 80, "velocity": 108}, {"onset_time": 76.75328, "offset_time": 76.98, "midi_note": 68, "velocity": 107}, {"onset_time": 76.75612, "offset_time": 76.98, "midi_note": 45, "velocity": 103}, {"onset_time": 76.76078, "offset_time": 76.98, "midi_note": 33, "velocity": 93}, {"onset_time": 76.87606, "offset_time": 77.57, "midi_note": 73, "velocity": 103}, {"onset_time": 76.99179, "offset_time": 77.12, "midi_note": 45, "velocity": 91}, {"onset_time": 76.99312, "offset_time": 77.23, "midi_note": 33, "velocity": 84}, {"onset_time": 76.99425, "offset_time": 77.45, "midi_note": 68, "velocity": 99}, {"onset_time": 77.1187, "offset_time": 77.35, "midi_note": 64, "velocity": 96}, {"onset_time": 77.125984, "offset_time": 77.23, "midi_note": 45, "velocity": 82}, {"onset_time": 77.23959, "offset_time": 77.45, "midi_note": 33, "velocity": 85}, {"onset_time": 77.244705, "offset_time": 77.46, "midi_note": 45, "velocity": 90}, {"onset_time": 77.24479, "offset_time": 77.7366, "midi_note": 61, "velocity": 101}, {"onset_time": 77.35848, "offset_time": 77.7369, "midi_note": 64, "velocity": 93}, {"onset_time": 77.45595, "offset_time": 77.73528, "midi_note": 68, "velocity": 98}, {"onset_time": 77.464966, "offset_time": 77.734985, "midi_note": 33, "velocity": 88}, {"onset_time": 77.46573, "offset_time": 77.73591, "midi_note": 45, "velocity": 92}, {"onset_time": 77.57717, "offset_time": 77.73861, "midi_note": 73, "velocity": 103}, {"onset_time": 77.708, "offset_time": 78.656425, "midi_note": 47, "velocity": 103}, {"onset_time": 77.708786, "offset_time": 78.661354, "midi_note": 83, "velocity": 108}, {"onset_time": 77.70948, "offset_time": 78.06, "midi_note": 71, "velocity": 102}, {"onset_time": 77.71394, "offset_time": 78.4, "midi_note": 35, "velocity": 90}, {"onset_time": 77.84598, "offset_time": 78.65573, "midi_note": 78, "velocity": 104}, {"onset_time": 77.95704, "offset_time": 78.65475, "midi_note": 75, "velocity": 100}, {"onset_time": 78.065575, "offset_time": 78.65533, "midi_note": 71, "velocity": 95}, {"onset_time": 78.18072, "offset_time": 78.65481, "midi_note": 66, "velocity": 99}, {"onset_time": 78.29823, "offset_time": 78.65513, "midi_note": 63, "velocity": 101}, {"onset_time": 78.41486, "offset_time": 78.65759, "midi_note": 35, "velocity": 93}, {"onset_time": 78.4175, "offset_time": 78.67, "midi_note": 59, "velocity": 90}, {"onset_time": 78.54249, "offset_time": 78.55, "midi_note": 70, "velocity": 81}, {"onset_time": 78.67354, "offset_time": 80.96, "midi_note": 33, "velocity": 97}, {"onset_time": 78.67494, "offset_time": 79.34, "midi_note": 73, "velocity": 115}, {"onset_time": 78.675, "offset_time": 78.82, "midi_note": 61, "velocity": 106}, {"onset_time": 78.675514, "offset_time": 82.40521, "midi_note": 64, "velocity": 106}, {"onset_time": 78.675606, "offset_time": 79.13, "midi_note": 69, "velocity": 98}, {"onset_time": 79.140915, "offset_time": 79.56, "midi_note": 69, "velocity": 80}, {"onset_time": 79.2638, "offset_time": 79.68, "midi_note": 71, "velocity": 80}, {"onset_time": 79.34841, "offset_time": 79.8, "midi_note": 73, "velocity": 84}, {"onset_time": 79.45552, "offset_time": 79.92, "midi_note": 76, "velocity": 72}, {"onset_time": 79.57253, "offset_time": 80.06, "midi_note": 69, "velocity": 87}, {"onset_time": 79.692375, "offset_time": 80.18, "midi_note": 71, "velocity": 89}, {"onset_time": 79.8103, "offset_time": 80.29, "midi_note": 73, "velocity": 89}, {"onset_time": 79.93237, "offset_time": 80.4, "midi_note": 76, "velocity": 77}, {"onset_time": 80.06524, "offset_time": 80.53, "midi_note": 69, "velocity": 88}, {"onset_time": 80.18562, "offset_time": 80.67, "midi_note": 71, "velocity": 80}, {"onset_time": 80.30401, "offset_time": 80.79, "midi_note": 73, "velocity": 84}, {"onset_time": 80.40743, "offset_time": 80.89, "midi_note": 76, "velocity": 78}, {"onset_time": 80.53643, "offset_time": 81.01, "midi_note": 69, "velocity": 77}, {"onset_time": 80.54441, "offset_time": 82.40507, "midi_note": 95, "velocity": 109}, {"onset_time": 80.54489, "offset_time": 82.40691, "midi_note": 83, "velocity": 104}, {"onset_time": 80.67671, "offset_time": 81.1, "midi_note": 71, "velocity": 72}, {"onset_time": 80.79871, "offset_time": 81.22, "midi_note": 73, "velocity": 85}, {"onset_time": 80.90321, "offset_time": 81.34, "midi_note": 76, "velocity": 80}, {"onset_time": 81.017715, "offset_time": 81.44, "midi_note": 69, "velocity": 74}, {"onset_time": 81.11258, "offset_time": 81.55, "midi_note": 71, "velocity": 83}, {"onset_time": 81.23309, "offset_time": 81.67, "midi_note": 73, "velocity": 86}, {"onset_time": 81.345024, "offset_time": 81.8, "midi_note": 76, "velocity": 85}, {"onset_time": 81.454094, "offset_time": 81.91, "midi_note": 69, "velocity": 85}, {"onset_time": 81.56311, "offset_time": 82.03, "midi_note": 71, "velocity": 81}, {"onset_time": 81.68282, "offset_time": 82.16, "midi_note": 73, "velocity": 88}, {"onset_time": 81.807076, "offset_time": 82.27, "midi_note": 76, "velocity": 85}, {"onset_time": 81.91629, "offset_time": 82.406876, "midi_note": 85, "velocity": 110}, {"onset_time": 81.91633, "offset_time": 82.406136, "midi_note": 97, "velocity": 115}, {"onset_time": 81.91671, "offset_time": 82.40588, "midi_note": 69, "velocity": 83}, {"onset_time": 82.0379, "offset_time": 82.405914, "midi_note": 71, "velocity": 85}, {"onset_time": 82.16701, "offset_time": 82.40678, "midi_note": 73, "velocity": 85}, {"onset_time": 82.27656, "offset_time": 82.40561, "midi_note": 76, "velocity": 83}, {"onset_time": 82.41841, "offset_time": 84.28484, "midi_note": 80, "velocity": 105}, {"onset_time": 82.42375, "offset_time": 84.28, "midi_note": 92, "velocity": 110}, {"onset_time": 82.4365, "offset_time": 82.87, "midi_note": 42, "velocity": 104}, {"onset_time": 82.437645, "offset_time": 84.27, "midi_note": 30, "velocity": 92}, {"onset_time": 82.87773, "offset_time": 83.34, "midi_note": 42, "velocity": 79}, {"onset_time": 82.8824, "offset_time": 83.34, "midi_note": 69, "velocity": 93}, {"onset_time": 82.99233, "offset_time": 83.45, "midi_note": 71, "velocity": 89}, {"onset_time": 83.1028, "offset_time": 83.55, "midi_note": 73, "velocity": 95}, {"onset_time": 83.10598, "offset_time": 83.6, "midi_note": 57, "velocity": 79}, {"onset_time": 83.10655, "offset_time": 83.6, "midi_note": 54, "velocity": 86}, {"onset_time": 83.23537, "offset_time": 83.67, "midi_note": 76, "velocity": 86}, {"onset_time": 83.347786, "offset_time": 83.8, "midi_note": 69, "velocity": 96}, {"onset_time": 83.34801, "offset_time": 83.81, "midi_note": 42, "velocity": 90}, {"onset_time": 83.45625, "offset_time": 83.93, "midi_note": 71, "velocity": 95}, {"onset_time": 83.56161, "offset_time": 84.04, "midi_note": 73, "velocity": 98}, {"onset_time": 83.60557, "offset_time": 84.04, "midi_note": 57, "velocity": 90}, {"onset_time": 83.60665, "offset_time": 84.04, "midi_note": 54, "velocity": 91}, {"onset_time": 83.680664, "offset_time": 84.15, "midi_note": 76, "velocity": 92}, {"onset_time": 83.81337, "offset_time": 84.28573, "midi_note": 69, "velocity": 102}, {"onset_time": 83.81705, "offset_time": 84.284744, "midi_note": 42, "velocity": 100}, {"onset_time": 83.93657, "offset_time": 84.28338, "midi_note": 71, "velocity": 95}, {"onset_time": 84.04738, "offset_time": 84.284615, "midi_note": 57, "velocity": 94}, {"onset_time": 84.04805, "offset_time": 84.28414, "midi_note": 54, "velocity": 97}, {"onset_time": 84.048515, "offset_time": 84.28437, "midi_note": 73, "velocity": 98}, {"onset_time": 84.15907, "offset_time": 84.31, "midi_note": 76, "velocity": 97}, {"onset_time": 84.28189, "offset_time": 86.23, "midi_note": 72, "velocity": 108}, {"onset_time": 84.28214, "offset_time": 86.22, "midi_note": 66, "velocity": 105}, {"onset_time": 84.284355, "offset_time": 85.0, "midi_note": 75, "velocity": 101}, {"onset_time": 84.284584, "offset_time": 84.78, "midi_note": 44, "velocity": 108}, {"onset_time": 84.28576, "offset_time": 86.23, "midi_note": 32, "velocity": 95}, {"onset_time": 84.78298, "offset_time": 86.20653, "midi_note": 96, "velocity": 107}, {"onset_time": 84.78524, "offset_time": 85.0, "midi_note": 51, "velocity": 86}, {"onset_time": 84.78544, "offset_time": 84.99, "midi_note": 44, "velocity": 97}, {"onset_time": 84.79173, "offset_time": 84.99, "midi_note": 56, "velocity": 99}, {"onset_time": 84.88861, "offset_time": 86.2048, "midi_note": 92, "velocity": 110}, {"onset_time": 85.001755, "offset_time": 86.205574, "midi_note": 90, "velocity": 111}, {"onset_time": 85.00429, "offset_time": 85.22, "midi_note": 56, "velocity": 93}, {"onset_time": 85.004524, "offset_time": 85.22, "midi_note": 44, "velocity": 87}, {"onset_time": 85.00541, "offset_time": 85.69, "midi_note": 51, "velocity": 88}, {"onset_time": 85.10926, "offset_time": 86.20476, "midi_note": 87, "velocity": 103}, {"onset_time": 85.22001, "offset_time": 86.20713, "midi_note": 84, "velocity": 103}, {"onset_time": 85.228584, "offset_time": 85.45, "midi_note": 56, "velocity": 98}, {"onset_time": 85.234535, "offset_time": 85.45, "midi_note": 44, "velocity": 95}, {"onset_time": 85.337265, "offset_time": 86.18, "midi_note": 80, "velocity": 92}, {"onset_time": 85.45648, "offset_time": 85.69, "midi_note": 44, "velocity": 88}, {"onset_time": 85.45726, "offset_time": 86.208374, "midi_note": 78, "velocity": 98}, {"onset_time": 85.45958, "offset_time": 85.68, "midi_note": 56, "velocity": 93}, {"onset_time": 85.57143, "offset_time": 86.24, "midi_note": 75, "velocity": 97}, {"onset_time": 85.69259, "offset_time": 86.205894, "midi_note": 61, "velocity": 112}, {"onset_time": 85.693695, "offset_time": 86.18, "midi_note": 73, "velocity": 114}, {"onset_time": 85.6949, "offset_time": 85.92, "midi_note": 56, "velocity": 104}, {"onset_time": 85.69604, "offset_time": 85.92, "midi_note": 44, "velocity": 86}, {"onset_time": 85.70412, "offset_time": 86.20566, "midi_note": 51, "velocity": 86}, {"onset_time": 85.93328, "offset_time": 86.20654, "midi_note": 44, "velocity": 94}, {"onset_time": 85.93446, "offset_time": 86.20644, "midi_note": 56, "velocity": 99}, {"onset_time": 86.18393, "offset_time": 87.86, "midi_note": 76, "velocity": 98}, {"onset_time": 86.18602, "offset_time": 88.08, "midi_note": 73, "velocity": 106}, {"onset_time": 86.18669, "offset_time": 88.08, "midi_note": 80, "velocity": 104}, {"onset_time": 86.18769, "offset_time": 88.058556, "midi_note": 68, "velocity": 108}, {"onset_time": 86.18941, "offset_time": 86.4, "midi_note": 45, "velocity": 95}, {"onset_time": 86.19317, "offset_time": 87.36, "midi_note": 33, "velocity": 88}, {"onset_time": 86.405304, "offset_time": 86.9, "midi_note": 45, "velocity": 81}, {"onset_time": 86.65391, "offset_time": 87.61, "midi_note": 61, "velocity": 102}, {"onset_time": 86.65478, "offset_time": 87.61, "midi_note": 57, "velocity": 93}, {"onset_time": 86.65686, "offset_time": 87.61, "midi_note": 52, "velocity": 89}, {"onset_time": 86.90694, "offset_time": 87.36, "midi_note": 45, "velocity": 89}, {"onset_time": 87.36751, "offset_time": 87.85, "midi_note": 45, "velocity": 97}, {"onset_time": 87.372086, "offset_time": 88.05846, "midi_note": 33, "velocity": 77}, {"onset_time": 87.61518, "offset_time": 88.061584, "midi_note": 78, "velocity": 110}, {"onset_time": 87.61658, "offset_time": 88.0606, "midi_note": 57, "velocity": 91}, {"onset_time": 87.617226, "offset_time": 88.08, "midi_note": 66, "velocity": 106}, {"onset_time": 87.62088, "offset_time": 88.06083, "midi_note": 61, "velocity": 93}, {"onset_time": 87.62406, "offset_time": 88.06034, "midi_note": 52, "velocity": 86}, {"onset_time": 87.86067, "offset_time": 88.06099, "midi_note": 45, "velocity": 90}, {"onset_time": 87.864555, "offset_time": 88.06416, "midi_note": 64, "velocity": 102}, {"onset_time": 87.86667, "offset_time": 88.06287, "midi_note": 76, "velocity": 103}, {"onset_time": 88.08115, "offset_time": 88.31, "midi_note": 47, "velocity": 101}, {"onset_time": 88.08348, "offset_time": 88.79, "midi_note": 71, "velocity": 93}, {"onset_time": 88.084335, "offset_time": 89.49, "midi_note": 63, "velocity": 102}, {"onset_time": 88.08495, "offset_time": 88.24, "midi_note": 35, "velocity": 91}, {"onset_time": 88.08509, "offset_time": 89.99299, "midi_note": 75, "velocity": 103}, {"onset_time": 88.08568, "offset_time": 90.02, "midi_note": 66, "velocity": 93}, {"onset_time": 88.32279, "offset_time": 88.55, "midi_note": 47, "velocity": 77}, {"onset_time": 88.553375, "offset_time": 89.99326, "midi_note": 59, "velocity": 93}, {"onset_time": 88.555664, "offset_time": 89.5041, "midi_note": 51, "velocity": 86}, {"onset_time": 88.55575, "offset_time": 89.5, "midi_note": 54, "velocity": 91}, {"onset_time": 88.56184, "offset_time": 88.79, "midi_note": 47, "velocity": 87}, {"onset_time": 88.795296, "offset_time": 89.24, "midi_note": 47, "velocity": 88}, {"onset_time": 88.79798, "offset_time": 89.96, "midi_note": 68, "velocity": 103}, {"onset_time": 88.799324, "offset_time": 89.49, "midi_note": 76, "velocity": 107}, {"onset_time": 88.800995, "offset_time": 89.9892, "midi_note": 64, "velocity": 104}, {"onset_time": 88.80119, "offset_time": 90.02, "midi_note": 35, "velocity": 73}, {"onset_time": 88.80322, "offset_time": 89.49, "midi_note": 71, "velocity": 96}, {"onset_time": 89.254364, "offset_time": 89.73, "midi_note": 47, "velocity": 99}, {"onset_time": 89.49629, "offset_time": 89.99042, "midi_note": 83, "velocity": 109}, {"onset_time": 89.49849, "offset_time": 89.97, "midi_note": 76, "velocity": 105}, {"onset_time": 89.50027, "offset_time": 89.96, "midi_note": 80, "velocity": 98}, {"onset_time": 89.50235, "offset_time": 89.99369, "midi_note": 71, "velocity": 104}, {"onset_time": 89.50289, "offset_time": 89.992165, "midi_note": 63, "velocity": 94}, {"onset_time": 89.505554, "offset_time": 89.992836, "midi_note": 54, "velocity": 81}, {"onset_time": 89.735756, "offset_time": 89.99286, "midi_note": 47, "velocity": 100}, {"onset_time": 89.967125, "offset_time": 91.76, "midi_note": 80, "velocity": 106}, {"onset_time": 89.9729, "offset_time": 90.66, "midi_note": 68, "velocity": 110}, {"onset_time": 89.975464, "offset_time": 91.76, "midi_note": 76, "velocity": 92}, {"onset_time": 89.975716, "offset_time": 90.66, "midi_note": 73, "velocity": 108}, {"onset_time": 89.978516, "offset_time": 90.2, "midi_note": 49, "velocity": 102}, {"onset_time": 89.98213, "offset_time": 91.74491, "midi_note": 37, "velocity": 88}, {"onset_time": 90.21154, "offset_time": 90.66, "midi_note": 49, "velocity": 91}, {"onset_time": 90.429474, "offset_time": 91.38, "midi_note": 64, "velocity": 105}, {"onset_time": 90.43142, "offset_time": 91.38, "midi_note": 61, "velocity": 90}, {"onset_time": 90.43394, "offset_time": 91.38, "midi_note": 56, "velocity": 90}, {"onset_time": 90.67038, "offset_time": 91.37, "midi_note": 68, "velocity": 108}, {"onset_time": 90.670845, "offset_time": 91.7462, "midi_note": 73, "velocity": 110}, {"onset_time": 90.67266, "offset_time": 91.16, "midi_note": 49, "velocity": 92}, {"onset_time": 91.16802, "offset_time": 91.59, "midi_note": 49, "velocity": 94}, {"onset_time": 91.38384, "offset_time": 91.746994, "midi_note": 68, "velocity": 108}, {"onset_time": 91.38735, "offset_time": 91.74614, "midi_note": 64, "velocity": 101}, {"onset_time": 91.388695, "offset_time": 91.746086, "midi_note": 61, "velocity": 92}, {"onset_time": 91.39393, "offset_time": 91.74708, "midi_note": 56, "velocity": 93}, {"onset_time": 91.60342, "offset_time": 91.74658, "midi_note": 49, "velocity": 91}, {"onset_time": 92.091034, "offset_time": 92.77, "midi_note": 59, "velocity": 97}, {"onset_time": 92.092026, "offset_time": 92.32, "midi_note": 51, "velocity": 104}, {"onset_time": 92.09218, "offset_time": 92.75787, "midi_note": 54, "velocity": 104}, {"onset_time": 92.093155, "offset_time": 92.75908, "midi_note": 63, "velocity": 100}, {"onset_time": 92.09317, "offset_time": 92.75712, "midi_note": 66, "velocity": 102}, {"onset_time": 92.09473, "offset_time": 92.75816, "midi_note": 39, "velocity": 99}, {"onset_time": 92.32877, "offset_time": 92.53, "midi_note": 51, "velocity": 94}, {"onset_time": 92.54178, "offset_time": 92.75642, "midi_note": 51, "velocity": 85}, {"onset_time": 92.78025, "offset_time": 93.26682, "midi_note": 64, "velocity": 94}, {"onset_time": 92.782555, "offset_time": 93.26744, "midi_note": 52, "velocity": 102}, {"onset_time": 92.78301, "offset_time": 93.27, "midi_note": 68, "velocity": 108}, {"onset_time": 92.78335, "offset_time": 93.02, "midi_note": 40, "velocity": 98}, {"onset_time": 92.78375, "offset_time": 93.26618, "midi_note": 59, "velocity": 99}, {"onset_time": 92.78378, "offset_time": 93.26588, "midi_note": 56, "velocity": 99}, {"onset_time": 93.033066, "offset_time": 93.267235, "midi_note": 40, "velocity": 92}, {"onset_time": 93.26637, "offset_time": 93.73, "midi_note": 73, "velocity": 111}, {"onset_time": 93.268456, "offset_time": 93.71507, "midi_note": 53, "velocity": 104}, {"onset_time": 93.27174, "offset_time": 93.47, "midi_note": 41, "velocity": 97}, {"onset_time": 93.274666, "offset_time": 93.713326, "midi_note": 62, "velocity": 98}, {"onset_time": 93.27571, "offset_time": 93.72, "midi_note": 68, "velocity": 98}, {"onset_time": 93.478325, "offset_time": 93.71453, "midi_note": 41, "velocity": 91}, {"onset_time": 93.7323, "offset_time": 93.96, "midi_note": 42, "velocity": 103}, {"onset_time": 93.73263, "offset_time": 95.67, "midi_note": 30, "velocity": 90}, {"onset_time": 93.7339, "offset_time": 95.65261, "midi_note": 80, "velocity": 104}, {"onset_time": 93.73406, "offset_time": 95.403244, "midi_note": 68, "velocity": 108}, {"onset_time": 93.73525, "offset_time": 95.65523, "midi_note": 73, "velocity": 108}, {"onset_time": 93.974625, "offset_time": 94.43, "midi_note": 42, "velocity": 92}, {"onset_time": 94.213585, "offset_time": 95.16675, "midi_note": 54, "velocity": 91}, {"onset_time": 94.214645, "offset_time": 94.9, "midi_note": 49, "velocity": 91}, {"onset_time": 94.435265, "offset_time": 95.64927, "midi_note": 42, "velocity": 94}, {"onset_time": 94.43761, "offset_time": 95.16, "midi_note": 61, "velocity": 93}, {"onset_time": 94.43841, "offset_time": 95.65482, "midi_note": 56, "velocity": 103}, {"onset_time": 94.438644, "offset_time": 95.16, "midi_note": 64, "velocity": 99}, {"onset_time": 94.44307, "offset_time": 95.15, "midi_note": 57, "velocity": 99}, {"onset_time": 94.90847, "offset_time": 95.4, "midi_note": 49, "velocity": 92}, {"onset_time": 95.16216, "offset_time": 95.65389, "midi_note": 57, "velocity": 93}, {"onset_time": 95.164185, "offset_time": 95.654686, "midi_note": 78, "velocity": 108}, {"onset_time": 95.16511, "offset_time": 95.6552, "midi_note": 61, "velocity": 88}, {"onset_time": 95.16526, "offset_time": 95.63, "midi_note": 66, "velocity": 107}, {"onset_time": 95.16635, "offset_time": 95.4, "midi_note": 64, "velocity": 87}, {"onset_time": 95.406075, "offset_time": 95.655045, "midi_note": 76, "velocity": 109}, {"onset_time": 95.4064, "offset_time": 95.65302, "midi_note": 49, "velocity": 87}, {"onset_time": 95.40887, "offset_time": 95.655846, "midi_note": 64, "velocity": 104}, {"onset_time": 95.64095, "offset_time": 97.53737, "midi_note": 63, "velocity": 106}, {"onset_time": 95.64247, "offset_time": 96.8, "midi_note": 75, "velocity": 104}, {"onset_time": 95.64298, "offset_time": 97.56, "midi_note": 66, "velocity": 96}, {"onset_time": 95.64301, "offset_time": 95.8, "midi_note": 44, "velocity": 100}, {"onset_time": 95.64463, "offset_time": 97.56602, "midi_note": 32, "velocity": 95}, {"onset_time": 95.856155, "offset_time": 96.33, "midi_note": 44, "velocity": 101}, {"onset_time": 96.0844, "offset_time": 97.04, "midi_note": 54, "velocity": 93}, {"onset_time": 96.08461, "offset_time": 97.04, "midi_note": 59, "velocity": 100}, {"onset_time": 96.08697, "offset_time": 97.04, "midi_note": 56, "velocity": 93}, {"onset_time": 96.33546, "offset_time": 97.51, "midi_note": 76, "velocity": 108}, {"onset_time": 96.33578, "offset_time": 97.53805, "midi_note": 64, "velocity": 108}, {"onset_time": 96.340614, "offset_time": 96.79, "midi_note": 44, "velocity": 99}, {"onset_time": 96.80264, "offset_time": 97.542046, "midi_note": 83, "velocity": 111}, {"onset_time": 96.80413, "offset_time": 97.26, "midi_note": 44, "velocity": 96}, {"onset_time": 96.80486, "offset_time": 97.53691, "midi_note": 71, "velocity": 109}, {"onset_time": 96.80533, "offset_time": 97.53816, "midi_note": 75, "velocity": 105}, {"onset_time": 96.8056, "offset_time": 97.537056, "midi_note": 78, "velocity": 104}, {"onset_time": 97.045166, "offset_time": 97.53888, "midi_note": 54, "velocity": 92}, {"onset_time": 97.04585, "offset_time": 97.5373, "midi_note": 59, "velocity": 96}, {"onset_time": 97.048874, "offset_time": 97.53699, "midi_note": 56, "velocity": 94}, {"onset_time": 97.2741, "offset_time": 97.57, "midi_note": 44, "velocity": 91}, {"onset_time": 97.517525, "offset_time": 99.45, "midi_note": 80, "velocity": 105}, {"onset_time": 97.520454, "offset_time": 98.47, "midi_note": 68, "velocity": 113}, {"onset_time": 97.523476, "offset_time": 99.41048, "midi_note": 73, "velocity": 105}, {"onset_time": 97.523766, "offset_time": 98.47, "midi_note": 76, "velocity": 92}, {"onset_time": 97.52476, "offset_time": 97.8, "midi_note": 45, "velocity": 101}, {"onset_time": 97.52726, "offset_time": 97.5955, "midi_note": 33, "velocity": 91}, {"onset_time": 97.80518, "offset_time": 99.25, "midi_note": 45, "velocity": 85}, {"onset_time": 97.88397, "offset_time": 99.40643, "midi_note": 49, "velocity": 90}, {"onset_time": 97.97529, "offset_time": 99.40592, "midi_note": 52, "velocity": 81}, {"onset_time": 98.07374, "offset_time": 99.405655, "midi_note": 56, "velocity": 91}, {"onset_time": 98.1731, "offset_time": 99.40814, "midi_note": 57, "velocity": 95}, {"onset_time": 98.286476, "offset_time": 99.40688, "midi_note": 61, "velocity": 93}, {"onset_time": 98.34942, "offset_time": 98.47, "midi_note": 87, "velocity": 101}, {"onset_time": 98.40895, "offset_time": 99.407715, "midi_note": 88, "velocity": 100}, {"onset_time": 98.41217, "offset_time": 99.406624, "midi_note": 64, "velocity": 97}, {"onset_time": 98.47687, "offset_time": 99.40576, "midi_note": 87, "velocity": 106}, {"onset_time": 98.4769, "offset_time": 99.4063, "midi_note": 68, "velocity": 105}, {"onset_time": 98.47787, "offset_time": 99.37, "midi_note": 76, "velocity": 98}, {"onset_time": 98.47859, "offset_time": 99.40576, "midi_note": 81, "velocity": 103}, {"onset_time": 99.14676, "offset_time": 99.4091, "midi_note": 40, "velocity": 90}, {"onset_time": 99.26237, "offset_time": 99.410484, "midi_note": 45, "velocity": 86}, {"onset_time": 99.37828, "offset_time": 100.35909, "midi_note": 83, "velocity": 105}, {"onset_time": 99.38107, "offset_time": 100.32, "midi_note": 71, "velocity": 108}, {"onset_time": 99.38257, "offset_time": 100.39, "midi_note": 76, "velocity": 102}, {"onset_time": 99.38448, "offset_time": 100.31, "midi_note": 78, "velocity": 97}, {"onset_time": 99.39316, "offset_time": 100.37, "midi_note": 47, "velocity": 101}, {"onset_time": 99.39423, "offset_time": 100.04, "midi_note": 35, "velocity": 86}, {"onset_time": 99.7229, "offset_time": 100.354774, "midi_note": 42, "velocity": 100}, {"onset_time": 99.72387, "offset_time": 100.39, "midi_note": 59, "velocity": 100}, {"onset_time": 99.72517, "offset_time": 100.04, "midi_note": 66, "velocity": 96}, {"onset_time": 99.72533, "offset_time": 100.05, "midi_note": 64, "velocity": 99}, {"onset_time": 100.053185, "offset_time": 100.32, "midi_note": 35, "velocity": 88}, {"onset_time": 100.054924, "offset_time": 100.32, "midi_note": 66, "velocity": 92}, {"onset_time": 100.05555, "offset_time": 100.35428, "midi_note": 64, "velocity": 90}, {"onset_time": 100.31786, "offset_time": 101.43, "midi_note": 78, "velocity": 113}, {"onset_time": 100.327614, "offset_time": 101.38, "midi_note": 71, "velocity": 100}, {"onset_time": 100.33033, "offset_time": 101.36, "midi_note": 35, "velocity": 104}, {"onset_time": 100.33245, "offset_time": 101.38, "midi_note": 66, "velocity": 107}, {"onset_time": 100.33336, "offset_time": 101.33887, "midi_note": 75, "velocity": 99}, {"onset_time": 101.176056, "offset_time": 101.63, "midi_note": 33, "velocity": 88}, {"onset_time": 101.31364, "offset_time": 107.31, "midi_note": 45, "velocity": 103}, {"onset_time": 101.355286, "offset_time": 103.4, "midi_note": 68, "velocity": 112}, {"onset_time": 101.35538, "offset_time": 104.32, "midi_note": 80, "velocity": 102}, {"onset_time": 101.3569, "offset_time": 103.75, "midi_note": 73, "velocity": 106}, {"onset_time": 101.36205, "offset_time": 103.92, "midi_note": 76, "velocity": 96}, {"onset_time": 101.965485, "offset_time": 107.5, "midi_note": 52, "velocity": 79}, {"onset_time": 102.43751, "offset_time": 107.5, "midi_note": 54, "velocity": 92}, {"onset_time": 102.75752, "offset_time": 107.5, "midi_note": 59, "velocity": 93}, {"onset_time": 103.022285, "offset_time": 107.5, "midi_note": 61, "velocity": 90}, {"onset_time": 103.245605, "offset_time": 107.5, "midi_note": 66, "velocity": 87}, {"onset_time": 103.41053, "offset_time": 107.5, "midi_note": 68, "velocity": 92}, {"onset_time": 103.57993, "offset_time": 107.5, "midi_note": 71, "velocity": 92}, {"onset_time": 103.75779, "offset_time": 107.5, "midi_note": 73, "velocity": 98}, {"onset_time": 103.9331, "offset_time": 107.5, "midi_note": 76, "velocity": 87}, {"onset_time": 104.11986, "offset_time": 107.5, "midi_note": 78, "velocity": 86}, {"onset_time": 104.328064, "offset_time": 107.5, "midi_note": 80, "velocity": 87}, {"onset_time": 104.63686, "offset_time": 105.21, "midi_note": 83, "velocity": 91}, {"onset_time": 104.994255, "offset_time": 105.32, "midi_note": 85, "velocity": 89}, {"onset_time": 105.21635, "offset_time": 105.45, "midi_note": 83, "velocity": 80}, {"onset_time": 105.33491, "offset_time": 105.54, "midi_note": 85, "velocity": 76}, {"onset_time": 105.46215, "offset_time": 105.63, "midi_note": 83, "velocity": 68}, {"onset_time": 105.55123, "offset_time": 105.7, "midi_note": 85, "velocity": 73}, {"onset_time": 105.6416, "offset_time": 105.79, "midi_note": 83, "velocity": 66}, {"onset_time": 105.71306, "offset_time": 105.87, "midi_note": 85, "velocity": 73}, {"onset_time": 105.79564, "offset_time": 105.93, "midi_note": 83, "velocity": 68}, {"onset_time": 105.87951, "offset_time": 106.0, "midi_note": 85, "velocity": 75}, {"onset_time": 105.93934, "offset_time": 106.07, "midi_note": 83, "velocity": 81}, {"onset_time": 106.01264, "offset_time": 106.14, "midi_note": 85, "velocity": 76}, {"onset_time": 106.084816, "offset_time": 106.21, "midi_note": 83, "velocity": 66}, {"onset_time": 106.14501, "offset_time": 106.27, "midi_note": 85, "velocity": 85}, {"onset_time": 106.22348, "offset_time": 106.33, "midi_note": 83, "velocity": 70}, {"onset_time": 106.27945, "offset_time": 106.4, "midi_note": 85, "velocity": 86}, {"onset_time": 106.33763, "offset_time": 106.49, "midi_note": 83, "velocity": 72}, {"onset_time": 106.41002, "offset_time": 106.54, "midi_note": 85, "velocity": 82}, {"onset_time": 106.50098, "offset_time": 106.62, "midi_note": 83, "velocity": 64}, {"onset_time": 106.55294, "offset_time": 106.69, "midi_note": 85, "velocity": 80}, {"onset_time": 106.6284, "offset_time": 106.77, "midi_note": 83, "velocity": 65}, {"onset_time": 106.699394, "offset_time": 106.84, "midi_note": 85, "velocity": 82}, {"onset_time": 106.777855, "offset_time": 106.92, "midi_note": 83, "velocity": 64}, {"onset_time": 106.84512, "offset_time": 107.01, "midi_note": 85, "velocity": 71}, {"onset_time": 106.92612, "offset_time": 107.08, "midi_note": 83, "velocity": 44}, {"onset_time": 107.02403, "offset_time": 107.16, "midi_note": 85, "velocity": 63}, {"onset_time": 107.08677, "offset_time": 107.26, "midi_note": 83, "velocity": 59}, {"onset_time": 107.16995, "offset_time": 107.36, "midi_note": 85, "velocity": 68}, {"onset_time": 107.27195, "offset_time": 107.48, "midi_note": 83, "velocity": 58}, {"onset_time": 107.3717, "offset_time": 107.61, "midi_note": 85, "velocity": 64}, {"onset_time": 107.4888, "offset_time": 107.76, "midi_note": 83, "velocity": 43}, {"onset_time": 107.62318, "offset_time": 108.75, "midi_note": 85, "velocity": 48}, {"onset_time": 107.76615, "offset_time": 112.5, "midi_note": 83, "velocity": 50}, {"onset_time": 108.75645, "offset_time": 112.5, "midi_note": 85, "velocity": 51}, {"onset_time": 108.81617, "offset_time": 112.5, "midi_note": 97, "velocity": 74}]
