[{"onset_time": 1.713595, "offset_time": 2.4, "midi_note": 79, "velocity": 69}, {"onset_time": 1.7165836, "offset_time": 7.5, "midi_note": 63, "velocity": 48}, {"onset_time": 2.0659258, "offset_time": 2.76, "midi_note": 70, "velocity": 64}, {"onset_time": 2.4101455, "offset_time": 3.1, "midi_note": 79, "velocity": 79}, {"onset_time": 2.773752, "offset_time": 3.46, "midi_note": 70, "velocity": 60}, {"onset_time": 3.1087716, "offset_time": 4.54, "midi_note": 79, "velocity": 79}, {"onset_time": 3.4650247, "offset_time": 4.16, "midi_note": 70, "velocity": 64}, {"onset_time": 3.7939923, "offset_time": 5.45, "midi_note": 80, "velocity": 82}, {"onset_time": 4.1693463, "offset_time": 4.89, "midi_note": 70, "velocity": 68}, {"onset_time": 4.546912, "offset_time": 7.3142285, "midi_note": 62, "velocity": 59}, {"onset_time": 4.547208, "offset_time": 5.24, "midi_note": 79, "velocity": 76}, {"onset_time": 4.9008174, "offset_time": 5.59, "midi_note": 70, "velocity": 65}, {"onset_time": 5.2508554, "offset_time": 5.91, "midi_note": 79, "velocity": 79}, {"onset_time": 5.601825, "offset_time": 6.25, "midi_note": 70, "velocity": 59}, {"onset_time": 5.916115, "offset_time": 7.28, "midi_note": 79, "velocity": 79}, {"onset_time": 6.257454, "offset_time": 7.314719, "midi_note": 70, "velocity": 75}, {"onset_time": 6.5866685, "offset_time": 7.3146224, "midi_note": 75, "velocity": 82}, {"onset_time": 6.944478, "offset_time": 7.313655, "midi_note": 77, "velocity": 81}, {"onset_time": 7.2759523, "offset_time": 10.051758, "midi_note": 60, "velocity": 66}, {"onset_time": 7.2943077, "offset_time": 7.96, "midi_note": 79, "velocity": 77}, {"onset_time": 7.6119285, "offset_time": 8.3, "midi_note": 70, "velocity": 67}, {"onset_time": 7.9691625, "offset_time": 8.63, "midi_note": 79, "velocity": 80}, {"onset_time": 8.311602, "offset_time": 8.99, "midi_note": 70, "velocity": 65}, {"onset_time": 8.642849, "offset_time": 10.09, "midi_note": 79, "velocity": 83}, {"onset_time": 9.003057, "offset_time": 9.66, "midi_note": 70, "velocity": 67}, {"onset_time": 9.321738, "offset_time": 10.046557, "midi_note": 80, "velocity": 83}, {"onset_time": 9.667008, "offset_time": 10.044513, "midi_note": 70, "velocity": 68}, {"onset_time": 10.024143, "offset_time": 10.746109, "midi_note": 82, "velocity": 87}, {"onset_time": 10.024891, "offset_time": 13.07, "midi_note": 58, "velocity": 59}, {"onset_time": 10.346511, "offset_time": 11.04, "midi_note": 70, "velocity": 67}, {"onset_time": 10.696331, "offset_time": 12.861824, "midi_note": 80, "velocity": 82}, {"onset_time": 11.052088, "offset_time": 11.73, "midi_note": 70, "velocity": 63}, {"onset_time": 11.392084, "offset_time": 12.863694, "midi_note": 79, "velocity": 78}, {"onset_time": 11.735817, "offset_time": 12.865559, "midi_note": 70, "velocity": 63}, {"onset_time": 12.104142, "offset_time": 12.868012, "midi_note": 77, "velocity": 71}, {"onset_time": 12.805083, "offset_time": 15.673507, "midi_note": 56, "velocity": 58}, {"onset_time": 12.824822, "offset_time": 13.52, "midi_note": 75, "velocity": 73}, {"onset_time": 13.17928, "offset_time": 13.87, "midi_note": 70, "velocity": 54}, {"onset_time": 13.527207, "offset_time": 14.24, "midi_note": 75, "velocity": 75}, {"onset_time": 13.883354, "offset_time": 14.56, "midi_note": 70, "velocity": 63}, {"onset_time": 14.246603, "offset_time": 15.63, "midi_note": 75, "velocity": 78}, {"onset_time": 14.567984, "offset_time": 15.26, "midi_note": 70, "velocity": 70}, {"onset_time": 14.920991, "offset_time": 15.6745, "midi_note": 77, "velocity": 81}, {"onset_time": 15.268436, "offset_time": 15.675619, "midi_note": 70, "velocity": 68}, {"onset_time": 15.632549, "offset_time": 18.42969, "midi_note": 55, "velocity": 63}, {"onset_time": 15.637008, "offset_time": 16.36, "midi_note": 75, "velocity": 72}, {"onset_time": 16.000534, "offset_time": 16.68, "midi_note": 70, "velocity": 69}, {"onset_time": 16.36559, "offset_time": 17.03, "midi_note": 75, "velocity": 78}, {"onset_time": 16.686907, "offset_time": 17.34, "midi_note": 70, "velocity": 54}, {"onset_time": 17.040703, "offset_time": 18.38, "midi_note": 75, "velocity": 77}, {"onset_time": 17.345602, "offset_time": 18.05, "midi_note": 70, "velocity": 66}, {"onset_time": 17.726217, "offset_time": 18.430447, "midi_note": 82, "velocity": 82}, {"onset_time": 18.064648, "offset_time": 18.73, "midi_note": 70, "velocity": 60}, {"onset_time": 18.384928, "offset_time": 21.102972, "midi_note": 53, "velocity": 60}, {"onset_time": 18.393002, "offset_time": 19.06, "midi_note": 75, "velocity": 77}, {"onset_time": 18.737984, "offset_time": 20.69, "midi_note": 70, "velocity": 64}, {"onset_time": 19.068262, "offset_time": 20.33, "midi_note": 75, "velocity": 77}, {"onset_time": 19.387196, "offset_time": 20.01, "midi_note": 77, "velocity": 75}, {"onset_time": 19.724792, "offset_time": 20.11, "midi_note": 79, "velocity": 80}, {"onset_time": 20.018415, "offset_time": 20.23, "midi_note": 77, "velocity": 75}, {"onset_time": 20.119642, "offset_time": 21.104013, "midi_note": 79, "velocity": 76}, {"onset_time": 20.24021, "offset_time": 21.13, "midi_note": 77, "velocity": 73}, {"onset_time": 20.338589, "offset_time": 21.04, "midi_note": 75, "velocity": 79}, {"onset_time": 20.702328, "offset_time": 21.102058, "midi_note": 70, "velocity": 76}, {"onset_time": 21.044037, "offset_time": 23.814968, "midi_note": 58, "velocity": 70}, {"onset_time": 21.046822, "offset_time": 21.73, "midi_note": 75, "velocity": 79}, {"onset_time": 21.388838, "offset_time": 23.81, "midi_note": 70, "velocity": 77}, {"onset_time": 21.739286, "offset_time": 22.81, "midi_note": 75, "velocity": 81}, {"onset_time": 22.068558, "offset_time": 22.62, "midi_note": 77, "velocity": 79}, {"onset_time": 22.395235, "offset_time": 22.79, "midi_note": 79, "velocity": 81}, {"onset_time": 22.690086, "offset_time": 22.88, "midi_note": 77, "velocity": 75}, {"onset_time": 22.804571, "offset_time": 23.35, "midi_note": 79, "velocity": 75}, {"onset_time": 22.889574, "offset_time": 23.41, "midi_note": 77, "velocity": 77}, {"onset_time": 23.071682, "offset_time": 23.8, "midi_note": 75, "velocity": 78}, {"onset_time": 23.415142, "offset_time": 23.813576, "midi_note": 77, "velocity": 76}, {"onset_time": 23.793188, "offset_time": 24.48, "midi_note": 79, "velocity": 75}, {"onset_time": 23.80516, "offset_time": 24.18, "midi_note": 67, "velocity": 66}, {"onset_time": 23.805832, "offset_time": 25.17, "midi_note": 51, "velocity": 61}, {"onset_time": 23.812708, "offset_time": 24.63, "midi_note": 75, "velocity": 66}, {"onset_time": 23.820866, "offset_time": 24.14, "midi_note": 70, "velocity": 67}, {"onset_time": 24.152782, "offset_time": 24.49, "midi_note": 70, "velocity": 72}, {"onset_time": 24.185286, "offset_time": 24.48, "midi_note": 67, "velocity": 51}, {"onset_time": 24.191566, "offset_time": 25.216034, "midi_note": 58, "velocity": 67}, {"onset_time": 24.493488, "offset_time": 25.18, "midi_note": 67, "velocity": 74}, {"onset_time": 24.494318, "offset_time": 25.17, "midi_note": 79, "velocity": 81}, {"onset_time": 24.495173, "offset_time": 24.84, "midi_note": 70, "velocity": 63}, {"onset_time": 24.85093, "offset_time": 25.3, "midi_note": 70, "velocity": 68}, {"onset_time": 25.183552, "offset_time": 25.99, "midi_note": 79, "velocity": 81}, {"onset_time": 25.18482, "offset_time": 26.61, "midi_note": 51, "velocity": 62}, {"onset_time": 25.186346, "offset_time": 25.91, "midi_note": 67, "velocity": 70}, {"onset_time": 25.524744, "offset_time": 26.2, "midi_note": 70, "velocity": 70}, {"onset_time": 25.52558, "offset_time": 25.85, "midi_note": 58, "velocity": 65}, {"onset_time": 25.855017, "offset_time": 26.590212, "midi_note": 80, "velocity": 82}, {"onset_time": 25.85999, "offset_time": 26.58907, "midi_note": 58, "velocity": 54}, {"onset_time": 25.864683, "offset_time": 26.59056, "midi_note": 68, "velocity": 74}, {"onset_time": 25.865564, "offset_time": 26.589027, "midi_note": 65, "velocity": 58}, {"onset_time": 26.213469, "offset_time": 26.57, "midi_note": 70, "velocity": 71}, {"onset_time": 26.544405, "offset_time": 27.27, "midi_note": 79, "velocity": 77}, {"onset_time": 26.557657, "offset_time": 27.97, "midi_note": 50, "velocity": 54}, {"onset_time": 26.55925, "offset_time": 27.5, "midi_note": 62, "velocity": 57}, {"onset_time": 26.560722, "offset_time": 28.87, "midi_note": 74, "velocity": 61}, {"onset_time": 26.56574, "offset_time": 27.3, "midi_note": 67, "velocity": 58}, {"onset_time": 26.575329, "offset_time": 26.9, "midi_note": 70, "velocity": 72}, {"onset_time": 26.9123, "offset_time": 27.66, "midi_note": 70, "velocity": 64}, {"onset_time": 26.948416, "offset_time": 28.34, "midi_note": 58, "velocity": 57}, {"onset_time": 27.284693, "offset_time": 27.96, "midi_note": 79, "velocity": 78}, {"onset_time": 27.286955, "offset_time": 28.06, "midi_note": 65, "velocity": 61}, {"onset_time": 27.312325, "offset_time": 27.97, "midi_note": 67, "velocity": 49}, {"onset_time": 27.6703, "offset_time": 28.29, "midi_note": 70, "velocity": 64}, {"onset_time": 27.972431, "offset_time": 29.33, "midi_note": 79, "velocity": 75}, {"onset_time": 27.97546, "offset_time": 29.398106, "midi_note": 50, "velocity": 62}, {"onset_time": 27.980164, "offset_time": 29.4, "midi_note": 62, "velocity": 59}, {"onset_time": 27.980661, "offset_time": 28.34, "midi_note": 67, "velocity": 64}, {"onset_time": 28.301182, "offset_time": 29.397408, "midi_note": 70, "velocity": 76}, {"onset_time": 28.345062, "offset_time": 29.39511, "midi_note": 58, "velocity": 52}, {"onset_time": 28.348255, "offset_time": 28.67, "midi_note": 67, "velocity": 39}, {"onset_time": 28.645071, "offset_time": 29.32, "midi_note": 75, "velocity": 82}, {"onset_time": 28.675692, "offset_time": 29.36, "midi_note": 67, "velocity": 42}, {"onset_time": 28.68259, "offset_time": 29.395287, "midi_note": 63, "velocity": 61}, {"onset_time": 29.005964, "offset_time": 29.396925, "midi_note": 77, "velocity": 79}, {"onset_time": 29.01122, "offset_time": 29.395382, "midi_note": 65, "velocity": 70}, {"onset_time": 29.333994, "offset_time": 31.2, "midi_note": 75, "velocity": 68}, {"onset_time": 29.336397, "offset_time": 30.05, "midi_note": 79, "velocity": 76}, {"onset_time": 29.344126, "offset_time": 30.71, "midi_note": 48, "velocity": 60}, {"onset_time": 29.356386, "offset_time": 30.79, "midi_note": 60, "velocity": 58}, {"onset_time": 29.363663, "offset_time": 30.06679, "midi_note": 72, "velocity": 69}, {"onset_time": 29.366482, "offset_time": 30.06, "midi_note": 67, "velocity": 64}, {"onset_time": 29.69389, "offset_time": 30.752491, "midi_note": 55, "velocity": 61}, {"onset_time": 29.736765, "offset_time": 30.06, "midi_note": 70, "velocity": 66}, {"onset_time": 30.06495, "offset_time": 30.7, "midi_note": 79, "velocity": 77}, {"onset_time": 30.068697, "offset_time": 30.75248, "midi_note": 63, "velocity": 57}, {"onset_time": 30.070763, "offset_time": 30.39, "midi_note": 70, "velocity": 59}, {"onset_time": 30.073795, "offset_time": 30.71, "midi_note": 67, "velocity": 65}, {"onset_time": 30.404478, "offset_time": 31.06, "midi_note": 70, "velocity": 68}, {"onset_time": 30.714895, "offset_time": 31.4, "midi_note": 79, "velocity": 79}, {"onset_time": 30.715538, "offset_time": 32.17, "midi_note": 48, "velocity": 66}, {"onset_time": 30.72462, "offset_time": 31.4, "midi_note": 67, "velocity": 69}, {"onset_time": 31.06702, "offset_time": 31.43557, "midi_note": 70, "velocity": 71}, {"onset_time": 31.067528, "offset_time": 32.16, "midi_note": 55, "velocity": 58}, {"onset_time": 31.403297, "offset_time": 32.16, "midi_note": 63, "velocity": 67}, {"onset_time": 31.405445, "offset_time": 32.14, "midi_note": 67, "velocity": 70}, {"onset_time": 31.406717, "offset_time": 32.1, "midi_note": 79, "velocity": 75}, {"onset_time": 31.76377, "offset_time": 32.14595, "midi_note": 68, "velocity": 73}, {"onset_time": 31.764097, "offset_time": 32.22, "midi_note": 80, "velocity": 78}, {"onset_time": 32.10351, "offset_time": 33.43, "midi_note": 82, "velocity": 84}, {"onset_time": 32.105404, "offset_time": 33.42, "midi_note": 46, "velocity": 65}, {"onset_time": 32.11073, "offset_time": 32.46, "midi_note": 70, "velocity": 73}, {"onset_time": 32.114895, "offset_time": 33.46, "midi_note": 79, "velocity": 70}, {"onset_time": 32.125637, "offset_time": 32.79, "midi_note": 75, "velocity": 67}, {"onset_time": 32.444553, "offset_time": 33.45471, "midi_note": 55, "velocity": 61}, {"onset_time": 32.46652, "offset_time": 33.12, "midi_note": 70, "velocity": 70}, {"onset_time": 32.79497, "offset_time": 33.459385, "midi_note": 87, "velocity": 83}, {"onset_time": 32.7985, "offset_time": 34.12, "midi_note": 63, "velocity": 59}, {"onset_time": 32.799385, "offset_time": 34.11, "midi_note": 75, "velocity": 79}, {"onset_time": 33.127064, "offset_time": 33.43, "midi_note": 70, "velocity": 72}, {"onset_time": 33.42352, "offset_time": 34.1, "midi_note": 58, "velocity": 62}, {"onset_time": 33.432278, "offset_time": 34.86, "midi_note": 46, "velocity": 59}, {"onset_time": 33.437798, "offset_time": 33.83, "midi_note": 82, "velocity": 82}, {"onset_time": 33.44447, "offset_time": 34.11, "midi_note": 70, "velocity": 79}, {"onset_time": 33.751904, "offset_time": 33.95, "midi_note": 80, "velocity": 78}, {"onset_time": 33.75732, "offset_time": 33.95, "midi_note": 68, "velocity": 67}, {"onset_time": 33.76803, "offset_time": 34.87, "midi_note": 55, "velocity": 61}, {"onset_time": 33.840168, "offset_time": 34.131042, "midi_note": 82, "velocity": 81}, {"onset_time": 33.955097, "offset_time": 34.1302, "midi_note": 80, "velocity": 80}, {"onset_time": 33.95577, "offset_time": 34.129757, "midi_note": 68, "velocity": 61}, {"onset_time": 34.114742, "offset_time": 34.824696, "midi_note": 67, "velocity": 66}, {"onset_time": 34.114952, "offset_time": 34.87, "midi_note": 58, "velocity": 52}, {"onset_time": 34.11525, "offset_time": 34.822445, "midi_note": 79, "velocity": 77}, {"onset_time": 34.1229, "offset_time": 34.825493, "midi_note": 70, "velocity": 62}, {"onset_time": 34.124084, "offset_time": 34.78, "midi_note": 75, "velocity": 62}, {"onset_time": 34.13269, "offset_time": 34.78, "midi_note": 63, "velocity": 59}, {"onset_time": 34.44091, "offset_time": 34.93, "midi_note": 77, "velocity": 80}, {"onset_time": 34.46058, "offset_time": 34.8344, "midi_note": 65, "velocity": 62}, {"onset_time": 34.784515, "offset_time": 36.19, "midi_note": 44, "velocity": 61}, {"onset_time": 34.79089, "offset_time": 35.49, "midi_note": 75, "velocity": 77}, {"onset_time": 34.791374, "offset_time": 35.5, "midi_note": 63, "velocity": 60}, {"onset_time": 34.793015, "offset_time": 36.205723, "midi_note": 72, "velocity": 68}, {"onset_time": 34.79473, "offset_time": 36.18, "midi_note": 68, "velocity": 59}, {"onset_time": 35.143284, "offset_time": 35.84, "midi_note": 51, "velocity": 58}, {"onset_time": 35.146954, "offset_time": 35.84, "midi_note": 70, "velocity": 72}, {"onset_time": 35.495365, "offset_time": 36.21837, "midi_note": 60, "velocity": 62}, {"onset_time": 35.49586, "offset_time": 36.17, "midi_note": 75, "velocity": 78}, {"onset_time": 35.51474, "offset_time": 36.18, "midi_note": 63, "velocity": 64}, {"onset_time": 35.847015, "offset_time": 36.51, "midi_note": 51, "velocity": 57}, {"onset_time": 35.852962, "offset_time": 36.51, "midi_note": 70, "velocity": 69}, {"onset_time": 36.184162, "offset_time": 37.53, "midi_note": 75, "velocity": 81}, {"onset_time": 36.19462, "offset_time": 40.22, "midi_note": 63, "velocity": 68}, {"onset_time": 36.1999, "offset_time": 36.9, "midi_note": 44, "velocity": 63}, {"onset_time": 36.519196, "offset_time": 37.2, "midi_note": 51, "velocity": 60}, {"onset_time": 36.522797, "offset_time": 36.84, "midi_note": 70, "velocity": 66}, {"onset_time": 36.851555, "offset_time": 37.52, "midi_note": 82, "velocity": 81}, {"onset_time": 36.85463, "offset_time": 39.42, "midi_note": 60, "velocity": 62}, {"onset_time": 36.854866, "offset_time": 37.2, "midi_note": 70, "velocity": 78}, {"onset_time": 37.209267, "offset_time": 38.24, "midi_note": 70, "velocity": 69}, {"onset_time": 37.21039, "offset_time": 37.9, "midi_note": 51, "velocity": 65}, {"onset_time": 37.52741, "offset_time": 38.24, "midi_note": 82, "velocity": 78}, {"onset_time": 37.538696, "offset_time": 40.3, "midi_note": 87, "velocity": 83}, {"onset_time": 37.539257, "offset_time": 37.9, "midi_note": 43, "velocity": 60}, {"onset_time": 37.539997, "offset_time": 38.9, "midi_note": 79, "velocity": 67}, {"onset_time": 37.54449, "offset_time": 37.9, "midi_note": 75, "velocity": 77}, {"onset_time": 37.5518, "offset_time": 40.289524, "midi_note": 55, "velocity": 61}, {"onset_time": 37.913914, "offset_time": 39.55, "midi_note": 75, "velocity": 75}, {"onset_time": 37.914234, "offset_time": 38.9, "midi_note": 43, "velocity": 53}, {"onset_time": 37.914608, "offset_time": 38.55, "midi_note": 51, "velocity": 56}, {"onset_time": 38.24521, "offset_time": 39.55, "midi_note": 58, "velocity": 64}, {"onset_time": 38.247234, "offset_time": 39.55, "midi_note": 82, "velocity": 81}, {"onset_time": 38.249374, "offset_time": 39.89, "midi_note": 70, "velocity": 72}, {"onset_time": 38.56082, "offset_time": 39.21, "midi_note": 51, "velocity": 53}, {"onset_time": 38.562065, "offset_time": 40.28772, "midi_note": 80, "velocity": 73}, {"onset_time": 38.90535, "offset_time": 39.87, "midi_note": 43, "velocity": 57}, {"onset_time": 38.907993, "offset_time": 39.3, "midi_note": 79, "velocity": 78}, {"onset_time": 39.219463, "offset_time": 39.86, "midi_note": 51, "velocity": 55}, {"onset_time": 39.22459, "offset_time": 39.41, "midi_note": 77, "velocity": 73}, {"onset_time": 39.313446, "offset_time": 40.28889, "midi_note": 79, "velocity": 76}, {"onset_time": 39.420155, "offset_time": 40.289883, "midi_note": 77, "velocity": 76}, {"onset_time": 39.555733, "offset_time": 40.287437, "midi_note": 58, "velocity": 64}, {"onset_time": 39.55883, "offset_time": 40.285564, "midi_note": 82, "velocity": 76}, {"onset_time": 39.562485, "offset_time": 40.22, "midi_note": 75, "velocity": 80}, {"onset_time": 39.87047, "offset_time": 40.289673, "midi_note": 51, "velocity": 62}, {"onset_time": 39.883255, "offset_time": 40.292034, "midi_note": 43, "velocity": 52}, {"onset_time": 39.89924, "offset_time": 40.288425, "midi_note": 70, "velocity": 78}, {"onset_time": 40.230934, "offset_time": 40.91, "midi_note": 75, "velocity": 80}, {"onset_time": 40.23478, "offset_time": 41.55, "midi_note": 41, "velocity": 61}, {"onset_time": 40.234825, "offset_time": 41.56, "midi_note": 63, "velocity": 66}, {"onset_time": 40.57785, "offset_time": 41.2, "midi_note": 48, "velocity": 56}, {"onset_time": 40.579285, "offset_time": 42.62, "midi_note": 70, "velocity": 72}, {"onset_time": 40.916134, "offset_time": 42.23, "midi_note": 75, "velocity": 82}, {"onset_time": 40.916477, "offset_time": 42.25, "midi_note": 56, "velocity": 61}, {"onset_time": 41.214317, "offset_time": 43.07, "midi_note": 48, "velocity": 58}, {"onset_time": 41.219955, "offset_time": 41.87, "midi_note": 77, "velocity": 75}, {"onset_time": 41.241997, "offset_time": 41.87, "midi_note": 65, "velocity": 63}, {"onset_time": 41.557526, "offset_time": 41.97, "midi_note": 79, "velocity": 80}, {"onset_time": 41.55858, "offset_time": 43.03173, "midi_note": 41, "velocity": 60}, {"onset_time": 41.56652, "offset_time": 41.97, "midi_note": 67, "velocity": 58}, {"onset_time": 41.88343, "offset_time": 43.06, "midi_note": 60, "velocity": 66}, {"onset_time": 41.88393, "offset_time": 42.08, "midi_note": 77, "velocity": 77}, {"onset_time": 41.88455, "offset_time": 42.06, "midi_note": 65, "velocity": 67}, {"onset_time": 41.9831, "offset_time": 43.042034, "midi_note": 79, "velocity": 74}, {"onset_time": 41.983154, "offset_time": 43.041195, "midi_note": 67, "velocity": 63}, {"onset_time": 42.07467, "offset_time": 43.07, "midi_note": 65, "velocity": 65}, {"onset_time": 42.091576, "offset_time": 43.04365, "midi_note": 77, "velocity": 70}, {"onset_time": 42.24009, "offset_time": 42.99, "midi_note": 75, "velocity": 81}, {"onset_time": 42.254414, "offset_time": 43.0, "midi_note": 63, "velocity": 65}, {"onset_time": 42.25889, "offset_time": 43.041367, "midi_note": 56, "velocity": 63}, {"onset_time": 42.617725, "offset_time": 43.04189, "midi_note": 44, "velocity": 68}, {"onset_time": 42.62544, "offset_time": 43.0, "midi_note": 70, "velocity": 82}, {"onset_time": 42.627068, "offset_time": 43.04116, "midi_note": 58, "velocity": 67}, {"onset_time": 42.99355, "offset_time": 44.32, "midi_note": 46, "velocity": 65}, {"onset_time": 43.002773, "offset_time": 43.68, "midi_note": 75, "velocity": 78}, {"onset_time": 43.006706, "offset_time": 43.36, "midi_note": 70, "velocity": 66}, {"onset_time": 43.012943, "offset_time": 43.66, "midi_note": 63, "velocity": 67}, {"onset_time": 43.35663, "offset_time": 44.0, "midi_note": 56, "velocity": 64}, {"onset_time": 43.372055, "offset_time": 44.0, "midi_note": 70, "velocity": 77}, {"onset_time": 43.670967, "offset_time": 44.4, "midi_note": 63, "velocity": 66}, {"onset_time": 43.685947, "offset_time": 44.385147, "midi_note": 75, "velocity": 81}, {"onset_time": 44.0056, "offset_time": 44.02, "midi_note": 82, "velocity": 80}, {"onset_time": 44.005905, "offset_time": 45.51, "midi_note": 56, "velocity": 61}, {"onset_time": 44.00975, "offset_time": 44.94, "midi_note": 70, "velocity": 79}, {"onset_time": 44.334175, "offset_time": 46.15, "midi_note": 46, "velocity": 66}, {"onset_time": 44.350883, "offset_time": 44.79, "midi_note": 80, "velocity": 79}, {"onset_time": 44.358067, "offset_time": 44.8, "midi_note": 68, "velocity": 69}, {"onset_time": 44.68161, "offset_time": 44.88, "midi_note": 67, "velocity": 67}, {"onset_time": 44.68343, "offset_time": 44.88, "midi_note": 79, "velocity": 77}, {"onset_time": 44.801807, "offset_time": 46.124573, "midi_note": 80, "velocity": 77}, {"onset_time": 44.80649, "offset_time": 46.12401, "midi_note": 68, "velocity": 67}, {"onset_time": 44.893772, "offset_time": 46.11842, "midi_note": 79, "velocity": 77}, {"onset_time": 44.8943, "offset_time": 46.12141, "midi_note": 67, "velocity": 67}, {"onset_time": 45.114597, "offset_time": 46.123783, "midi_note": 62, "velocity": 58}, {"onset_time": 45.115047, "offset_time": 46.12251, "midi_note": 77, "velocity": 70}, {"onset_time": 45.122433, "offset_time": 46.121826, "midi_note": 65, "velocity": 54}, {"onset_time": 45.54427, "offset_time": 46.121647, "midi_note": 53, "velocity": 68}, {"onset_time": 46.022808, "offset_time": 46.74, "midi_note": 82, "velocity": 84}, {"onset_time": 46.044533, "offset_time": 46.41, "midi_note": 73, "velocity": 63}, {"onset_time": 46.055798, "offset_time": 46.74, "midi_note": 70, "velocity": 66}, {"onset_time": 46.0572, "offset_time": 47.41, "midi_note": 42, "velocity": 67}, {"onset_time": 46.078423, "offset_time": 48.08, "midi_note": 78, "velocity": 65}, {"onset_time": 46.424892, "offset_time": 47.07, "midi_note": 49, "velocity": 60}, {"onset_time": 46.42495, "offset_time": 47.07, "midi_note": 73, "velocity": 63}, {"onset_time": 46.745358, "offset_time": 47.41, "midi_note": 82, "velocity": 85}, {"onset_time": 46.746162, "offset_time": 47.42, "midi_note": 70, "velocity": 84}, {"onset_time": 46.79511, "offset_time": 48.11, "midi_note": 54, "velocity": 52}, {"onset_time": 46.796738, "offset_time": 48.12, "midi_note": 58, "velocity": 52}, {"onset_time": 47.081852, "offset_time": 47.73, "midi_note": 73, "velocity": 70}, {"onset_time": 47.08276, "offset_time": 47.77, "midi_note": 49, "velocity": 58}, {"onset_time": 47.085308, "offset_time": 47.1, "midi_note": 61, "velocity": 57}, {"onset_time": 47.421715, "offset_time": 48.849876, "midi_note": 42, "velocity": 62}, {"onset_time": 47.423454, "offset_time": 48.77, "midi_note": 82, "velocity": 87}, {"onset_time": 47.425877, "offset_time": 48.78, "midi_note": 70, "velocity": 84}, {"onset_time": 47.744247, "offset_time": 48.41, "midi_note": 73, "velocity": 66}, {"onset_time": 47.776314, "offset_time": 48.11, "midi_note": 49, "velocity": 47}, {"onset_time": 48.0822, "offset_time": 48.8464, "midi_note": 83, "velocity": 84}, {"onset_time": 48.08577, "offset_time": 48.847713, "midi_note": 78, "velocity": 73}, {"onset_time": 48.087032, "offset_time": 48.85256, "midi_note": 71, "velocity": 82}, {"onset_time": 48.115524, "offset_time": 48.42, "midi_note": 49, "velocity": 49}, {"onset_time": 48.122833, "offset_time": 48.85026, "midi_note": 54, "velocity": 54}, {"onset_time": 48.13407, "offset_time": 48.85158, "midi_note": 58, "velocity": 53}, {"onset_time": 48.4238, "offset_time": 48.85141, "midi_note": 73, "velocity": 66}, {"onset_time": 48.425793, "offset_time": 48.44, "midi_note": 61, "velocity": 51}, {"onset_time": 48.428185, "offset_time": 48.851048, "midi_note": 49, "velocity": 54}, {"onset_time": 48.784946, "offset_time": 49.45, "midi_note": 82, "velocity": 78}, {"onset_time": 48.790077, "offset_time": 50.180073, "midi_note": 41, "velocity": 61}, {"onset_time": 48.792114, "offset_time": 49.45, "midi_note": 70, "velocity": 73}, {"onset_time": 48.80078, "offset_time": 49.15, "midi_note": 75, "velocity": 69}, {"onset_time": 49.14705, "offset_time": 49.76, "midi_note": 51, "velocity": 59}, {"onset_time": 49.161877, "offset_time": 49.77, "midi_note": 75, "velocity": 62}, {"onset_time": 49.461956, "offset_time": 50.179897, "midi_note": 56, "velocity": 63}, {"onset_time": 49.462566, "offset_time": 50.13, "midi_note": 82, "velocity": 87}, {"onset_time": 49.464855, "offset_time": 50.14, "midi_note": 70, "velocity": 83}, {"onset_time": 49.77377, "offset_time": 50.18217, "midi_note": 51, "velocity": 53}, {"onset_time": 49.78436, "offset_time": 50.17807, "midi_note": 75, "velocity": 68}, {"onset_time": 50.1428, "offset_time": 51.553883, "midi_note": 46, "velocity": 68}, {"onset_time": 50.14407, "offset_time": 51.51, "midi_note": 82, "velocity": 84}, {"onset_time": 50.14636, "offset_time": 51.57, "midi_note": 77, "velocity": 71}, {"onset_time": 50.146812, "offset_time": 51.52, "midi_note": 70, "velocity": 77}, {"onset_time": 50.1475, "offset_time": 50.49, "midi_note": 74, "velocity": 75}, {"onset_time": 50.495853, "offset_time": 51.552994, "midi_note": 74, "velocity": 64}, {"onset_time": 50.507492, "offset_time": 51.15, "midi_note": 56, "velocity": 52}, {"onset_time": 50.509266, "offset_time": 51.15, "midi_note": 53, "velocity": 56}, {"onset_time": 50.516212, "offset_time": 50.53, "midi_note": 68, "velocity": 47}, {"onset_time": 50.828403, "offset_time": 51.53, "midi_note": 78, "velocity": 89}, {"onset_time": 50.830204, "offset_time": 51.553856, "midi_note": 62, "velocity": 60}, {"onset_time": 50.834885, "offset_time": 51.550907, "midi_note": 66, "velocity": 70}, {"onset_time": 51.14739, "offset_time": 51.7, "midi_note": 80, "velocity": 80}, {"onset_time": 51.155006, "offset_time": 51.55037, "midi_note": 56, "velocity": 60}, {"onset_time": 51.155045, "offset_time": 51.554825, "midi_note": 68, "velocity": 71}, {"onset_time": 51.164196, "offset_time": 51.553585, "midi_note": 53, "velocity": 57}, {"onset_time": 51.51501, "offset_time": 52.18, "midi_note": 82, "velocity": 85}, {"onset_time": 51.5331, "offset_time": 52.86, "midi_note": 39, "velocity": 56}, {"onset_time": 51.533722, "offset_time": 52.18, "midi_note": 70, "velocity": 74}, {"onset_time": 51.535534, "offset_time": 52.18, "midi_note": 51, "velocity": 61}, {"onset_time": 51.536858, "offset_time": 53.54, "midi_note": 78, "velocity": 66}, {"onset_time": 51.537857, "offset_time": 51.85, "midi_note": 75, "velocity": 63}, {"onset_time": 51.852356, "offset_time": 52.52, "midi_note": 46, "velocity": 60}, {"onset_time": 51.855133, "offset_time": 52.52, "midi_note": 75, "velocity": 71}, {"onset_time": 52.185287, "offset_time": 52.86, "midi_note": 82, "velocity": 87}, {"onset_time": 52.18569, "offset_time": 53.55371, "midi_note": 54, "velocity": 68}, {"onset_time": 52.190777, "offset_time": 52.54, "midi_note": 70, "velocity": 84}, {"onset_time": 52.194897, "offset_time": 53.57, "midi_note": 51, "velocity": 64}, {"onset_time": 52.531246, "offset_time": 53.17, "midi_note": 75, "velocity": 81}, {"onset_time": 52.53452, "offset_time": 53.18, "midi_note": 46, "velocity": 59}, {"onset_time": 52.554367, "offset_time": 52.86, "midi_note": 70, "velocity": 53}, {"onset_time": 52.86516, "offset_time": 53.555305, "midi_note": 82, "velocity": 92}, {"onset_time": 52.865566, "offset_time": 53.554073, "midi_note": 39, "velocity": 60}, {"onset_time": 52.867687, "offset_time": 53.555187, "midi_note": 70, "velocity": 87}, {"onset_time": 53.183254, "offset_time": 53.77, "midi_note": 75, "velocity": 79}, {"onset_time": 53.185883, "offset_time": 53.547047, "midi_note": 46, "velocity": 53}, {"onset_time": 53.525043, "offset_time": 54.236572, "midi_note": 83, "velocity": 94}, {"onset_time": 53.526394, "offset_time": 54.23546, "midi_note": 38, "velocity": 70}, {"onset_time": 53.530586, "offset_time": 54.2, "midi_note": 80, "velocity": 83}, {"onset_time": 53.53306, "offset_time": 54.239346, "midi_note": 71, "velocity": 86}, {"onset_time": 53.874916, "offset_time": 54.233517, "midi_note": 50, "velocity": 60}, {"onset_time": 53.875675, "offset_time": 54.24506, "midi_note": 47, "velocity": 62}, {"onset_time": 54.206635, "offset_time": 55.53, "midi_note": 73, "velocity": 84}, {"onset_time": 54.210655, "offset_time": 55.54, "midi_note": 80, "velocity": 80}, {"onset_time": 54.212395, "offset_time": 55.52, "midi_note": 85, "velocity": 89}, {"onset_time": 54.21422, "offset_time": 55.524837, "midi_note": 37, "velocity": 66}, {"onset_time": 54.2155, "offset_time": 55.530872, "midi_note": 76, "velocity": 73}, {"onset_time": 54.54336, "offset_time": 55.52429, "midi_note": 44, "velocity": 59}, {"onset_time": 54.547363, "offset_time": 55.18, "midi_note": 78, "velocity": 75}, {"onset_time": 54.880157, "offset_time": 55.54, "midi_note": 90, "velocity": 80}, {"onset_time": 54.895557, "offset_time": 56.49, "midi_note": 49, "velocity": 49}, {"onset_time": 55.19172, "offset_time": 55.55, "midi_note": 56, "velocity": 60}, {"onset_time": 55.19446, "offset_time": 56.97, "midi_note": 78, "velocity": 68}, {"onset_time": 55.525917, "offset_time": 57.046085, "midi_note": 42, "velocity": 68}, {"onset_time": 55.530968, "offset_time": 55.93, "midi_note": 85, "velocity": 81}, {"onset_time": 55.53584, "offset_time": 57.04545, "midi_note": 73, "velocity": 74}, {"onset_time": 55.83619, "offset_time": 57.045734, "midi_note": 71, "velocity": 71}, {"onset_time": 55.849266, "offset_time": 56.03, "midi_note": 83, "velocity": 74}, {"onset_time": 55.85477, "offset_time": 57.044983, "midi_note": 61, "velocity": 57}, {"onset_time": 55.93727, "offset_time": 57.0464, "midi_note": 85, "velocity": 78}, {"onset_time": 56.04233, "offset_time": 57.046055, "midi_note": 83, "velocity": 76}, {"onset_time": 56.174465, "offset_time": 57.044937, "midi_note": 58, "velocity": 63}, {"onset_time": 56.17522, "offset_time": 57.04647, "midi_note": 54, "velocity": 56}, {"onset_time": 56.212082, "offset_time": 57.04672, "midi_note": 82, "velocity": 82}, {"onset_time": 56.21426, "offset_time": 57.047688, "midi_note": 70, "velocity": 83}, {"onset_time": 56.504307, "offset_time": 57.07, "midi_note": 49, "velocity": 62}, {"onset_time": 56.544456, "offset_time": 57.04508, "midi_note": 80, "velocity": 78}, {"onset_time": 56.54796, "offset_time": 57.04553, "midi_note": 68, "velocity": 72}, {"onset_time": 56.944134, "offset_time": 59.690685, "midi_note": 47, "velocity": 59}, {"onset_time": 56.952427, "offset_time": 57.64, "midi_note": 90, "velocity": 77}, {"onset_time": 56.984245, "offset_time": 58.73, "midi_note": 78, "velocity": 70}, {"onset_time": 57.31116, "offset_time": 57.97, "midi_note": 54, "velocity": 57}, {"onset_time": 57.348602, "offset_time": 57.97, "midi_note": 85, "velocity": 66}, {"onset_time": 57.645588, "offset_time": 58.941895, "midi_note": 59, "velocity": 55}, {"onset_time": 57.65123, "offset_time": 58.3, "midi_note": 90, "velocity": 78}, {"onset_time": 57.978516, "offset_time": 58.61, "midi_note": 54, "velocity": 55}, {"onset_time": 57.98171, "offset_time": 58.67, "midi_note": 85, "velocity": 58}, {"onset_time": 58.308514, "offset_time": 59.694077, "midi_note": 61, "velocity": 53}, {"onset_time": 58.312336, "offset_time": 59.65, "midi_note": 90, "velocity": 79}, {"onset_time": 58.619217, "offset_time": 59.693825, "midi_note": 54, "velocity": 60}, {"onset_time": 58.67595, "offset_time": 58.96, "midi_note": 85, "velocity": 51}, {"onset_time": 58.949966, "offset_time": 59.692604, "midi_note": 63, "velocity": 64}, {"onset_time": 58.958103, "offset_time": 59.73, "midi_note": 97, "velocity": 87}, {"onset_time": 58.97043, "offset_time": 59.32, "midi_note": 85, "velocity": 68}, {"onset_time": 59.32627, "offset_time": 59.69042, "midi_note": 85, "velocity": 54}, {"onset_time": 59.654682, "offset_time": 60.99, "midi_note": 46, "velocity": 70}, {"onset_time": 59.657368, "offset_time": 61.45, "midi_note": 90, "velocity": 82}, {"onset_time": 59.67355, "offset_time": 61.0, "midi_note": 94, "velocity": 81}, {"onset_time": 60.028297, "offset_time": 60.35, "midi_note": 85, "velocity": 63}, {"onset_time": 60.05533, "offset_time": 60.68, "midi_note": 54, "velocity": 55}, {"onset_time": 60.35063, "offset_time": 61.7, "midi_note": 97, "velocity": 86}, {"onset_time": 60.355816, "offset_time": 61.7, "midi_note": 61, "velocity": 54}, {"onset_time": 60.36467, "offset_time": 62.0, "midi_note": 85, "velocity": 68}, {"onset_time": 60.683613, "offset_time": 60.69, "midi_note": 95, "velocity": 89}, {"onset_time": 60.693554, "offset_time": 61.31, "midi_note": 54, "velocity": 52}, {"onset_time": 60.997803, "offset_time": 62.345, "midi_note": 46, "velocity": 62}, {"onset_time": 61.00506, "offset_time": 61.41, "midi_note": 94, "velocity": 82}, {"onset_time": 61.00631, "offset_time": 62.346504, "midi_note": 82, "velocity": 72}, {"onset_time": 61.317543, "offset_time": 61.99, "midi_note": 54, "velocity": 58}, {"onset_time": 61.322998, "offset_time": 61.54, "midi_note": 92, "velocity": 84}, {"onset_time": 61.32309, "offset_time": 61.54, "midi_note": 80, "velocity": 65}, {"onset_time": 61.424953, "offset_time": 62.36, "midi_note": 94, "velocity": 85}, {"onset_time": 61.551186, "offset_time": 62.34414, "midi_note": 92, "velocity": 79}, {"onset_time": 61.55243, "offset_time": 62.34267, "midi_note": 80, "velocity": 50}, {"onset_time": 61.703773, "offset_time": 62.36, "midi_note": 90, "velocity": 81}, {"onset_time": 61.70525, "offset_time": 62.346207, "midi_note": 61, "velocity": 55}, {"onset_time": 61.705593, "offset_time": 62.347122, "midi_note": 78, "velocity": 67}, {"onset_time": 62.0038, "offset_time": 62.37, "midi_note": 54, "velocity": 65}, {"onset_time": 62.012722, "offset_time": 62.39, "midi_note": 85, "velocity": 76}, {"onset_time": 62.355774, "offset_time": 63.11, "midi_note": 44, "velocity": 60}, {"onset_time": 62.3731, "offset_time": 63.05, "midi_note": 90, "velocity": 81}, {"onset_time": 62.70516, "offset_time": 64.83, "midi_note": 85, "velocity": 79}, {"onset_time": 62.70575, "offset_time": 65.31681, "midi_note": 54, "velocity": 67}, {"onset_time": 62.709515, "offset_time": 64.83, "midi_note": 73, "velocity": 71}, {"onset_time": 63.026512, "offset_time": 65.31759, "midi_note": 59, "velocity": 67}, {"onset_time": 63.05627, "offset_time": 64.48, "midi_note": 90, "velocity": 81}, {"onset_time": 63.068695, "offset_time": 64.49, "midi_note": 78, "velocity": 70}, {"onset_time": 63.370842, "offset_time": 65.31692, "midi_note": 63, "velocity": 65}, {"onset_time": 63.375423, "offset_time": 64.15, "midi_note": 92, "velocity": 88}, {"onset_time": 63.384842, "offset_time": 64.15, "midi_note": 80, "velocity": 74}, {"onset_time": 63.7484, "offset_time": 65.31919, "midi_note": 70, "velocity": 80}, {"onset_time": 63.764675, "offset_time": 64.24, "midi_note": 94, "velocity": 89}, {"onset_time": 63.76688, "offset_time": 64.25, "midi_note": 82, "velocity": 83}, {"onset_time": 64.15727, "offset_time": 64.33, "midi_note": 92, "velocity": 75}, {"onset_time": 64.15776, "offset_time": 64.34, "midi_note": 80, "velocity": 61}, {"onset_time": 64.252655, "offset_time": 65.31693, "midi_note": 94, "velocity": 77}, {"onset_time": 64.26376, "offset_time": 65.34, "midi_note": 82, "velocity": 71}, {"onset_time": 64.34313, "offset_time": 65.31601, "midi_note": 92, "velocity": 72}, {"onset_time": 64.34501, "offset_time": 65.315315, "midi_note": 80, "velocity": 65}, {"onset_time": 64.492256, "offset_time": 65.25, "midi_note": 90, "velocity": 79}, {"onset_time": 64.50077, "offset_time": 65.31493, "midi_note": 78, "velocity": 70}, {"onset_time": 64.84389, "offset_time": 65.63, "midi_note": 85, "velocity": 76}, {"onset_time": 64.84442, "offset_time": 65.31521, "midi_note": 73, "velocity": 70}, {"onset_time": 65.24151, "offset_time": 66.56, "midi_note": 49, "velocity": 65}, {"onset_time": 65.26189, "offset_time": 66.0, "midi_note": 90, "velocity": 65}, {"onset_time": 65.63631, "offset_time": 69.02501, "midi_note": 59, "velocity": 67}, {"onset_time": 65.636665, "offset_time": 68.91, "midi_note": 85, "velocity": 68}, {"onset_time": 65.63912, "offset_time": 69.64, "midi_note": 61, "velocity": 65}, {"onset_time": 66.01267, "offset_time": 68.26, "midi_note": 66, "velocity": 74}, {"onset_time": 66.01355, "offset_time": 68.25, "midi_note": 90, "velocity": 78}, {"onset_time": 66.01496, "offset_time": 68.74, "midi_note": 78, "velocity": 70}, {"onset_time": 66.4056, "offset_time": 69.03106, "midi_note": 97, "velocity": 80}, {"onset_time": 66.41502, "offset_time": 69.03309, "midi_note": 73, "velocity": 73}, {"onset_time": 66.42677, "offset_time": 66.85, "midi_note": 89, "velocity": 51}, {"onset_time": 66.81601, "offset_time": 67.36, "midi_note": 71, "velocity": 71}, {"onset_time": 66.8366, "offset_time": 67.4, "midi_note": 95, "velocity": 79}, {"onset_time": 66.8555, "offset_time": 69.06, "midi_note": 89, "velocity": 49}, {"onset_time": 67.27537, "offset_time": 67.54, "midi_note": 70, "velocity": 69}, {"onset_time": 67.27629, "offset_time": 67.54, "midi_note": 94, "velocity": 75}, {"onset_time": 67.28055, "offset_time": 68.84, "midi_note": 82, "velocity": 60}, {"onset_time": 67.37472, "offset_time": 69.05, "midi_note": 71, "velocity": 65}, {"onset_time": 67.410934, "offset_time": 69.06, "midi_note": 95, "velocity": 67}, {"onset_time": 67.41285, "offset_time": 69.03078, "midi_note": 80, "velocity": 47}, {"onset_time": 67.41433, "offset_time": 69.06, "midi_note": 83, "velocity": 54}, {"onset_time": 67.547195, "offset_time": 69.0316, "midi_note": 70, "velocity": 72}, {"onset_time": 67.554825, "offset_time": 69.0335, "midi_note": 94, "velocity": 82}, {"onset_time": 67.74318, "offset_time": 69.026764, "midi_note": 68, "velocity": 76}, {"onset_time": 67.74531, "offset_time": 69.03128, "midi_note": 92, "velocity": 78}, {"onset_time": 68.257965, "offset_time": 69.02, "midi_note": 90, "velocity": 76}, {"onset_time": 68.273865, "offset_time": 68.98, "midi_note": 66, "velocity": 70}, {"onset_time": 68.75237, "offset_time": 72.5, "midi_note": 78, "velocity": 65}, {"onset_time": 68.84745, "offset_time": 69.03386, "midi_note": 82, "velocity": 71}, {"onset_time": 68.92286, "offset_time": 72.5, "midi_note": 85, "velocity": 68}, {"onset_time": 68.993866, "offset_time": 71.48, "midi_note": 66, "velocity": 56}, {"onset_time": 69.025955, "offset_time": 72.5, "midi_note": 54, "velocity": 61}, {"onset_time": 69.03262, "offset_time": 72.5, "midi_note": 90, "velocity": 78}, {"onset_time": 69.65217, "offset_time": 70.68, "midi_note": 61, "velocity": 66}, {"onset_time": 70.168465, "offset_time": 71.22, "midi_note": 70, "velocity": 73}, {"onset_time": 70.68861, "offset_time": 71.98, "midi_note": 61, "velocity": 49}, {"onset_time": 71.2332, "offset_time": 77.23, "midi_note": 70, "velocity": 72}, {"onset_time": 71.99094, "offset_time": 77.5, "midi_note": 61, "velocity": 64}, {"onset_time": 72.994484, "offset_time": 77.5, "midi_note": 54, "velocity": 48}]
