[{"onset_time": 0.6115822, "offset_time": 1.22, "midi_note": 43, "velocity": 42}, {"onset_time": 0.91158116, "offset_time": 1.47, "midi_note": 50, "velocity": 38}, {"onset_time": 1.1987973, "offset_time": 2.389144, "midi_note": 57, "velocity": 42}, {"onset_time": 1.4848549, "offset_time": 2.41, "midi_note": 50, "velocity": 42}, {"onset_time": 1.7867327, "offset_time": 2.3864493, "midi_note": 59, "velocity": 38}, {"onset_time": 2.3339891, "offset_time": 2.75, "midi_note": 43, "velocity": 43}, {"onset_time": 2.6252885, "offset_time": 3.15, "midi_note": 50, "velocity": 42}, {"onset_time": 2.8815901, "offset_time": 4.1210046, "midi_note": 57, "velocity": 37}, {"onset_time": 3.1552293, "offset_time": 4.118166, "midi_note": 50, "velocity": 42}, {"onset_time": 3.4642174, "offset_time": 4.117011, "midi_note": 59, "velocity": 35}, {"onset_time": 4.0824976, "offset_time": 5.9, "midi_note": 43, "velocity": 43}, {"onset_time": 4.0833144, "offset_time": 5.972101, "midi_note": 86, "velocity": 63}, {"onset_time": 4.4143353, "offset_time": 4.83, "midi_note": 50, "velocity": 41}, {"onset_time": 4.712248, "offset_time": 5.78, "midi_note": 57, "velocity": 39}, {"onset_time": 4.718034, "offset_time": 5.972851, "midi_note": 83, "velocity": 59}, {"onset_time": 5.010952, "offset_time": 5.970812, "midi_note": 50, "velocity": 42}, {"onset_time": 5.285595, "offset_time": 5.83, "midi_note": 79, "velocity": 56}, {"onset_time": 5.3139343, "offset_time": 5.9657583, "midi_note": 59, "velocity": 35}, {"onset_time": 5.7926993, "offset_time": 5.8, "midi_note": 74, "velocity": 35}, {"onset_time": 5.804377, "offset_time": 7.605191, "midi_note": 76, "velocity": 43}, {"onset_time": 5.837691, "offset_time": 7.64, "midi_note": 79, "velocity": 50}, {"onset_time": 5.9057026, "offset_time": 6.23, "midi_note": 43, "velocity": 42}, {"onset_time": 5.9371085, "offset_time": 7.606288, "midi_note": 84, "velocity": 65}, {"onset_time": 6.21497, "offset_time": 6.77, "midi_note": 52, "velocity": 40}, {"onset_time": 6.4697485, "offset_time": 7.6076713, "midi_note": 55, "velocity": 42}, {"onset_time": 6.775724, "offset_time": 7.6066365, "midi_note": 52, "velocity": 35}, {"onset_time": 7.0678825, "offset_time": 7.6076927, "midi_note": 60, "velocity": 34}, {"onset_time": 7.680761, "offset_time": 9.526012, "midi_note": 84, "velocity": 64}, {"onset_time": 7.6844864, "offset_time": 7.99, "midi_note": 43, "velocity": 45}, {"onset_time": 7.964879, "offset_time": 8.5, "midi_note": 54, "velocity": 48}, {"onset_time": 8.240726, "offset_time": 9.527578, "midi_note": 57, "velocity": 42}, {"onset_time": 8.243548, "offset_time": 9.47, "midi_note": 83, "velocity": 62}, {"onset_time": 8.512899, "offset_time": 9.526441, "midi_note": 54, "velocity": 38}, {"onset_time": 8.814544, "offset_time": 9.528939, "midi_note": 62, "velocity": 36}, {"onset_time": 9.113545, "offset_time": 9.527383, "midi_note": 81, "velocity": 59}, {"onset_time": 9.115977, "offset_time": 9.47, "midi_note": 43, "velocity": 27}, {"onset_time": 9.47733, "offset_time": 11.25, "midi_note": 83, "velocity": 60}, {"onset_time": 9.481654, "offset_time": 11.72, "midi_note": 74, "velocity": 47}, {"onset_time": 9.483569, "offset_time": 11.27, "midi_note": 43, "velocity": 42}, {"onset_time": 9.810744, "offset_time": 10.33, "midi_note": 50, "velocity": 39}, {"onset_time": 10.063758, "offset_time": 11.2752285, "midi_note": 57, "velocity": 41}, {"onset_time": 10.335851, "offset_time": 11.275965, "midi_note": 50, "velocity": 41}, {"onset_time": 10.632004, "offset_time": 11.276783, "midi_note": 59, "velocity": 34}, {"onset_time": 11.260316, "offset_time": 12.99, "midi_note": 83, "velocity": 65}, {"onset_time": 11.275262, "offset_time": 12.94, "midi_note": 43, "velocity": 45}, {"onset_time": 11.555621, "offset_time": 12.08, "midi_note": 50, "velocity": 41}, {"onset_time": 11.835186, "offset_time": 12.916964, "midi_note": 57, "velocity": 41}, {"onset_time": 11.840235, "offset_time": 12.924879, "midi_note": 79, "velocity": 60}, {"onset_time": 12.087723, "offset_time": 12.924048, "midi_note": 50, "velocity": 45}, {"onset_time": 12.375956, "offset_time": 12.924508, "midi_note": 59, "velocity": 43}, {"onset_time": 12.380599, "offset_time": 12.922173, "midi_note": 74, "velocity": 51}, {"onset_time": 12.808193, "offset_time": 14.635936, "midi_note": 72, "velocity": 47}, {"onset_time": 12.86393, "offset_time": 14.63664, "midi_note": 76, "velocity": 52}, {"onset_time": 12.945372, "offset_time": 14.66, "midi_note": 43, "velocity": 39}, {"onset_time": 12.951937, "offset_time": 14.62, "midi_note": 81, "velocity": 60}, {"onset_time": 13.208217, "offset_time": 13.73, "midi_note": 52, "velocity": 39}, {"onset_time": 13.473625, "offset_time": 14.635569, "midi_note": 55, "velocity": 41}, {"onset_time": 13.744028, "offset_time": 14.634663, "midi_note": 52, "velocity": 31}, {"onset_time": 14.06572, "offset_time": 14.636103, "midi_note": 78, "velocity": 60}, {"onset_time": 14.07864, "offset_time": 14.637596, "midi_note": 60, "velocity": 37}, {"onset_time": 14.3317175, "offset_time": 14.645574, "midi_note": 79, "velocity": 59}, {"onset_time": 14.631696, "offset_time": 16.454678, "midi_note": 81, "velocity": 63}, {"onset_time": 14.671936, "offset_time": 16.45, "midi_note": 43, "velocity": 35}, {"onset_time": 14.95925, "offset_time": 15.51, "midi_note": 54, "velocity": 41}, {"onset_time": 15.229836, "offset_time": 16.43, "midi_note": 79, "velocity": 59}, {"onset_time": 15.237919, "offset_time": 16.455002, "midi_note": 57, "velocity": 38}, {"onset_time": 15.519739, "offset_time": 16.455475, "midi_note": 54, "velocity": 39}, {"onset_time": 15.846147, "offset_time": 16.453676, "midi_note": 78, "velocity": 60}, {"onset_time": 15.851175, "offset_time": 16.462074, "midi_note": 62, "velocity": 32}, {"onset_time": 16.301153, "offset_time": 18.19, "midi_note": 71, "velocity": 38}, {"onset_time": 16.36475, "offset_time": 18.18, "midi_note": 74, "velocity": 41}, {"onset_time": 16.440817, "offset_time": 18.2, "midi_note": 79, "velocity": 52}, {"onset_time": 16.456467, "offset_time": 18.18, "midi_note": 43, "velocity": 41}, {"onset_time": 16.754751, "offset_time": 17.27, "midi_note": 50, "velocity": 40}, {"onset_time": 17.025633, "offset_time": 18.16077, "midi_note": 57, "velocity": 34}, {"onset_time": 17.282541, "offset_time": 18.162066, "midi_note": 50, "velocity": 41}, {"onset_time": 17.574976, "offset_time": 18.164558, "midi_note": 59, "velocity": 35}, {"onset_time": 18.187246, "offset_time": 19.78, "midi_note": 43, "velocity": 44}, {"onset_time": 18.1945, "offset_time": 19.34, "midi_note": 74, "velocity": 57}, {"onset_time": 18.505014, "offset_time": 19.02, "midi_note": 50, "velocity": 47}, {"onset_time": 18.76503, "offset_time": 19.354424, "midi_note": 71, "velocity": 60}, {"onset_time": 18.774817, "offset_time": 19.39, "midi_note": 57, "velocity": 44}, {"onset_time": 19.02579, "offset_time": 19.914558, "midi_note": 50, "velocity": 47}, {"onset_time": 19.32291, "offset_time": 19.910868, "midi_note": 67, "velocity": 61}, {"onset_time": 19.324842, "offset_time": 19.910267, "midi_note": 59, "velocity": 45}, {"onset_time": 19.919086, "offset_time": 21.57, "midi_note": 43, "velocity": 45}, {"onset_time": 19.919436, "offset_time": 21.57, "midi_note": 72, "velocity": 65}, {"onset_time": 20.187338, "offset_time": 20.7, "midi_note": 52, "velocity": 35}, {"onset_time": 20.464748, "offset_time": 21.487286, "midi_note": 55, "velocity": 46}, {"onset_time": 20.71344, "offset_time": 21.52, "midi_note": 52, "velocity": 40}, {"onset_time": 21.011047, "offset_time": 21.488243, "midi_note": 60, "velocity": 39}, {"onset_time": 21.435738, "offset_time": 22.66, "midi_note": 62, "velocity": 32}, {"onset_time": 21.473404, "offset_time": 23.26, "midi_note": 66, "velocity": 42}, {"onset_time": 21.576813, "offset_time": 23.29, "midi_note": 43, "velocity": 43}, {"onset_time": 21.578972, "offset_time": 22.46, "midi_note": 72, "velocity": 66}, {"onset_time": 21.847593, "offset_time": 22.38, "midi_note": 54, "velocity": 45}, {"onset_time": 22.131882, "offset_time": 23.264278, "midi_note": 57, "velocity": 43}, {"onset_time": 22.132776, "offset_time": 23.26, "midi_note": 71, "velocity": 57}, {"onset_time": 22.385597, "offset_time": 23.2694, "midi_note": 54, "velocity": 45}, {"onset_time": 22.674925, "offset_time": 23.3, "midi_note": 62, "velocity": 29}, {"onset_time": 22.957394, "offset_time": 23.272831, "midi_note": 69, "velocity": 47}, {"onset_time": 22.960266, "offset_time": 22.97, "midi_note": 55, "velocity": 30}, {"onset_time": 23.266825, "offset_time": 24.94, "midi_note": 71, "velocity": 48}, {"onset_time": 23.295746, "offset_time": 24.97, "midi_note": 43, "velocity": 44}, {"onset_time": 23.305851, "offset_time": 24.993319, "midi_note": 62, "velocity": 25}, {"onset_time": 23.581059, "offset_time": 24.12, "midi_note": 50, "velocity": 39}, {"onset_time": 23.871931, "offset_time": 24.993757, "midi_note": 57, "velocity": 32}, {"onset_time": 24.13499, "offset_time": 25.02, "midi_note": 50, "velocity": 37}, {"onset_time": 24.432972, "offset_time": 24.992733, "midi_note": 59, "velocity": 33}, {"onset_time": 24.949856, "offset_time": 26.64, "midi_note": 71, "velocity": 57}, {"onset_time": 24.97571, "offset_time": 26.61, "midi_note": 43, "velocity": 42}, {"onset_time": 25.24809, "offset_time": 25.68, "midi_note": 50, "velocity": 42}, {"onset_time": 25.516878, "offset_time": 26.620026, "midi_note": 67, "velocity": 58}, {"onset_time": 25.519272, "offset_time": 25.53, "midi_note": 57, "velocity": 43}, {"onset_time": 25.545307, "offset_time": 26.49, "midi_note": 55, "velocity": 34}, {"onset_time": 25.775833, "offset_time": 26.618181, "midi_note": 50, "velocity": 40}, {"onset_time": 26.065723, "offset_time": 26.61819, "midi_note": 59, "velocity": 40}, {"onset_time": 26.073702, "offset_time": 26.617659, "midi_note": 62, "velocity": 35}, {"onset_time": 26.496809, "offset_time": 26.91, "midi_note": 55, "velocity": 21}, {"onset_time": 26.49794, "offset_time": 27.74, "midi_note": 60, "velocity": 27}, {"onset_time": 26.544477, "offset_time": 28.28, "midi_note": 64, "velocity": 27}, {"onset_time": 26.613575, "offset_time": 28.244677, "midi_note": 69, "velocity": 47}, {"onset_time": 26.621117, "offset_time": 28.23599, "midi_note": 43, "velocity": 45}, {"onset_time": 26.905262, "offset_time": 27.41, "midi_note": 52, "velocity": 33}, {"onset_time": 27.180195, "offset_time": 28.249825, "midi_note": 55, "velocity": 35}, {"onset_time": 27.41868, "offset_time": 28.253365, "midi_note": 52, "velocity": 34}, {"onset_time": 27.728699, "offset_time": 28.27, "midi_note": 66, "velocity": 43}, {"onset_time": 27.747627, "offset_time": 28.255919, "midi_note": 60, "velocity": 38}, {"onset_time": 28.0414, "offset_time": 28.291353, "midi_note": 67, "velocity": 57}, {"onset_time": 28.307518, "offset_time": 29.54, "midi_note": 69, "velocity": 45}, {"onset_time": 28.3258, "offset_time": 30.24, "midi_note": 43, "velocity": 44}, {"onset_time": 28.61965, "offset_time": 29.2, "midi_note": 54, "velocity": 43}, {"onset_time": 28.917503, "offset_time": 29.559471, "midi_note": 67, "velocity": 48}, {"onset_time": 28.934074, "offset_time": 30.32, "midi_note": 57, "velocity": 38}, {"onset_time": 28.952713, "offset_time": 30.25, "midi_note": 55, "velocity": 38}, {"onset_time": 29.20806, "offset_time": 30.332516, "midi_note": 54, "velocity": 39}, {"onset_time": 29.522793, "offset_time": 30.302324, "midi_note": 66, "velocity": 42}, {"onset_time": 29.552866, "offset_time": 30.293627, "midi_note": 62, "velocity": 26}, {"onset_time": 30.24185, "offset_time": 30.8, "midi_note": 67, "velocity": 45}, {"onset_time": 30.254192, "offset_time": 31.3, "midi_note": 43, "velocity": 31}, {"onset_time": 30.257725, "offset_time": 31.94, "midi_note": 55, "velocity": 33}, {"onset_time": 30.55362, "offset_time": 31.06, "midi_note": 50, "velocity": 43}, {"onset_time": 30.558096, "offset_time": 31.31, "midi_note": 66, "velocity": 32}, {"onset_time": 30.814552, "offset_time": 31.906525, "midi_note": 67, "velocity": 49}, {"onset_time": 30.83572, "offset_time": 31.91, "midi_note": 57, "velocity": 40}, {"onset_time": 31.074638, "offset_time": 31.905464, "midi_note": 50, "velocity": 48}, {"onset_time": 31.076012, "offset_time": 31.92, "midi_note": 69, "velocity": 49}, {"onset_time": 31.31444, "offset_time": 31.93, "midi_note": 71, "velocity": 56}, {"onset_time": 31.314568, "offset_time": 31.88, "midi_note": 43, "velocity": 30}, {"onset_time": 31.3338, "offset_time": 31.92, "midi_note": 59, "velocity": 41}, {"onset_time": 31.595284, "offset_time": 31.927618, "midi_note": 72, "velocity": 61}, {"onset_time": 31.799143, "offset_time": 34.15, "midi_note": 64, "velocity": 26}, {"onset_time": 31.886799, "offset_time": 33.03, "midi_note": 74, "velocity": 53}, {"onset_time": 31.894842, "offset_time": 34.1, "midi_note": 43, "velocity": 54}, {"onset_time": 32.155334, "offset_time": 32.71, "midi_note": 52, "velocity": 42}, {"onset_time": 32.425526, "offset_time": 34.16642, "midi_note": 55, "velocity": 47}, {"onset_time": 32.718018, "offset_time": 33.44, "midi_note": 52, "velocity": 36}, {"onset_time": 32.726856, "offset_time": 34.19, "midi_note": 76, "velocity": 53}, {"onset_time": 33.043495, "offset_time": 33.92, "midi_note": 74, "velocity": 43}, {"onset_time": 33.052032, "offset_time": 34.16, "midi_note": 60, "velocity": 31}, {"onset_time": 33.42459, "offset_time": 34.16423, "midi_note": 72, "velocity": 48}, {"onset_time": 33.447685, "offset_time": 34.162468, "midi_note": 52, "velocity": 32}, {"onset_time": 33.932804, "offset_time": 35.63, "midi_note": 74, "velocity": 40}, {"onset_time": 33.99545, "offset_time": 35.93, "midi_note": 79, "velocity": 52}, {"onset_time": 34.114647, "offset_time": 35.93, "midi_note": 43, "velocity": 42}, {"onset_time": 34.12541, "offset_time": 35.94, "midi_note": 83, "velocity": 59}, {"onset_time": 34.44789, "offset_time": 34.96, "midi_note": 50, "velocity": 43}, {"onset_time": 34.695496, "offset_time": 35.92, "midi_note": 57, "velocity": 46}, {"onset_time": 34.96689, "offset_time": 35.5, "midi_note": 50, "velocity": 48}, {"onset_time": 35.22534, "offset_time": 35.90264, "midi_note": 86, "velocity": 67}, {"onset_time": 35.233765, "offset_time": 35.92, "midi_note": 55, "velocity": 35}, {"onset_time": 35.254517, "offset_time": 35.90089, "midi_note": 59, "velocity": 45}, {"onset_time": 35.51279, "offset_time": 35.900322, "midi_note": 50, "velocity": 46}, {"onset_time": 35.8757, "offset_time": 36.93, "midi_note": 81, "velocity": 63}, {"onset_time": 35.883633, "offset_time": 37.5, "midi_note": 74, "velocity": 48}, {"onset_time": 35.885387, "offset_time": 37.524586, "midi_note": 42, "velocity": 49}, {"onset_time": 36.152096, "offset_time": 37.52494, "midi_note": 50, "velocity": 46}, {"onset_time": 36.395252, "offset_time": 37.52566, "midi_note": 57, "velocity": 42}, {"onset_time": 36.655155, "offset_time": 37.2, "midi_note": 54, "velocity": 43}, {"onset_time": 36.94344, "offset_time": 37.52542, "midi_note": 81, "velocity": 62}, {"onset_time": 36.94888, "offset_time": 37.52478, "midi_note": 86, "velocity": 63}, {"onset_time": 36.956665, "offset_time": 37.525723, "midi_note": 62, "velocity": 39}, {"onset_time": 37.20528, "offset_time": 37.52437, "midi_note": 54, "velocity": 45}, {"onset_time": 37.5018, "offset_time": 39.11, "midi_note": 79, "velocity": 57}, {"onset_time": 37.505016, "offset_time": 38.07, "midi_note": 74, "velocity": 45}, {"onset_time": 37.539257, "offset_time": 38.68, "midi_note": 40, "velocity": 37}, {"onset_time": 37.79506, "offset_time": 39.12, "midi_note": 81, "velocity": 57}, {"onset_time": 37.806046, "offset_time": 38.66, "midi_note": 52, "velocity": 43}, {"onset_time": 38.07537, "offset_time": 38.87, "midi_note": 55, "velocity": 49}, {"onset_time": 38.075996, "offset_time": 39.11756, "midi_note": 83, "velocity": 61}, {"onset_time": 38.077652, "offset_time": 38.61, "midi_note": 74, "velocity": 52}, {"onset_time": 38.334076, "offset_time": 39.12476, "midi_note": 59, "velocity": 45}, {"onset_time": 38.612713, "offset_time": 39.19, "midi_note": 84, "velocity": 61}, {"onset_time": 38.62273, "offset_time": 39.0, "midi_note": 74, "velocity": 51}, {"onset_time": 38.671104, "offset_time": 39.12477, "midi_note": 52, "velocity": 25}, {"onset_time": 38.87631, "offset_time": 39.124737, "midi_note": 55, "velocity": 36}, {"onset_time": 39.011013, "offset_time": 39.21, "midi_note": 74, "velocity": 44}, {"onset_time": 39.057888, "offset_time": 40.872833, "midi_note": 78, "velocity": 46}, {"onset_time": 39.184597, "offset_time": 40.868027, "midi_note": 86, "velocity": 69}, {"onset_time": 39.192783, "offset_time": 40.86, "midi_note": 47, "velocity": 46}, {"onset_time": 39.223434, "offset_time": 40.868126, "midi_note": 74, "velocity": 27}, {"onset_time": 39.453094, "offset_time": 39.95, "midi_note": 54, "velocity": 42}, {"onset_time": 39.72263, "offset_time": 40.866924, "midi_note": 59, "velocity": 41}, {"onset_time": 39.95571, "offset_time": 40.86663, "midi_note": 54, "velocity": 37}, {"onset_time": 40.284702, "offset_time": 40.866604, "midi_note": 62, "velocity": 32}, {"onset_time": 40.878487, "offset_time": 42.49822, "midi_note": 84, "velocity": 75}, {"onset_time": 40.880527, "offset_time": 41.96, "midi_note": 76, "velocity": 60}, {"onset_time": 40.893456, "offset_time": 42.502106, "midi_note": 48, "velocity": 47}, {"onset_time": 41.17002, "offset_time": 41.67, "midi_note": 55, "velocity": 46}, {"onset_time": 41.41378, "offset_time": 42.49738, "midi_note": 62, "velocity": 38}, {"onset_time": 41.664345, "offset_time": 42.50083, "midi_note": 86, "velocity": 60}, {"onset_time": 41.680378, "offset_time": 42.21, "midi_note": 55, "velocity": 45}, {"onset_time": 41.94418, "offset_time": 42.49702, "midi_note": 88, "velocity": 66}, {"onset_time": 41.97099, "offset_time": 42.49722, "midi_note": 76, "velocity": 37}, {"onset_time": 41.99824, "offset_time": 42.503056, "midi_note": 64, "velocity": 27}, {"onset_time": 42.221535, "offset_time": 42.49659, "midi_note": 55, "velocity": 50}, {"onset_time": 42.429703, "offset_time": 42.57, "midi_note": 74, "velocity": 44}, {"onset_time": 42.466385, "offset_time": 44.1, "midi_note": 79, "velocity": 57}, {"onset_time": 42.538067, "offset_time": 44.19, "midi_note": 83, "velocity": 61}, {"onset_time": 42.543552, "offset_time": 44.13, "midi_note": 47, "velocity": 52}, {"onset_time": 42.806408, "offset_time": 43.32, "midi_note": 55, "velocity": 53}, {"onset_time": 43.07689, "offset_time": 43.59, "midi_note": 62, "velocity": 38}, {"onset_time": 43.324905, "offset_time": 44.18, "midi_note": 84, "velocity": 66}, {"onset_time": 43.32599, "offset_time": 43.84, "midi_note": 55, "velocity": 48}, {"onset_time": 43.32702, "offset_time": 44.13616, "midi_note": 74, "velocity": 48}, {"onset_time": 43.592598, "offset_time": 44.135086, "midi_note": 86, "velocity": 71}, {"onset_time": 43.604954, "offset_time": 44.14325, "midi_note": 62, "velocity": 35}, {"onset_time": 43.853863, "offset_time": 44.2, "midi_note": 55, "velocity": 51}, {"onset_time": 44.089825, "offset_time": 44.55, "midi_note": 76, "velocity": 49}, {"onset_time": 44.105927, "offset_time": 45.25, "midi_note": 79, "velocity": 56}, {"onset_time": 44.185818, "offset_time": 45.772655, "midi_note": 45, "velocity": 43}, {"onset_time": 44.189846, "offset_time": 45.77217, "midi_note": 84, "velocity": 65}, {"onset_time": 44.453568, "offset_time": 45.77254, "midi_note": 52, "velocity": 46}, {"onset_time": 44.454967, "offset_time": 45.79, "midi_note": 83, "velocity": 63}, {"onset_time": 44.71328, "offset_time": 45.77178, "midi_note": 55, "velocity": 48}, {"onset_time": 44.71447, "offset_time": 45.77525, "midi_note": 81, "velocity": 60}, {"onset_time": 45.00411, "offset_time": 45.53, "midi_note": 60, "velocity": 44}, {"onset_time": 45.26286, "offset_time": 45.777225, "midi_note": 79, "velocity": 60}, {"onset_time": 45.294056, "offset_time": 45.73, "midi_note": 76, "velocity": 41}, {"onset_time": 45.30099, "offset_time": 45.81, "midi_note": 64, "velocity": 31}, {"onset_time": 45.543633, "offset_time": 45.8, "midi_note": 60, "velocity": 38}, {"onset_time": 45.69863, "offset_time": 45.94, "midi_note": 72, "velocity": 44}, {"onset_time": 45.73501, "offset_time": 46.61, "midi_note": 76, "velocity": 49}, {"onset_time": 45.82325, "offset_time": 47.63587, "midi_note": 50, "velocity": 44}, {"onset_time": 45.826195, "offset_time": 47.63403, "midi_note": 81, "velocity": 59}, {"onset_time": 46.115974, "offset_time": 47.63511, "midi_note": 57, "velocity": 43}, {"onset_time": 46.385654, "offset_time": 47.62, "midi_note": 79, "velocity": 56}, {"onset_time": 46.394104, "offset_time": 47.634686, "midi_note": 60, "velocity": 39}, {"onset_time": 46.397415, "offset_time": 47.58, "midi_note": 74, "velocity": 43}, {"onset_time": 46.70084, "offset_time": 47.634933, "midi_note": 62, "velocity": 28}, {"onset_time": 46.98447, "offset_time": 47.63646, "midi_note": 78, "velocity": 58}, {"onset_time": 46.99796, "offset_time": 47.634766, "midi_note": 69, "velocity": 36}, {"onset_time": 47.008034, "offset_time": 47.635098, "midi_note": 54, "velocity": 38}, {"onset_time": 47.58501, "offset_time": 47.87, "midi_note": 74, "velocity": 40}, {"onset_time": 47.626034, "offset_time": 49.434357, "midi_note": 79, "velocity": 57}, {"onset_time": 47.722813, "offset_time": 49.434097, "midi_note": 43, "velocity": 45}, {"onset_time": 47.735897, "offset_time": 49.43435, "midi_note": 83, "velocity": 58}, {"onset_time": 48.009235, "offset_time": 48.53, "midi_note": 50, "velocity": 45}]
